<?xml version="1.0" encoding="UTF-8"?>
<svg version="1.1" xmlns="http://www.w3.org/2000/svg" width="460" height="460">
<path d="M0 0 C151.8 0 303.6 0 460 0 C460 151.8 460 303.6 460 460 C308.2 460 156.4 460 0 460 C0 308.2 0 156.4 0 0 Z " fill="#FEFEFE" transform="translate(0,0)"/>
<path d="M0 0 C4.58958873 -0.1985843 9.17665268 -0.34328733 13.76953125 -0.43945312 C15.3295448 -0.47955298 16.88926009 -0.53405278 18.44824219 -0.60351562 C31.46829407 -1.16888186 31.46829407 -1.16888186 35.28808594 1.74609375 C36.8671875 3.90625 36.8671875 3.90625 37.98779297 6.07226562 C38.97742213 8.33074797 38.97742213 8.33074797 42 10 C44.74631539 9.70783879 47.28684341 9.20704546 49.9375 8.4375 C54.42091697 7.48647216 57.92018416 7.43849576 62.02734375 9.57421875 C62.98769531 10.27160156 63.94804687 10.96898438 64.9375 11.6875 C65.96875 12.41710937 67 13.14671875 68.0625 13.8984375 C69.031875 14.59195313 70.00125 15.28546875 71 16 C72.46963969 16.95236519 73.9474004 17.89247638 75.4375 18.8125 C76.01371094 19.16957031 76.58992187 19.52664062 77.18359375 19.89453125 C79.08966209 21.11752508 79.08966209 21.11752508 81.703125 22.125 C84 24 84 24 84.48828125 27.79296875 C84.45512197 29.25860885 84.39558979 30.72384139 84.3125 32.1875 C84.27866211 33.31188477 84.27866211 33.31188477 84.24414062 34.45898438 C84.18529157 36.3068447 84.09560938 38.15367667 84 40 C87.59711928 40.72994559 91.20060329 41.40974758 94.8125 42.0625 C95.78832031 42.23910156 96.76414062 42.41570312 97.76953125 42.59765625 C98.50558594 42.73042969 99.24164063 42.86320312 100 43 C109.80698606 71.56403708 109.80698606 71.56403708 109 78 C107.28515625 80.75390625 107.28515625 80.75390625 105.0625 83.5625 C101.41661974 87.81439347 101.41661974 87.81439347 100 93 C101.39396582 96.01009495 103.0578669 98.78502123 104.75 101.63671875 C106.9820828 107.64241653 105.65351511 112.82218872 103.22265625 118.60546875 C102.51546351 120.13880901 101.79526011 121.6662122 101.0625 123.1875 C100.34252465 124.72147253 99.62501872 126.25660686 98.91015625 127.79296875 C98.59183838 128.4583667 98.27352051 129.12376465 97.94555664 129.80932617 C96.79576109 132.47318247 95.91750532 135.24748403 95 138 C86.09 138.99 86.09 138.99 77 140 C76.01 145.61 75.02 151.22 74 157 C72.845 157.350625 71.69 157.70125 70.5 158.0625 C67.28600481 159.11685341 64.20007671 160.33004997 61.12109375 161.72265625 C60.43273437 162.03388428 59.744375 162.3451123 59.03515625 162.66577148 C57.66483845 163.29239842 56.29869597 163.92826036 54.9375 164.57446289 C49.38227724 167.11487726 44.14931093 168.8246222 38.03125 167.22265625 C37.1959375 166.83980469 36.360625 166.45695313 35.5 166.0625 C34.21609375 165.49208984 34.21609375 165.49208984 32.90625 164.91015625 C32.2771875 164.60980469 31.648125 164.30945313 31 164 C30.42636719 164.721875 29.85273438 165.44375 29.26171875 166.1875 C26.6875 169 26.6875 169 20 174 C13.73 174 7.46 174 1 174 C1 193.47 1 212.94 1 233 C8.92 233 16.84 233 25 233 C25 237.29 25 241.58 25 246 C17.08 246 9.16 246 1 246 C1 267.78 1 289.56 1 312 C25.75 312 50.5 312 76 312 C76 317.61 76 323.22 76 329 C65.44 329 54.88 329 44 329 C44 334.28 44 339.56 44 345 C10.67 345 -22.66 345 -57 345 C-57 339.72 -57 334.44 -57 329 C-68.22 329 -79.44 329 -91 329 C-91 323.39 -91 317.78 -91 312 C-66.25 312 -41.5 312 -16 312 C-16 295.5 -16 279 -16 262 C-20.95 262 -25.9 262 -31 262 C-31 259.36 -31 256.72 -31 254 C-41.56 254 -52.12 254 -63 254 C-63 248.39 -63 242.78 -63 237 C-52.11 237 -41.22 237 -30 237 C-30 239.64 -30 242.28 -30 245 C-25.38 245 -20.76 245 -16 245 C-16.04036343 235.71571443 -16.09748945 226.43194363 -16.18390274 217.1479702 C-16.22336525 212.83675009 -16.25555961 208.52573386 -16.27099609 204.21435547 C-16.28617096 200.05142284 -16.32063065 195.88905074 -16.36830902 191.72636795 C-16.38311437 190.1404572 -16.39104053 188.55446642 -16.39188385 186.96848679 C-16.39425796 184.74189672 -16.42136949 182.51685019 -16.45410156 180.29052734 C-16.46298401 179.02477875 -16.47186646 177.75903015 -16.48101807 176.45492554 C-17.24911756 171.34159424 -19.89691214 168.33019419 -23.125 164.4375 C-26.63171653 162.68414174 -27.38178456 163.14221667 -31 164.3125 C-31.825 164.63863281 -32.65 164.96476563 -33.5 165.30078125 C-37.14511559 166.32027452 -39.65548094 165.72190744 -42.95703125 163.94921875 C-43.56933594 163.53285156 -44.18164062 163.11648437 -44.8125 162.6875 C-47.46291942 160.95033371 -50.07427459 159.41996543 -52.9375 158.0625 C-53.58589844 157.72605469 -54.23429687 157.38960937 -54.90234375 157.04296875 C-57.03454105 155.9397051 -57.03454105 155.9397051 -59.50390625 155.05078125 C-62.50554527 153.63686365 -64.04385981 152.71464352 -66 150 C-67.13775786 144.08536361 -66.50577343 137.95688705 -66 132 C-66.89803345 131.71733276 -66.89803345 131.71733276 -67.81420898 131.42895508 C-69.35336962 130.93678471 -70.88452928 130.41936261 -72.41015625 129.88671875 C-74.08732659 129.31248396 -75.78360082 128.79030401 -77.49609375 128.33203125 C-80.09556617 127.49115101 -81.88471954 126.74225382 -84 125 C-85.76173265 121.10231044 -86.41687826 117.21809558 -87 113 C-87.12761719 112.27039063 -87.25523437 111.54078125 -87.38671875 110.7890625 C-87.68795553 108.87210118 -87.84401564 106.93420608 -88 105 C-88.08765625 104.19820313 -88.1753125 103.39640625 -88.265625 102.5703125 C-88.60030749 97.56528794 -88.26380302 94.77200636 -85.0625 90.8125 C-84.51722656 90.24144531 -83.97195312 89.67039062 -83.41015625 89.08203125 C-81.33211649 86.01390053 -81.05932835 83.68626797 -81 80 C-82.62571464 76.81560714 -82.62571464 76.81560714 -85 73.9375 C-89.01789808 68.77260061 -89.01789808 68.77260061 -88.9296875 64.96484375 C-87.96544775 61.88981026 -86.75999891 59.39880412 -85.125 56.625 C-83.31546783 53.44005146 -81.65092691 50.39541599 -80.4375 46.9375 C-80.09525391 46.00550781 -80.09525391 46.00550781 -79.74609375 45.0546875 C-79.17574358 43.48398493 -78.63093396 41.90398569 -78.09765625 40.3203125 C-76.97261395 37.49369378 -75.96865507 35.32536092 -74 33 C-70.3041928 31.71117551 -66.87702458 31.82592951 -63 32 C-61.27079554 31.98258355 -59.5416174 31.96208461 -57.8125 31.9375 C-55.9253125 31.9684375 -55.9253125 31.9684375 -54 32 C-53.9175 31.195625 -53.835 30.39125 -53.75 29.5625 C-53.5025 28.386875 -53.255 27.21125 -53 26 C-52.80470703 24.95005859 -52.80470703 24.95005859 -52.60546875 23.87890625 C-51.29126128 19.44441671 -49.42547732 17.05523746 -45.45703125 14.75 C-26.6649959 4.89588348 -26.6649959 4.89588348 -19 7 C-17.60587891 7.36931641 -17.60587891 7.36931641 -16.18359375 7.74609375 C-13.44921734 8.47595923 -10.72317589 9.22956412 -8 10 C-7.05125 9.0925 -6.1025 8.185 -5.125 7.25 C-4.59132813 6.73953125 -4.05765625 6.2290625 -3.5078125 5.703125 C-1.9152788 3.90430455 -1.03169513 2.1568268 0 0 Z " fill="#2D333A" transform="translate(226,58)"/>
<path d="M0 0 C16.22719163 -1.22469371 16.22719163 -1.22469371 20.42578125 1.67578125 C21.87605107 3.72564582 22.92321017 5.7383089 24 8 C24.9976048 9.00238948 25.99714695 10.00286121 27 11 C27 11.66 27 12.32 27 13 C28.61068359 12.54947266 28.61068359 12.54947266 30.25390625 12.08984375 C31.68991709 11.70503039 33.12612583 11.32095496 34.5625 10.9375 C35.26697266 10.73833984 35.97144531 10.53917969 36.69726562 10.33398438 C42.43490844 8.82686161 47.18105851 8.51058912 52.6171875 11.3828125 C58.68944099 16.06832298 58.68944099 16.06832298 60.0625 20.1875 C60.041875 21.445625 60.02125 22.70375 60 24 C60.01546875 25.53914063 60.01546875 25.53914063 60.03125 27.109375 C60.05909339 30.07469655 60.04381766 33.03500521 60 36 C60.61746094 36.10957031 61.23492187 36.21914062 61.87109375 36.33203125 C77.20224719 39.20224719 77.20224719 39.20224719 80 42 C80.37297911 43.76290907 80.69880466 45.53591812 81 47.3125 C81.61898855 51.22108383 81.61898855 51.22108383 82.80078125 54.97265625 C83.13676369 58.39177167 81.10090714 60.39730575 79.1875 63.125 C78.45917969 64.17945313 77.73085938 65.23390625 76.98046875 66.3203125 C75 69 75 69 73 71 C73.38591246 76.78047604 75.9709217 81.02745381 78.72265625 86 C80.6201173 90.45642228 80.56268851 93.46064501 78.90625 97.9921875 C78.4421875 98.94351563 77.978125 99.89484375 77.5 100.875 C77.0359375 101.84179688 76.571875 102.80859375 76.09375 103.8046875 C75.55234375 104.89136719 75.55234375 104.89136719 75 106 C67.64424835 106.70776992 60.3905476 107.14715692 53 107 C53.02320313 107.845625 53.04640625 108.69125 53.0703125 109.5625 C53.28668076 123.1627907 53.28668076 123.1627907 51 128 C44.8728962 132.25864046 37.23885646 133.18205348 30 132 C25.85465181 130.60858812 21.926709 128.91881068 18 127 C17.74734375 127.56203125 17.4946875 128.1240625 17.234375 128.703125 C14.59837693 133.60808343 11.20068358 137.75621388 6 140 C2.21982771 140.7750478 -1.45999295 140.95594977 -5.3125 141 C-6.27961914 141.02416992 -7.24673828 141.04833984 -8.24316406 141.07324219 C-15.01558965 140.89657022 -15.01558965 140.89657022 -17.67993164 138.4699707 C-18.9921875 136.61328125 -18.9921875 136.61328125 -20.00732422 134.77075195 C-21.08492373 132.66099141 -21.08492373 132.66099141 -23.8125 130.1875 C-24.534375 129.465625 -25.25625 128.74375 -26 128 C-26 127.34 -26 126.68 -26 126 C-27.09699219 126.37253906 -28.19398438 126.74507813 -29.32421875 127.12890625 C-30.77844146 127.60739243 -32.23288011 128.08522263 -33.6875 128.5625 C-34.7693457 128.9327832 -34.7693457 128.9327832 -35.87304688 129.31054688 C-39.97218978 130.63949275 -42.77465176 131.38465804 -47 130 C-48.32451172 129.68482422 -48.32451172 129.68482422 -49.67578125 129.36328125 C-53.15466142 127.97688308 -54.73751478 127.04681342 -57 124 C-58.33371002 116.79796587 -57.59842615 109.25660755 -57 102 C-57.77939941 101.84909912 -58.55879883 101.69819824 -59.36181641 101.54272461 C-61.79681907 101.04179819 -64.03058649 100.37923611 -66.375 99.5625 C-70.22241716 98.24780469 -74.08164916 97.08379917 -78 96 C-80.02340976 84.19961028 -80.02340976 84.19961028 -77.61328125 79.01953125 C-75.84479104 76.56885613 -73.95823248 74.29968898 -72 72 C-70.05477264 69.68731702 -70.05477264 69.68731702 -69 67 C-70.09702459 61.40443833 -73.37312798 57.33327239 -76.63671875 52.78125 C-78.36939733 49.24638711 -78.10119738 47.74407111 -77 44 C-75.1933859 39.88632468 -73.08197195 35.9867548 -71 32 C-60.605 31.505 -60.605 31.505 -50 31 C-48.03149869 24.50546344 -48.03149869 24.50546344 -46.18359375 17.9765625 C-45.01012111 14.27797333 -44.02256102 11.74938588 -40.8359375 9.4140625 C-34.74014901 6.60207338 -30.19801338 6.72704433 -24 9 C-23.12730469 9.3196875 -22.25460938 9.639375 -21.35546875 9.96875 C-17.47113356 11.47016214 -13.70641414 13.1001447 -10 15 C-9.7215625 14.01 -9.7215625 14.01 -9.4375 13 C-7.67801112 9.32802321 -5.30016355 6.75048968 -2.55859375 3.76953125 C-0.92943284 2.07185494 -0.92943284 2.07185494 0 0 Z " fill="#FDFDFD" transform="translate(234,75)"/>
<path d="M0 0 C1.42730186 -0.01360313 1.42730186 -0.01360313 2.88343811 -0.02748108 C4.88965491 -0.03659936 6.89602146 -0.02797292 8.90209961 -0.00268555 C11.96180456 0.02723762 15.01309631 -0.02272947 18.07226562 -0.08007812 C20.02735226 -0.07904663 21.98244316 -0.07334196 23.9375 -0.0625 C24.84499496 -0.0818309 25.75248993 -0.1011618 26.68748474 -0.12107849 C30.58136318 -0.02163251 33.06240491 0.14056915 36.09890747 2.71359253 C37.95532227 4.84936523 37.95532227 4.84936523 39.52931213 6.97019958 C41.01047849 8.93215554 42.48969935 10.31987283 44.41015625 11.83984375 C47.03515625 13.96484375 47.03515625 13.96484375 48.03515625 15.96484375 C50.62611162 41.07968293 50.62611162 41.07968293 45.9453125 47.90234375 C43.42773171 50.32750234 40.99989364 52.132097 38.03515625 53.96484375 C37.51840332 54.63950684 37.00165039 55.31416992 36.46923828 56.00927734 C32.76121736 58.98833929 29.15147673 58.72739109 24.51171875 58.84765625 C23.57395599 58.87519989 22.63619324 58.90274353 21.67001343 58.93112183 C19.6814526 58.97765511 17.69258022 59.01219201 15.70361328 59.03564453 C12.69999701 59.08913425 9.71094845 59.23866932 6.7109375 59.390625 C-2.0966582 59.63540015 -9.43782174 59.45957282 -16.44995117 53.63450623 C-21.65027387 48.53755794 -24.71264901 43.87799484 -25.61328125 36.5 C-25.59502128 34.00751443 -25.50349075 31.51451833 -25.33984375 29.02734375 C-25.34371094 27.76599609 -25.34757813 26.50464844 -25.3515625 25.20507812 C-25.08335779 16.43293438 -25.08335779 16.43293438 -22.29785156 12.77685547 C-20.25390625 11.0234375 -20.25390625 11.0234375 -18.25244141 9.68530273 C-16.01871381 8.00535841 -14.9377234 6.56841937 -13.31958008 4.33398438 C-9.50649451 -0.21313252 -5.65989336 -0.06865509 0 0 Z " fill="#2B3138" transform="translate(230.96484375,110.03515625)"/>
<path d="M0 0 C0.67151596 -0.00478363 1.34303192 -0.00956726 2.03489685 -0.01449585 C3.44768633 -0.01788366 4.8605554 -0.00875917 6.27319336 0.01220703 C8.43195428 0.03904212 10.58553831 0.01241164 12.74414062 -0.01953125 C14.12110518 -0.01622776 15.49806652 -0.00982276 16.875 0 C18.74393921 0.00845947 18.74393921 0.00845947 20.65063477 0.01708984 C23.87109375 0.6640625 23.87109375 0.6640625 26.27294922 3.00830078 C28.23177051 6.26342727 28.4380125 8.38160851 28.43359375 12.1640625 C28.45550781 13.2675 28.47742188 14.3709375 28.5 15.5078125 C27.6656646 19.6950361 26.17147774 21.00190801 22.87109375 23.6640625 C19.52124023 24.31103516 19.52124023 24.31103516 15.7421875 24.328125 C14.73491356 24.33530045 14.73491356 24.33530045 13.70729065 24.34262085 C12.29450117 24.34600866 10.8816321 24.33688417 9.46899414 24.31591797 C7.31023322 24.28908288 5.15664919 24.31571336 2.99804688 24.34765625 C1.62108232 24.34435276 0.24412098 24.33794776 -1.1328125 24.328125 C-2.37877197 24.32248535 -3.62473145 24.3168457 -4.90844727 24.31103516 C-8.12890625 23.6640625 -8.12890625 23.6640625 -10.53076172 21.31982422 C-12.48958301 18.06469773 -12.695825 15.94651649 -12.69140625 12.1640625 C-12.71332031 11.060625 -12.73523438 9.9571875 -12.7578125 8.8203125 C-11.34762994 1.74312302 -6.66210677 0.03012775 0 0 Z " fill="#F8F8F8" transform="translate(235.12890625,127.3359375)"/>
<path d="M0 0 C13.2 0 26.4 0 40 0 C40 5.28 40 10.56 40 16 C26.8 16 13.6 16 0 16 C0 10.72 0 5.44 0 0 Z " fill="#2A3037" transform="translate(251,274)"/>
</svg>
