<?xml version="1.0" encoding="UTF-8"?>
<svg version="1.1" xmlns="http://www.w3.org/2000/svg" width="460" height="460">
<path d="M0 0 C1.13179688 -0.01224609 2.26359375 -0.02449219 3.4296875 -0.03710938 C5.06164062 -0.04000977 5.06164062 -0.04000977 6.7265625 -0.04296875 C7.71479004 -0.04707764 8.70301758 -0.05118652 9.72119141 -0.05541992 C12.46564349 0.19579717 14.06252759 0.72102247 16.375 2.1875 C17.90234375 4.09765625 17.90234375 4.09765625 19.3125 6.25 C21.52568153 9.3322399 21.52568153 9.3322399 24.6875 11.3125 C27.95891076 11.16034136 30.92616945 10.38729944 34.1015625 9.6171875 C37.46873855 8.98077966 40.08122466 9.30071433 43.375 10.1875 C45.04194751 11.5204822 46.70856528 12.85387678 48.375 14.1875 C51.32087978 15.88483967 54.28257534 17.51772139 57.29101562 19.09960938 C61.26228586 21.27629479 64.02209753 23.29068332 66.375 27.1875 C66.984375 30.51953125 66.984375 30.51953125 67.125 34 C67.18171875 35.16144531 67.2384375 36.32289062 67.296875 37.51953125 C67.33554687 38.84017578 67.33554687 38.84017578 67.375 40.1875 C67.95507812 40.38085938 68.53515625 40.57421875 69.1328125 40.7734375 C70.75275514 41.31341838 72.36984231 41.86202117 73.984375 42.41796875 C76.51129135 43.27984767 76.51129135 43.27984767 79.75 43.875 C83.11410028 45.55705014 83.4061018 47.36187844 84.59863281 50.79174805 C85.99208993 55.09174636 87.30722272 59.40767044 88.5625 63.75 C88.97145508 65.1102832 88.97145508 65.1102832 89.38867188 66.49804688 C90.82661591 71.46778327 92.06818272 75.97579287 91.375 81.1875 C89.66015625 83.91796875 89.66015625 83.91796875 87.4375 86.375 C83.71898891 90.23868286 83.71898891 90.23868286 82.375 95.1875 C83.72743765 97.98804613 85.36220725 100.51585403 87.02734375 103.140625 C89.12299544 107.87862013 89.19258488 111.75724316 87.56762695 116.58740234 C86.47522277 119.18441965 85.29410051 121.71614903 84.0625 124.25 C83.2535271 125.9698738 82.44492628 127.68992266 81.63671875 129.41015625 C81.27537842 130.16047119 80.91403809 130.91078613 80.54174805 131.68383789 C79.0806662 134.81909513 77.73756213 138.00818836 76.375 141.1875 C67.465 142.1775 67.465 142.1775 58.375 143.1875 C57.941875 146.52875 57.941875 146.52875 57.5 149.9375 C56.38634713 158.52853646 56.38634713 158.52853646 54.375 161.1875 C52.01171875 162.27734375 52.01171875 162.27734375 49.0625 163.125 C44.46160305 164.5185409 40.02229655 166.07869306 35.5625 167.875 C24.58394649 172.10154682 24.58394649 172.10154682 18.75 169.6875 C17.63625 169.1925 16.5225 168.6975 15.375 168.1875 C12.79910136 167.86848409 12.79910136 167.86848409 10.375 169.1875 C8.065 171.4975 5.755 173.8075 3.375 176.1875 C-3.225 176.1875 -9.825 176.1875 -16.625 176.1875 C-16.625 195.3275 -16.625 214.4675 -16.625 234.1875 C-9.365 233.8575 -2.105 233.5275 5.375 233.1875 C5.354375 231.104375 5.33375 229.02125 5.3125 226.875 C5.25 220.5625 5.25 220.5625 6.375 217.1875 C19.905 217.1875 33.435 217.1875 47.375 217.1875 C48.38673798 220.22271394 48.54073514 222.38483079 48.5625 225.5625 C48.57667969 226.49835938 48.59085938 227.43421875 48.60546875 228.3984375 C48.375 231.1875 48.375 231.1875 46.375 236.1875 C33.505 235.8575 20.635 235.5275 7.375 235.1875 C7.375 239.4775 7.375 243.7675 7.375 248.1875 C7.045 248.5175 6.715 248.8475 6.375 249.1875 C-1.215 249.1875 -8.805 249.1875 -16.625 249.1875 C-16.625 270.3075 -16.625 291.4275 -16.625 313.1875 C-8.62958984 313.17009766 -8.62958984 313.17009766 -0.47265625 313.15234375 C2.8951835 313.14723692 6.26301851 313.14242314 9.63085938 313.13867188 C14.98169948 313.13268371 20.33252255 313.12558412 25.68334961 313.11206055 C29.99511973 313.10123071 34.30687159 313.09522296 38.61865425 313.09262276 C40.26736298 313.09076868 41.91607066 313.0871484 43.56477165 313.08176994 C45.86603872 313.07455822 48.1672294 313.07350911 50.46850586 313.07397461 C51.7808873 313.071754 53.09326874 313.06953339 54.44541931 313.06724548 C57.375 313.1875 57.375 313.1875 58.375 314.1875 C58.47486975 317.03085048 58.51377881 319.84447163 58.5 322.6875 C58.50386719 323.48542969 58.50773438 324.28335937 58.51171875 325.10546875 C58.50160767 331.06089233 58.50160767 331.06089233 57.375 332.1875 C55.08348583 332.27540975 52.78927476 332.29444038 50.49609375 332.28515625 C49.46610008 332.28303383 49.46610008 332.28303383 48.41529846 332.28086853 C46.21432199 332.27525479 44.01344591 332.26270007 41.8125 332.25 C40.32356917 332.24498676 38.83463676 332.24042355 37.34570312 332.23632812 C33.68876925 332.22528093 30.03189442 332.20800713 26.375 332.1875 C26.39820313 333.17492187 26.42140625 334.16234375 26.4453125 335.1796875 C26.46335937 336.46101563 26.48140625 337.74234375 26.5 339.0625 C26.52320313 340.33867187 26.54640625 341.61484375 26.5703125 342.9296875 C26.375 346.1875 26.375 346.1875 24.375 348.1875 C22.56996059 348.43638897 22.56996059 348.43638897 20.34483337 348.43473816 C19.08075401 348.44102989 19.08075401 348.44102989 17.7911377 348.44744873 C16.86482544 348.44182922 15.93851318 348.43620972 14.98413086 348.43041992 C14.01008804 348.43231827 13.03604523 348.43421661 12.03248596 348.43617249 C8.80152427 348.43988788 5.57078559 348.4291659 2.33984375 348.41796875 C0.10307339 348.41677736 -2.13369748 348.4163237 -4.37046814 348.4165802 C-9.06219608 348.41501406 -13.75384786 348.40671385 -18.44555664 348.39331055 C-24.47417533 348.37631074 -30.50271029 348.3724964 -36.53135014 348.37325573 C-41.15084133 348.37298445 -45.77031405 348.36751026 -50.38979912 348.36025429 C-52.61346738 348.3570614 -54.83713775 348.35509877 -57.06080818 348.35436058 C-60.1617506 348.35220412 -63.2626023 348.34347528 -66.36352539 348.33276367 C-67.29186188 348.33321686 -68.22019836 348.33367004 -69.17666626 348.33413696 C-75.51052618 348.30197382 -75.51052618 348.30197382 -76.625 347.1875 C-76.625 342.2375 -76.625 337.2875 -76.625 332.1875 C-87.845 332.1875 -99.065 332.1875 -110.625 332.1875 C-110.645625 329.238125 -110.66625 326.28875 -110.6875 323.25 C-110.70115601 321.85406616 -110.70115601 321.85406616 -110.71508789 320.42993164 C-110.71758545 319.70153076 -110.72008301 318.97312988 -110.72265625 318.22265625 C-110.73051147 317.09935913 -110.73051147 317.09935913 -110.73852539 315.95336914 C-110.625 314.1875 -110.625 314.1875 -109.625 313.1875 C-107.35508113 313.09310022 -105.08218033 313.07007774 -102.81030273 313.07397461 C-101.74206772 313.07375557 -101.74206772 313.07375557 -100.6522522 313.0735321 C-98.28766888 313.0742313 -95.92316339 313.08202394 -93.55859375 313.08984375 C-91.92334537 313.09170791 -90.28809643 313.09313182 -88.65284729 313.09413147 C-84.34065215 313.09795682 -80.02849048 313.10778725 -75.71630859 313.11883545 C-70.5468032 313.13084373 -65.37728664 313.13545173 -60.2077713 313.14128876 C-52.34682423 313.150999 -44.48595065 313.17015542 -36.625 313.1875 C-36.295 297.6775 -35.965 282.1675 -35.625 266.1875 C-39.915 265.8575 -44.205 265.5275 -48.625 265.1875 C-49.285 264.8575 -49.945 264.5275 -50.625 264.1875 C-50.625 261.8775 -50.625 259.5675 -50.625 257.1875 C-60.855 257.1875 -71.085 257.1875 -81.625 257.1875 C-82.50590233 252.78298835 -82.61768032 249.82978921 -82.25 245.4375 C-82.15976563 244.28765625 -82.06953125 243.1378125 -81.9765625 241.953125 C-81.625 239.1875 -81.625 239.1875 -80.625 238.1875 C-78.2493148 238.0991033 -75.90291326 238.07219695 -73.52734375 238.08984375 C-72.46405602 238.09196617 -72.46405602 238.09196617 -71.37928772 238.09413147 C-69.10698288 238.09974557 -66.83477525 238.11230037 -64.5625 238.125 C-63.02539204 238.13001319 -61.48828255 238.13457641 -59.95117188 238.13867188 C-56.17574358 238.14971958 -52.40038829 238.16699359 -48.625 238.1875 C-47.5 243.9375 -47.5 243.9375 -48.625 246.1875 C-44.335 246.1875 -40.045 246.1875 -35.625 246.1875 C-35.62012567 236.92035568 -35.64062613 227.65420762 -35.7052784 218.38728237 C-35.73429887 214.08380673 -35.75238139 209.78087442 -35.74511719 205.47729492 C-35.73850932 201.3206803 -35.76109016 197.16513794 -35.80355453 193.00874519 C-35.81466009 191.42644126 -35.81540886 189.84402824 -35.80542374 188.26171684 C-35.45791493 178.38203966 -35.45791493 178.38203966 -39.40966797 169.66040039 C-41.24513528 167.82092438 -42.12131884 167.23977005 -44.71658325 166.97044373 C-47.56172023 167.25655846 -50.06491039 167.9074552 -52.625 169.1875 C-57.08419999 169.94882683 -59.40532791 168.90224062 -63 166.4375 C-63.77085937 165.88449219 -64.54171875 165.33148438 -65.3359375 164.76171875 C-67.39672121 163.34449036 -69.35692151 162.28464138 -71.625 161.25 C-76.38548866 158.95117248 -80.97299706 156.03129303 -84.625 152.1875 C-85.89098473 148.31042176 -85.72842695 144.42676763 -85.6875 140.375 C-85.67847656 139.21355469 -85.66945312 138.05210937 -85.66015625 136.85546875 C-85.64855469 135.97503906 -85.63695312 135.09460938 -85.625 134.1875 C-86.33785156 134.00574219 -87.05070312 133.82398438 -87.78515625 133.63671875 C-90.74407967 132.86015069 -93.68304939 132.02579776 -96.625 131.1875 C-97.3571875 131.01734375 -98.089375 130.8471875 -98.84375 130.671875 C-100.6875 130.125 -100.6875 130.125 -103.625 128.1875 C-104.94679962 124.94131563 -105.2355017 121.65174373 -105.625 118.1875 C-105.99752867 115.97874843 -106.37259899 113.77042427 -106.75 111.5625 C-107.05021141 109.43869032 -107.34277541 107.31377461 -107.625 105.1875 C-107.74746094 104.4553125 -107.86992187 103.723125 -107.99609375 102.96875 C-108.59072695 97.04668877 -105.41147561 93.31704123 -102.05859375 88.80078125 C-100.40128876 86.30925519 -100.40128876 86.30925519 -100.71875 83.625 C-101.70933853 80.96065844 -102.95191121 79.11936659 -104.6875 76.875 C-107.08682209 73.36294883 -108.51515459 70.69633044 -108.1484375 66.26953125 C-107.29568082 62.87759608 -105.72511551 59.96398264 -104.0546875 56.90625 C-102.5151001 53.97851003 -101.2867469 51.00952327 -100.0625 47.9375 C-95.84986038 37.69551992 -95.84986038 37.69551992 -91.98828125 35.078125 C-88.67357244 33.82894548 -85.37638345 33.72135294 -81.875 33.5625 C-80.82892578 33.50449219 -80.82892578 33.50449219 -79.76171875 33.4453125 C-78.04989182 33.35151376 -76.33748318 33.26843826 -74.625 33.1875 C-74.32207031 32.29546875 -74.01914063 31.4034375 -73.70703125 30.484375 C-73.28808594 29.31390625 -72.86914062 28.1434375 -72.4375 26.9375 C-72.03144531 25.77734375 -71.62539062 24.6171875 -71.20703125 23.421875 C-68.14169562 17.15496659 -62.74705279 15.11523788 -56.625 12.5625 C-55.92632812 12.2634375 -55.22765625 11.964375 -54.5078125 11.65625 C-53.15576001 11.07971441 -51.801186 10.50904693 -50.44384766 9.94506836 C-48.90056529 9.30227572 -47.36707335 8.63605597 -45.8359375 7.96484375 C-41.32123097 6.3775176 -37.10601055 7.87552615 -32.9375 9.8125 C-29.91349619 11.3550097 -29.91349619 11.3550097 -27.62890625 11.0546875 C-24.15030259 9.54932685 -22.65036739 6.28710235 -20.6015625 3.21875 C-15.88669202 -1.62657144 -6.33251762 0.00363103 0 0 Z M-13.64453125 24.37890625 C-14.23621094 25.16136719 -14.82789063 25.94382812 -15.4375 26.75 C-16.34435547 27.92755859 -16.34435547 27.92755859 -17.26953125 29.12890625 C-18.80831221 31.0551067 -18.80831221 31.0551067 -18.625 33.1875 C-23.54338363 32.81630124 -27.52697235 31.93984216 -32.125 30.125 C-39.01853283 27.51972001 -44.76921001 27.23012608 -51.73706055 29.93237305 C-55.48088961 32.4213198 -56.24256364 36.67735126 -57.4375 40.8125 C-57.97559988 42.55782631 -58.52331055 44.30022767 -59.08203125 46.0390625 C-59.30866455 46.81072754 -59.53529785 47.58239258 -59.76879883 48.37744141 C-60.19261841 49.27342041 -60.19261841 49.27342041 -60.625 50.1875 C-64.89532452 51.61094151 -69.26119956 51.46892934 -73.73242188 51.52929688 C-77.12990062 51.66469223 -79.22899356 51.89115081 -81.984375 53.953125 C-83.58514577 56.13322234 -84.83062401 58.15910252 -85.9375 60.625 C-86.28425781 61.36621094 -86.63101563 62.10742188 -86.98828125 62.87109375 C-87.80060281 65.82634947 -87.58128488 67.26695428 -86.625 70.1875 C-84.91360732 73.16762371 -83.14020805 76.0634623 -81.24414062 78.92773438 C-79.34239612 82.01849142 -78.5428652 83.67479921 -79.125 87.30859375 C-80.72210373 90.37386836 -82.55584998 92.70037767 -84.8125 95.3125 C-88.12788893 99.67516882 -89.14844358 102.26477139 -88.6875 107.75 C-88.2604629 110.50959268 -87.8713644 112.69477119 -86.625 115.1875 C-84.40222421 115.95848899 -82.14473708 116.63076675 -79.875 117.25 C-78.02648437 117.76240234 -78.02648437 117.76240234 -76.140625 118.28515625 C-73.30654244 119.01257077 -70.49478836 119.62921248 -67.625 120.1875 C-67.65231201 120.8172876 -67.67962402 121.4470752 -67.70776367 122.09594727 C-68.54293558 134.30964231 -68.54293558 134.30964231 -64.35546875 145.2421875 C-60.14846083 148.01616536 -56.91015188 149.1446616 -51.875 149.3125 C-48.52967637 148.19918317 -48.52967637 148.19918317 -45 146.625 C-41.65773561 145.20144294 -40.15428772 144.64702715 -36.625 145.1875 C-34.45703125 147.26953125 -34.45703125 147.26953125 -32.4375 150 C-31.76332031 150.89332031 -31.08914062 151.78664062 -30.39453125 152.70703125 C-29.10686938 154.51203189 -27.85489686 156.34265472 -26.625 158.1875 C-19.25678321 159.783233 -10.72979275 159.9850987 -3.625 157.1875 C-1.40968339 154.96037937 -1.40968339 154.96037937 0.375 152.1875 C6.77227195 146.2676364 6.77227195 146.2676364 10.875 146.0625 C12.33057826 146.71751022 13.77393338 147.40470668 15.17578125 148.16796875 C19.93548362 150.72804167 23.89364851 152.29965827 29.375 151.1875 C33.14547808 150.03417729 36.29251583 148.67206352 39.375 146.1875 C40.92435862 143.23965664 41.16819251 140.48090924 41.375 137.1875 C41.56119126 135.35403329 41.74867283 133.52069711 41.9375 131.6875 C42.00066406 130.8521875 42.06382812 130.016875 42.12890625 129.15625 C42.375 127.1875 42.375 127.1875 43.375 126.1875 C44.73081412 126.05776326 46.09201982 125.98315416 47.453125 125.93359375 C48.28457031 125.88267578 49.11601562 125.83175781 49.97265625 125.77929688 C51.72392597 125.67741889 53.47691259 125.60137124 55.23046875 125.55273438 C60.19221377 125.23491727 60.19221377 125.23491727 64.06445312 122.38330078 C65.33495222 120.36101356 66.39956951 118.36538149 67.375 116.1875 C67.705 115.5275 68.035 114.8675 68.375 114.1875 C69.34202125 108.62712781 67.80691696 105.93808594 64.8125 101.1875 C61.42705132 95.61878238 61.42705132 95.61878238 60.9375 91.5625 C62.77942165 87.2379883 65.44120318 84.10635145 68.5625 80.6171875 C70.54984304 77.95311989 71.1527001 76.48158031 71.375 73.1875 C70.97053927 70.36720996 70.97053927 70.36720996 70.125 67.5625 C69.87234375 66.62148437 69.6196875 65.68046875 69.359375 64.7109375 C68.29214553 61.97510323 67.77467972 60.85575333 65.375 59.1875 C62.79701648 58.34507697 60.31446172 57.6303727 57.6875 57 C56.98560547 56.82275391 56.28371094 56.64550781 55.56054688 56.46289062 C53.8343584 56.02840781 52.1049653 55.60669208 50.375 55.1875 C50.26542969 53.92292969 50.15585937 52.65835938 50.04296875 51.35546875 C49.88351225 49.69524514 49.72331749 48.03509233 49.5625 46.375 C49.49224609 45.54162109 49.42199219 44.70824219 49.34960938 43.84960938 C49.26904297 43.04716797 49.18847656 42.24472656 49.10546875 41.41796875 C49.00335083 40.31038208 49.00335083 40.31038208 48.89916992 39.18041992 C47.7705435 34.88932655 43.2951555 32.34010381 39.67578125 30.13671875 C35.49224059 28.41074187 31.6953857 29.30525908 27.375 30.1875 C26.45460938 30.3628125 25.53421875 30.538125 24.5859375 30.71875 C22.85606514 31.05774516 21.12901329 31.41170914 19.40625 31.78515625 C17.375 32.1875 17.375 32.1875 15.375 32.1875 C15.10300781 31.61386719 14.83101563 31.04023437 14.55078125 30.44921875 C12.41101803 26.33319581 10.14481965 22.96592654 6.375 20.1875 C-1.57021317 18.07659466 -7.87259149 18.11573757 -13.64453125 24.37890625 Z " fill="#3A3F46" transform="translate(244.625,55.8125)"/>
<path d="M0 0 C1.86973492 -0.05157889 3.73952651 -0.10115436 5.609375 -0.1484375 C6.90766235 -0.20596191 6.90766235 -0.20596191 8.23217773 -0.26464844 C12.54545749 -0.32135125 14.29535109 -0.28368135 17.7421875 2.5234375 C18.46148437 3.41546875 19.18078125 4.3075 19.921875 5.2265625 C21.97557885 7.03974247 24.06000423 8.80983807 26.15234375 10.578125 C28.64164084 12.89707284 29.85384995 14.5480051 30.1965332 17.96630859 C30.22473859 21.51175268 30.24358907 25.05598947 30.234375 28.6015625 C30.25048828 29.83390625 30.26660156 31.06625 30.28320312 32.3359375 C30.28384766 33.52445313 30.28449219 34.71296875 30.28515625 35.9375 C30.28813721 37.02337402 30.29111816 38.10924805 30.29418945 39.22802734 C29.56830644 45.07412255 25.7012792 48.8827615 21.734375 52.9765625 C20.83332031 53.94078125 19.93226563 54.905 19.00390625 55.8984375 C13.42890406 60.10971926 5.93297812 59.38458481 -0.84765625 59.39453125 C-1.65047531 59.39785965 -2.45329437 59.40118805 -3.28044128 59.40461731 C-4.96193881 59.40964306 -6.64344615 59.412027 -8.32495117 59.41186523 C-10.90104224 59.41407142 -13.47671773 59.43232596 -16.05273438 59.45117188 C-17.69270688 59.45410277 -19.3326814 59.4560896 -20.97265625 59.45703125 C-21.74140579 59.46421677 -22.51015533 59.47140228 -23.30220032 59.47880554 C-27.10260775 59.46244606 -28.83730675 59.387108 -32.078125 57.2265625 C-32.078125 56.5665625 -32.078125 55.9065625 -32.078125 55.2265625 C-32.635 54.9996875 -33.191875 54.7728125 -33.765625 54.5390625 C-38.00199964 52.13463365 -41.52830582 48.36260376 -44.078125 44.2265625 C-44.71280026 39.62545445 -44.54142944 34.99166923 -44.515625 30.3515625 C-44.53560547 29.08441406 -44.55558594 27.81726563 -44.57617188 26.51171875 C-44.57010386 14.97035211 -44.57010386 14.97035211 -40.078125 10.2265625 C-38.11885437 8.5122007 -36.11932288 6.84251082 -34.078125 5.2265625 C-33.58183594 4.53304687 -33.08554688 3.83953125 -32.57421875 3.125 C-28.51408107 0.03700796 -24.10899505 0.54272959 -19.140625 0.4765625 C-18.08190186 0.45126465 -17.02317871 0.4259668 -15.93237305 0.39990234 C-13.73569132 0.35177473 -11.53879511 0.31265052 -9.34179688 0.28222656 C-6.22501096 0.22906774 -3.11476526 0.12152691 0 0 Z M-24.98876953 21.59155273 C-26.17827199 24.4688051 -26.5112189 26.55775852 -26.515625 29.6640625 C-26.53496094 30.57027344 -26.55429688 31.47648437 -26.57421875 32.41015625 C-25.90495229 36.20969261 -24.53760119 38.26273356 -22.078125 41.2265625 C-18.9757238 42.11371997 -18.9757238 42.11371997 -15.484375 41.953125 C-14.20691406 41.95183594 -12.92945313 41.95054687 -11.61328125 41.94921875 C-10.61965576 41.92432373 -10.61965576 41.92432373 -9.60595703 41.89892578 C-7.58334133 41.85168434 -5.56599673 41.85780702 -3.54296875 41.87109375 C3.31949024 42.14309694 3.31949024 42.14309694 9.27148438 39.37646484 C11.80747655 36.07292237 12.07897716 33.33197474 12.109375 29.2890625 C12.12355469 28.43441406 12.13773437 27.57976562 12.15234375 26.69921875 C11.90544794 24.05031965 11.34601181 22.46020865 9.921875 20.2265625 C5.50792856 18.01958928 -0.40498927 18.91706961 -5.30883789 18.87646484 C-6.77839976 18.85988167 -8.2478802 18.83255976 -9.71704102 18.79443359 C-11.83652518 18.73972802 -13.9541243 18.71780781 -16.07421875 18.703125 C-17.34450928 18.68330566 -18.6147998 18.66348633 -19.92358398 18.64306641 C-23.24039279 18.90282179 -23.24039279 18.90282179 -24.98876953 21.59155273 Z " fill="#363B42" transform="translate(250.078125,109.7734375)"/>
<path d="M0 0 C12.87 0 25.74 0 39 0 C39 5.28 39 10.56 39 16 C26.13 16 13.26 16 0 16 C0 10.72 0 5.44 0 0 Z " fill="#282F36" transform="translate(252,274)"/>
<path d="M0 0 C0.33 0 0.66 0 1 0 C1 5.61 1 11.22 1 17 C12.22 17 23.44 17 35 17 C35 21.95 35 26.9 35 32 C68 32 101 32 135 32 C135 26.72 135 21.44 135 16 C145.89 16 156.78 16 168 16 C168 10.72 168 5.44 168 0 C168.33 0 168.66 0 169 0 C169.02684312 2.81256281 169.04676188 5.62487241 169.0625 8.4375 C169.07087891 9.23994141 169.07925781 10.04238281 169.08789062 10.86914062 C169.0965143 12.91295221 169.0522815 14.95683902 169 17 C168 18 168 18 165.04077148 18.11352539 C163.74727783 18.10828857 162.45378418 18.10305176 161.12109375 18.09765625 C160.09110008 18.09553383 160.09110008 18.09553383 159.04029846 18.09336853 C156.83932199 18.08775479 154.63844591 18.07520007 152.4375 18.0625 C150.94856917 18.05748676 149.45963676 18.05292355 147.97070312 18.04882812 C144.31376925 18.03778093 140.65689442 18.02050713 137 18 C137.02320313 18.98742187 137.04640625 19.97484375 137.0703125 20.9921875 C137.08835937 22.27351563 137.10640625 23.55484375 137.125 24.875 C137.14820313 26.15117187 137.17140625 27.42734375 137.1953125 28.7421875 C137 32 137 32 135 34 C133.19496059 34.24888897 133.19496059 34.24888897 130.96983337 34.24723816 C129.70575401 34.25352989 129.70575401 34.25352989 128.4161377 34.25994873 C127.02666931 34.25151947 127.02666931 34.25151947 125.60913086 34.24291992 C124.63508804 34.24481827 123.66104523 34.24671661 122.65748596 34.24867249 C119.42652427 34.25238788 116.19578559 34.2416659 112.96484375 34.23046875 C110.72807339 34.22927736 108.49130252 34.2288237 106.25453186 34.2290802 C101.56280392 34.22751406 96.87115214 34.21921385 92.17944336 34.20581055 C86.15082467 34.18881074 80.12228971 34.1849964 74.09364986 34.18575573 C69.47415867 34.18548445 64.85468595 34.18001026 60.23520088 34.17275429 C58.01153262 34.1695614 55.78786225 34.16759877 53.56419182 34.16686058 C50.4632494 34.16470412 47.3623977 34.15597528 44.26147461 34.14526367 C43.33313812 34.14571686 42.40480164 34.14617004 41.44833374 34.14663696 C35.11447382 34.11447382 35.11447382 34.11447382 34 33 C34 28.05 34 23.1 34 18 C22.78 18 11.56 18 0 18 C0 12.06 0 6.12 0 0 Z " fill="#C7C8CA" transform="translate(134,370)"/>
<path d="M0 0 C0.33 0 0.66 0 1 0 C1 19.14 1 38.28 1 58 C11.89 57.505 11.89 57.505 23 57 C22.9690625 53.8753125 22.9690625 53.8753125 22.9375 50.6875 C22.875 44.375 22.875 44.375 24 41 C37.53 41 51.06 41 65 41 C66.01173798 44.03521394 66.16573514 46.19733079 66.1875 49.375 C66.20167969 50.31085938 66.21585937 51.24671875 66.23046875 52.2109375 C66 55 66 55 64 60 C44.695 59.505 44.695 59.505 25 59 C25 63.29 25 67.58 25 72 C24.67 72 24.34 72 24 72 C24 67.71 24 63.42 24 59 C16.08 59 8.16 59 0 59 C0 39.53 0 20.06 0 0 Z M25 42 C25 47.28 25 52.56 25 58 C37.87 58 50.74 58 64 58 C64 52.72 64 47.44 64 42 C51.13 42 38.26 42 25 42 Z " fill="#D1D2D4" transform="translate(227,232)"/>
<path d="M0 0 C1.87886295 -0.03375298 3.75777079 -0.06511714 5.63671875 -0.09375 C6.51062256 -0.1153418 7.38452637 -0.13693359 8.28491211 -0.15917969 C14.29740772 -0.19019345 14.29740772 -0.19019345 17.46484375 1.671875 C17.9340625 2.16171875 18.40328125 2.6515625 18.88671875 3.15625 C18.55671875 3.81625 18.22671875 4.47625 17.88671875 5.15625 C17.22671875 4.49625 16.56671875 3.83625 15.88671875 3.15625 C13.95932917 2.82412332 13.95932917 2.82412332 11.73168945 2.83398438 C10.87352127 2.81476929 10.01535309 2.7955542 9.13117981 2.77575684 C8.20101547 2.76725708 7.27085114 2.75875732 6.3125 2.75 C4.87670845 2.73289978 4.87670845 2.73289978 3.41191101 2.7154541 C1.38183015 2.69653649 -0.64831238 2.68347913 -2.6784668 2.67578125 C-5.77177798 2.65643143 -8.862395 2.59444155 -11.95507812 2.53125 C-13.92836965 2.51818324 -15.90168018 2.50768492 -17.875 2.5 C-18.79504318 2.4753064 -19.71508636 2.45061279 -20.66300964 2.4251709 C-26.50711879 2.46530859 -29.56074477 3.53407906 -33.75390625 7.6600647 C-34.2025 8.15380585 -34.65109375 8.647547 -35.11328125 9.15625 C-35.74878906 9.85492188 -36.38429687 10.55359375 -37.0390625 11.2734375 C-37.49667969 11.85351562 -37.95429688 12.43359375 -38.42578125 13.03125 C-39.8515625 14.8359375 -39.8515625 14.8359375 -41.11328125 16.15625 C-41.77328125 16.15625 -42.43328125 16.15625 -43.11328125 16.15625 C-41.90294778 11.58387912 -39.52998776 9.51843293 -35.96484375 6.68359375 C-34.00862296 5.20104805 -34.00862296 5.20104805 -32.5703125 3.01953125 C-28.5369438 -0.03916011 -24.10479092 0.47267037 -19.17578125 0.40625 C-17.58878418 0.36612793 -17.58878418 0.36612793 -15.96972656 0.32519531 C-13.77380229 0.27476699 -11.57763119 0.23419075 -9.38134766 0.203125 C-6.25325913 0.15825775 -3.12731382 0.08150679 0 0 Z " fill="#95989B" transform="translate(250.11328125,109.84375)"/>
<path d="M0 0 C5.59305858 1.39826464 9.71990921 4.24087492 14 8 C15.82926546 11.65853093 15.46878116 15.9960388 15.71875 20.03125 C15.81288062 22.9264801 15.81288062 22.9264801 17 25 C16.01 25 15.02 25 14 25 C13.93683594 23.90300781 13.87367188 22.80601563 13.80859375 21.67578125 C13.46663429 13.87652741 13.46663429 13.87652741 10.484375 6.9296875 C8.69814535 5.69485918 7.006142 4.82225992 5 4 C3.33020674 3.00522955 1.66220581 2.00739746 0 1 C0 0.67 0 0.34 0 0 Z " fill="#E2E3E4" transform="translate(296,73)"/>
<path d="M0 0 C0 3.74016583 -0.9341591 4.45276193 -3.375 7.1875 C-4.00148437 7.90292969 -4.62796875 8.61835937 -5.2734375 9.35546875 C-7 11 -7 11 -9 11 C-7.59928507 5.70841026 -4.14512755 3.22521956 0 0 Z " fill="#9EA1A4" transform="translate(216,115)"/>
</svg>
