<svg version="1.1" id="Layer_1" xmlns="http://www.w3.org/2000/svg" xmlns:xlink="http://www.w3.org/1999/xlink" x="0px" y="0px"
	 width="100%" viewBox="0 0 640 641" enable-background="new 0 0 640 641" xml:space="preserve">
<path fill="#010001" opacity="1.000000" stroke="none" 
	d="
M369.000000,1.000000 
	C459.624115,1.000000 550.248230,1.000000 641.000000,1.000000 
	C641.000000,214.024078 641.000000,427.048157 640.531372,640.536133 
	C627.415894,641.000000 614.769104,641.004456 602.122314,640.999268 
	C532.731934,640.970947 463.341553,640.940369 393.974457,640.450256 
	C393.997742,632.066956 393.997742,624.143921 393.997742,615.805603 
	C412.840668,615.805603 431.112396,615.805603 449.384094,615.805603 
	C449.380524,615.624451 449.376953,615.443237 449.373383,615.262085 
	C430.666016,615.262085 411.958649,615.262085 393.040405,615.262085 
	C393.040405,623.987732 393.040405,632.448364 392.800720,640.899536 
	C392.561035,640.890015 392.088684,640.806030 392.054688,640.350708 
	C392.020660,631.349670 392.020660,622.803955 392.020660,613.838867 
	C410.993958,613.838867 430.400696,613.838867 449.713623,613.838867 
	C449.713623,597.009277 449.713623,580.606750 449.713623,563.817932 
	C405.362732,563.817932 361.301544,563.817932 317.288330,563.817932 
	C317.288330,530.364136 317.288330,497.301910 317.288330,463.844238 
	C331.304016,463.844238 345.043365,463.844238 359.216888,463.844238 
	C359.216888,455.867188 359.216888,448.278351 359.216888,440.689514 
	C359.541321,440.692871 359.865723,440.696198 360.190155,440.699524 
	C360.190155,448.225220 360.190155,455.750885 360.190155,463.276581 
	C360.531677,463.269836 360.873199,463.263123 361.214722,463.256378 
	C361.214722,456.525482 361.214722,449.794617 361.214722,442.810303 
	C384.319275,442.810303 406.929077,442.810303 429.538849,442.810303 
	C429.540192,442.541321 429.541534,442.272339 429.542877,442.003357 
	C406.852203,442.003357 384.161530,442.003357 361.470856,442.003357 
	C361.471344,441.675232 361.471832,441.347107 361.472290,441.018982 
	C384.536102,441.018982 407.599915,441.018982 430.783813,441.018982 
	C430.783813,423.819550 430.783813,407.084808 430.783813,390.204926 
	C400.165436,390.204926 369.767303,390.204926 338.910706,390.204926 
	C338.910706,400.431763 338.910706,410.459961 338.910706,420.488159 
	C338.584320,420.488159 338.257904,420.488159 337.931519,420.488129 
	C337.931519,410.838593 337.931519,401.189056 337.931519,391.539490 
	C337.599457,391.543579 337.267365,391.547638 336.935303,391.551697 
	C336.935303,400.283691 336.935303,409.015686 336.935303,417.719971 
	C330.718170,417.719971 324.981384,417.719971 319.275269,417.719971 
	C319.275269,390.380707 319.275269,363.316345 319.275269,335.888611 
	C328.013306,335.888611 336.482361,335.888611 345.227966,336.200073 
	C362.577087,337.001617 379.648224,337.561615 396.723541,337.925934 
	C400.373596,338.003845 402.037994,335.557922 401.985565,332.022095 
	C401.906281,326.678192 401.131348,321.167908 406.345886,317.012268 
	C407.284149,316.288452 407.780762,315.440216 408.485077,315.199371 
	C419.538940,311.419159 430.624512,307.731720 441.690125,303.985565 
	C444.013336,303.199097 445.916748,302.485046 446.168976,299.135254 
	C446.701111,292.068268 447.828400,285.025757 449.118622,278.048492 
	C449.512360,275.919281 450.935608,272.587128 452.400574,272.283691 
	C459.837311,270.743439 467.418243,269.652924 474.998291,269.142914 
	C479.577393,268.834839 482.361633,267.016479 484.032227,263.004700 
	C490.599426,247.234344 496.971375,231.378845 503.808990,215.726730 
	C506.721252,209.060257 506.427368,203.053818 503.043915,196.779266 
	C500.688324,192.410797 498.419525,187.910248 496.884125,183.216141 
	C495.930054,180.299301 492.727020,177.471680 495.681854,173.755646 
	C499.911224,168.436829 503.774628,162.828720 507.913910,157.435959 
	C510.902985,153.541672 511.991241,149.105576 510.742737,144.560455 
	C507.191376,131.631851 503.273987,118.803459 499.469269,105.944916 
	C497.753845,100.147476 495.267365,94.473244 494.408112,88.557571 
	C493.585785,82.896011 490.523041,80.997818 485.680511,79.962601 
	C480.342285,78.821434 475.012268,77.543343 469.818542,75.886375 
	C468.302582,75.402733 466.358337,73.539909 466.168579,72.103378 
	C465.438568,66.577950 465.389099,60.965549 464.989532,55.392490 
	C464.732086,51.801182 463.994110,48.826134 460.310089,46.554752 
	C444.283142,36.673462 428.565582,26.291103 412.577393,16.345173 
	C410.585052,15.105797 407.554718,14.732747 405.169189,15.080916 
	C398.505859,16.053448 391.942627,17.695089 385.303619,18.867085 
	C384.181458,19.065172 382.504486,18.615160 381.722290,17.829206 
	C377.431885,13.518164 373.266937,9.073553 369.258087,4.500197 
	C368.642334,3.797793 369.060150,2.189399 369.000000,1.000000 
M348.500000,562.004639 
	C338.738403,562.004639 328.976776,562.004639 319.288818,562.004639 
	C319.288818,529.693054 319.288818,497.964355 319.288818,465.794800 
	C332.165741,465.794800 344.764648,465.794800 357.363586,465.794800 
	C357.357819,465.628296 357.352020,465.461761 357.346252,465.295258 
	C344.291199,465.295258 331.236115,465.295258 318.276672,465.295258 
	C318.276672,497.992279 318.276672,530.389832 318.276672,562.685120 
	C362.162811,562.685120 405.761749,562.685120 449.360687,562.685120 
	C449.360443,562.458313 449.360229,562.231445 449.359985,562.004639 
	C416.073334,562.004639 382.786652,562.004639 348.500000,562.004639 
M370.500000,387.999786 
	C360.215271,387.999786 349.930573,387.999786 339.645844,387.999786 
	C339.650635,388.226074 339.655426,388.452362 339.660217,388.678650 
	C369.885162,388.678650 400.110107,388.678650 430.335052,388.678650 
	C430.335083,388.452362 430.335114,388.226074 430.335144,387.999786 
	C410.723450,387.999786 391.111725,387.999786 370.500000,387.999786 
M451.537018,565.456116 
	C451.358002,570.728943 451.063721,576.000854 451.024139,581.274719 
	C450.943420,592.024414 451.000000,602.775208 451.000000,613.525513 
	C451.324829,613.524231 451.649658,613.522949 451.974487,613.521606 
	C451.974487,597.747192 451.974487,581.972717 451.537018,565.456116 
M432.000000,420.499390 
	C432.000000,426.788422 432.000000,433.077484 432.000000,439.366516 
	C432.226349,439.358582 432.452667,439.350677 432.679016,439.342743 
	C432.679016,423.445435 432.679016,407.548096 432.679016,391.650757 
	C432.452667,391.650604 432.226349,391.650452 432.000000,391.650330 
	C432.000000,400.933441 432.000000,410.216583 432.000000,420.499390 
z"/>
<path fill="#010001" opacity="1.000000" stroke="none" 
	d="
M1.000000,641.000000 
	C1.000000,427.764130 1.000000,214.528259 1.000000,1.000000 
	C99.690552,1.000000 198.381393,1.000000 297.533966,1.374292 
	C295.523010,5.467379 293.318268,9.402757 290.523071,12.860853 
	C284.287903,20.574715 283.929169,18.386265 276.645081,15.878939 
	C272.416809,14.423496 268.378387,12.419330 264.241364,10.693660 
	C263.512726,10.389717 262.574768,9.856382 261.977173,10.080078 
	C254.075851,13.037822 246.145538,15.939339 238.370605,19.207350 
	C231.020493,22.296789 223.786880,25.682165 216.615845,29.171326 
	C212.645386,31.103195 207.415115,31.589640 206.062088,37.011463 
	C205.423401,39.570831 205.512527,42.368946 204.566086,44.782070 
	C202.800568,49.283546 200.519348,53.582760 197.475479,60.038982 
	C189.804718,60.038982 179.954102,60.038982 169.803696,60.024940 
	C169.304001,60.019436 169.104111,60.027969 168.514374,60.013290 
	C166.415451,61.147083 163.958405,61.918602 163.128571,63.528732 
	C159.782074,70.022064 156.950623,76.780106 153.905426,83.429604 
	C146.828232,98.883316 139.723831,114.324631 132.696381,129.800903 
	C132.379608,130.498535 132.426071,131.638382 132.783539,132.320679 
	C135.455475,137.420395 137.928207,142.665802 141.066299,147.471893 
	C149.057297,159.710342 149.179932,159.626053 140.966217,171.534210 
	C140.419327,172.327072 140.123184,173.341568 139.457886,173.996460 
	C133.496994,179.864182 134.533539,187.105286 135.667404,194.202637 
	C136.857391,201.651321 138.724716,208.991302 139.933548,216.437653 
	C141.184433,224.142929 141.890686,231.935120 143.037247,239.659286 
	C144.135254,247.056396 145.559799,248.432602 152.959595,249.945633 
	C154.080185,250.174759 155.285614,249.962357 156.449402,250.011414 
	C160.962387,250.201691 164.396835,254.793137 169.356125,253.182083 
	C169.822647,255.930435 174.274933,256.534607 173.062057,260.298859 
	C172.647751,261.584686 172.996292,263.116333 172.996292,264.535645 
	C173.259399,264.542145 173.522491,264.548676 173.785599,264.555176 
	C173.939667,262.180603 174.093750,259.806000 174.247833,257.431396 
	C174.830475,257.437836 175.413101,257.444275 175.995743,257.450714 
	C175.995743,266.172882 176.346954,274.914856 175.857498,283.609497 
	C175.585403,288.442871 177.575363,290.795959 181.445984,292.958191 
	C194.076950,300.014221 206.423157,307.586975 219.138245,314.482788 
	C226.142517,318.281433 232.698242,325.340668 242.397141,319.906677 
	C243.894669,319.308929 244.941879,318.517151 246.108459,317.989227 
	C252.089752,315.282349 256.840088,317.317474 260.578064,322.076263 
	C261.842377,323.503296 263.399231,324.810028 264.834473,326.474915 
	C264.808594,328.013031 264.989075,329.193115 264.987579,330.372955 
	C264.947601,362.248444 264.888977,394.123871 264.488525,425.952148 
	C262.405640,425.791412 260.502563,421.640625 258.489319,426.064941 
	C232.699814,426.044434 207.373352,426.076233 181.840958,425.854553 
	C181.104080,426.772125 180.573120,427.943176 180.022308,429.575317 
	C179.946426,445.023895 179.890411,460.011383 179.495804,475.068787 
	C178.699173,476.784302 178.241135,478.429932 177.783096,480.075592 
	C179.203568,480.013397 180.624054,479.951172 182.507782,479.941101 
	C200.650101,480.050079 218.329132,480.106873 236.103180,480.340424 
	C236.363968,480.737579 236.576187,480.895660 236.912064,481.415405 
	C236.937897,483.559265 236.886536,485.279053 236.487427,487.081177 
	C235.466339,488.943207 233.970306,490.912659 234.326050,492.454956 
	C234.779694,494.421722 236.729996,496.043274 238.035172,497.813629 
	C238.690308,496.932983 239.345459,496.052338 240.463562,495.094299 
	C248.864807,495.016937 256.803101,495.016937 264.738220,495.016937 
	C264.738220,517.601135 264.738220,539.670654 264.738220,562.182251 
	C220.184418,562.182251 175.900955,562.182251 131.617477,562.182251 
	C131.619064,562.359802 131.620636,562.537292 131.622223,562.714844 
	C176.344269,562.714844 221.066315,562.714844 265.708008,562.714844 
	C265.708008,539.682434 265.708008,516.944031 265.708008,493.826294 
	C256.948883,493.826294 248.474823,493.826294 240.000671,493.662109 
	C240.000610,493.497925 240.000168,493.169556 240.462891,493.090515 
	C249.506516,493.011475 258.087433,493.011475 266.733734,493.011475 
	C266.733734,516.941467 266.733734,540.424744 266.733734,563.888916 
	C264.978943,563.990601 263.490509,564.076782 261.539185,564.083862 
	C217.810623,564.004761 174.544907,564.004761 131.253174,564.004761 
	C131.253174,580.908508 131.253174,597.312439 131.253174,614.125977 
	C151.587082,614.125977 171.658539,614.125977 192.106491,614.125977 
	C192.106491,623.337708 192.106491,632.139893 192.008835,640.940063 
	C191.911179,640.938049 191.778366,641.081421 191.573486,641.018188 
	C191.368622,640.954956 190.941406,640.917786 190.968628,640.456970 
	C190.995865,631.738342 190.995865,623.480530 190.995865,615.306641 
	C170.828384,615.306641 151.219086,615.306641 131.609772,615.306641 
	C131.609024,615.562744 131.608276,615.818787 131.607529,616.074890 
	C150.987244,616.074890 170.366943,616.074890 190.058594,616.074890 
	C190.058594,624.660706 190.058594,632.789246 189.587006,640.945068 
	C126.410278,640.981567 63.705139,640.990784 1.000000,641.000000 
M128.999725,576.529541 
	C128.999725,588.468201 128.999725,600.406799 128.999725,612.345459 
	C129.225601,612.340881 129.451477,612.336365 129.677353,612.331787 
	C129.677353,596.774048 129.677353,581.216309 129.677353,565.658569 
	C129.451477,565.658020 129.225601,565.657532 128.999725,565.657043 
	C128.999725,568.952332 128.999725,572.247620 128.999725,576.529541 
z"/>
<path fill="#FCFCFC" opacity="1.000000" stroke="none" 
	d="
M242.001892,319.834320 
	C232.698242,325.340668 226.142517,318.281433 219.138245,314.482788 
	C206.423157,307.586975 194.076950,300.014221 181.445984,292.958191 
	C177.575363,290.795959 175.585403,288.442871 175.857498,283.609497 
	C176.346954,274.914856 175.995743,266.172882 175.995743,257.450714 
	C175.413101,257.444275 174.830475,257.437836 174.247833,257.431396 
	C174.093750,259.806000 173.939667,262.180603 173.785599,264.555176 
	C173.522491,264.548676 173.259399,264.542145 172.996292,264.535645 
	C172.996292,263.116333 172.647751,261.584686 173.062057,260.298859 
	C174.274933,256.534607 169.822647,255.930435 169.356125,253.182083 
	C164.396835,254.793137 160.962387,250.201691 156.449402,250.011414 
	C155.285614,249.962357 154.080185,250.174759 152.959595,249.945633 
	C145.559799,248.432602 144.135254,247.056396 143.037247,239.659286 
	C141.890686,231.935120 141.184433,224.142929 139.933548,216.437653 
	C138.724716,208.991302 136.857391,201.651321 135.667404,194.202637 
	C134.533539,187.105286 133.496994,179.864182 139.457886,173.996460 
	C140.123184,173.341568 140.419327,172.327072 140.966217,171.534210 
	C149.179932,159.626053 149.057297,159.710342 141.066299,147.471893 
	C137.928207,142.665802 135.455475,137.420395 132.783539,132.320679 
	C132.426071,131.638382 132.379608,130.498535 132.696381,129.800903 
	C139.723831,114.324631 146.828232,98.883316 153.905426,83.429604 
	C156.950623,76.780106 159.782074,70.022064 163.128571,63.528732 
	C163.958405,61.918602 166.415451,61.147083 168.599274,60.279892 
	C169.417175,60.392799 169.760330,60.215897 170.103485,60.038986 
	C179.954102,60.038982 189.804718,60.038982 197.475479,60.038982 
	C200.519348,53.582760 202.800568,49.283546 204.566086,44.782070 
	C205.512527,42.368946 205.423401,39.570831 206.062088,37.011463 
	C207.415115,31.589640 212.645386,31.103195 216.615845,29.171326 
	C223.786880,25.682165 231.020493,22.296789 238.370605,19.207350 
	C246.145538,15.939339 254.075851,13.037822 261.977173,10.080078 
	C262.574768,9.856382 263.512726,10.389717 264.241364,10.693660 
	C268.378387,12.419330 272.416809,14.423496 276.645081,15.878939 
	C283.929169,18.386265 284.287903,20.574715 290.523071,12.860853 
	C293.318268,9.402757 295.523010,5.467379 297.997864,1.374292 
	C321.354218,1.000000 344.708466,1.000000 368.531311,1.000000 
	C369.060150,2.189399 368.642334,3.797793 369.258087,4.500197 
	C373.266937,9.073553 377.431885,13.518164 381.722290,17.829206 
	C382.504486,18.615160 384.181458,19.065172 385.303619,18.867085 
	C391.942627,17.695089 398.505859,16.053448 405.169189,15.080916 
	C407.554718,14.732747 410.585052,15.105797 412.577393,16.345173 
	C428.565582,26.291103 444.283142,36.673462 460.310089,46.554752 
	C463.994110,48.826134 464.732086,51.801182 464.989532,55.392490 
	C465.389099,60.965549 465.438568,66.577950 466.168579,72.103378 
	C466.358337,73.539909 468.302582,75.402733 469.818542,75.886375 
	C475.012268,77.543343 480.342285,78.821434 485.680511,79.962601 
	C490.523041,80.997818 493.585785,82.896011 494.408112,88.557571 
	C495.267365,94.473244 497.753845,100.147476 499.469269,105.944916 
	C503.273987,118.803459 507.191376,131.631851 510.742737,144.560455 
	C511.991241,149.105576 510.902985,153.541672 507.913910,157.435959 
	C503.774628,162.828720 499.911224,168.436829 495.681854,173.755646 
	C492.727020,177.471680 495.930054,180.299301 496.884125,183.216141 
	C498.419525,187.910248 500.688324,192.410797 503.043915,196.779266 
	C506.427368,203.053818 506.721252,209.060257 503.808990,215.726730 
	C496.971375,231.378845 490.599426,247.234344 484.032227,263.004700 
	C482.361633,267.016479 479.577393,268.834839 474.998291,269.142914 
	C467.418243,269.652924 459.837311,270.743439 452.400574,272.283691 
	C450.935608,272.587128 449.512360,275.919281 449.118622,278.048492 
	C447.828400,285.025757 446.701111,292.068268 446.168976,299.135254 
	C445.916748,302.485046 444.013336,303.199097 441.690125,303.985565 
	C430.624512,307.731720 419.538940,311.419159 408.485077,315.199371 
	C407.780762,315.440216 407.284149,316.288452 405.932129,316.936005 
	C402.255554,317.739441 399.162170,318.063446 396.453918,319.259460 
	C389.250153,322.440826 382.127808,325.521912 373.608490,323.089233 
	C370.816956,321.989746 367.176941,321.585693 366.292511,319.809540 
	C364.772797,316.757507 363.217041,317.798035 361.853790,318.838196 
	C359.033539,320.990082 356.529846,323.556854 353.573730,326.082092 
	C352.054871,327.415039 350.727966,328.516754 349.687988,329.843353 
	C347.289734,332.902618 344.503174,334.324097 340.371704,334.116577 
	C332.639038,333.728149 324.873016,334.004883 317.328186,334.004883 
	C317.328186,363.395935 317.328186,392.124268 317.328186,420.457428 
	C324.090363,420.457428 330.521881,420.457428 336.953430,420.457428 
	C336.944214,420.124847 336.934998,419.792297 336.925812,419.459717 
	C330.708954,419.459717 324.492126,419.459717 318.262695,419.459717 
	C318.262695,391.398376 318.262695,363.328918 318.262695,335.007660 
	C323.666168,335.007660 328.806091,334.898529 333.938751,335.044464 
	C337.614685,335.148956 341.280884,335.594971 344.951447,335.888611 
	C336.482361,335.888611 328.013306,335.888611 319.275269,335.888611 
	C319.275269,363.316345 319.275269,390.380707 319.275269,417.719971 
	C324.981384,417.719971 330.718170,417.719971 336.935303,417.719971 
	C336.935303,409.015686 336.935303,400.283691 336.935303,391.551697 
	C337.267365,391.547638 337.599457,391.543579 337.931519,391.539490 
	C337.931519,401.189056 337.931519,410.838593 337.931519,420.488129 
	C338.257904,420.488159 338.584320,420.488159 338.910706,420.488159 
	C338.910706,410.459961 338.910706,400.431763 338.910706,390.204926 
	C369.767303,390.204926 400.165436,390.204926 430.783813,390.204926 
	C430.783813,407.084808 430.783813,423.819550 430.783813,441.018982 
	C407.599915,441.018982 384.536102,441.018982 361.472290,441.018982 
	C361.471832,441.347107 361.471344,441.675232 361.470856,442.003357 
	C384.161530,442.003357 406.852203,442.003357 429.542877,442.003357 
	C429.541534,442.272339 429.540192,442.541321 429.538849,442.810303 
	C406.929077,442.810303 384.319275,442.810303 361.214722,442.810303 
	C361.214722,449.794617 361.214722,456.525482 361.214722,463.256378 
	C360.873199,463.263123 360.531677,463.269836 360.190155,463.276581 
	C360.190155,455.750885 360.190155,448.225220 360.190155,440.699524 
	C359.865723,440.696198 359.541321,440.692871 359.216888,440.689514 
	C359.216888,448.278351 359.216888,455.867188 359.216888,463.844238 
	C345.043365,463.844238 331.304016,463.844238 317.288330,463.844238 
	C317.288330,497.301910 317.288330,530.364136 317.288330,563.817932 
	C361.301544,563.817932 405.362732,563.817932 449.713623,563.817932 
	C449.713623,580.606750 449.713623,597.009277 449.713623,613.838867 
	C430.400696,613.838867 410.993958,613.838867 392.020660,613.838867 
	C392.020660,622.803955 392.020660,631.349670 391.945801,640.367676 
	C391.870972,640.840027 391.790161,641.043945 391.336639,641.025574 
	C324.624237,640.985535 258.365356,640.963806 192.106491,640.942139 
	C192.106491,632.139893 192.106491,623.337708 192.106491,614.125977 
	C171.658539,614.125977 151.587082,614.125977 131.253174,614.125977 
	C131.253174,597.312439 131.253174,580.908508 131.253174,564.004761 
	C174.544907,564.004761 217.810623,564.004761 261.538452,564.525269 
	C262.000793,568.004333 262.000977,570.962891 261.542450,574.024902 
	C221.001038,574.128418 180.918335,574.128418 140.822662,574.128418 
	C140.822662,584.584961 140.822662,594.344116 140.822662,604.600342 
	C161.194122,604.600342 181.278839,604.600342 201.753189,604.600342 
	C201.753189,614.185791 201.753189,623.277344 201.753189,632.511108 
	C261.858765,632.511108 321.565369,632.511108 381.694214,632.511108 
	C381.694214,623.118652 381.694214,614.016968 381.694214,604.500244 
	C401.352234,604.500244 420.593872,604.500244 439.955658,604.500244 
	C439.955658,594.195435 439.955658,584.318054 439.955658,573.950195 
	C395.402802,573.950195 351.195496,573.950195 307.206451,573.950195 
	C307.206451,533.898132 307.206451,494.341736 307.206451,454.378510 
	C321.310883,454.378510 335.058533,454.378510 348.815491,454.378510 
	C348.815491,446.146149 348.815491,438.323944 349.288940,430.606781 
	C373.481873,430.711823 397.201355,430.711823 420.722687,430.711823 
	C420.722687,420.097351 420.722687,410.217682 420.722687,400.401733 
	C396.565643,400.401733 372.827972,400.401733 348.900635,400.401733 
	C348.900635,410.583832 348.900635,420.538483 348.380157,430.419678 
	C334.278198,430.346191 320.696716,430.346191 307.184296,430.346191 
	C307.184296,394.735504 307.184296,359.690765 307.184296,324.529205 
	C316.559509,324.529205 325.558716,324.364594 334.547058,324.605164 
	C338.489807,324.710663 341.453979,323.727905 344.183350,320.737274 
	C348.217926,316.316498 352.802032,312.402374 356.980835,308.105835 
	C358.977478,306.052917 360.699341,305.481903 363.489563,306.788818 
	C368.449585,309.112030 373.593048,311.082794 378.772217,312.876465 
	C380.469910,313.464386 382.706360,313.588440 384.373383,313.003632 
	C400.536865,307.333374 416.665192,301.556427 432.696564,295.525543 
	C434.394989,294.886597 436.229401,292.597900 436.600922,290.787323 
	C438.306000,282.477448 439.657257,274.085327 440.817413,265.678833 
	C441.196716,262.930328 442.279572,262.146729 444.883179,261.928833 
	C453.345032,261.220581 461.772308,260.074829 470.239288,259.464081 
	C473.400726,259.236053 474.803589,257.915863 475.913177,255.124435 
	C481.993378,239.828522 488.333496,224.635513 494.343536,209.312698 
	C495.073151,207.452484 494.983582,204.757858 494.198700,202.905411 
	C490.763824,194.798401 486.794250,186.917816 483.366272,178.808151 
	C482.703339,177.239792 482.950989,174.596237 483.879791,173.161545 
	C488.580017,165.901199 493.755341,158.949219 498.492737,151.711502 
	C499.529266,150.127960 500.247406,147.604736 499.776489,145.878708 
	C494.962982,128.236099 489.949341,110.646225 484.734802,93.118042 
	C484.252289,91.496056 482.213959,89.681160 480.534698,89.184723 
	C473.364166,87.064919 466.071686,85.345612 458.791687,83.614799 
	C456.407318,83.047920 455.182465,82.161255 455.125793,79.371590 
	C454.980408,72.215843 454.276154,65.071663 454.120758,57.915794 
	C454.059631,55.099617 453.190552,53.452763 450.748871,51.952656 
	C437.142242,43.593067 423.716614,34.937515 410.060425,26.661472 
	C408.086731,25.465361 405.065308,25.066555 402.767303,25.516697 
	C396.576294,26.729404 390.404236,28.280094 384.441315,30.327629 
	C380.729309,31.602257 378.689117,30.563160 376.441040,27.769417 
	C372.581390,22.972878 368.519501,18.313345 364.220856,13.910340 
	C362.800720,12.455687 360.398621,11.189132 358.428284,11.163547 
	C341.934723,10.949369 325.435883,10.951275 308.942444,11.171595 
	C307.011200,11.197392 304.587311,12.487250 303.279266,13.972618 
	C299.104004,18.713879 295.236359,23.741806 291.481201,28.829725 
	C289.903992,30.966745 288.624420,31.283459 286.140625,30.208967 
	C279.278900,27.240549 272.300446,24.515774 265.251953,22.023262 
	C263.458862,21.389181 260.980072,21.374733 259.246552,22.101582 
	C246.060486,27.630333 232.946915,33.337624 219.910278,39.210194 
	C218.193832,39.983387 216.424759,41.761608 215.734360,43.494423 
	C212.905106,50.595367 210.347168,57.814415 207.980972,65.084892 
	C207.045944,67.957916 205.532990,68.859726 202.610565,68.931374 
	C193.453094,69.155884 184.291977,69.532951 175.159943,70.219307 
	C173.482742,70.345360 171.148575,71.824707 170.447510,73.307953 
	C161.921616,91.346283 153.582230,109.474258 145.413879,127.677452 
	C144.708115,129.250229 144.932892,131.875854 145.796295,133.409607 
	C149.955780,140.798538 154.315903,148.089630 158.954224,155.187073 
	C161.054688,158.401169 161.351440,160.796005 158.944870,164.055466 
	C154.701630,169.802536 150.895935,175.882080 147.102081,181.944458 
	C146.217133,183.358521 145.530930,185.338867 145.741180,186.927948 
	C147.815414,202.604828 150.152786,218.246704 152.270309,233.918137 
	C152.642639,236.673752 153.984222,237.775681 156.506912,238.562546 
	C164.759506,241.136581 172.861206,244.212128 181.162216,246.604645 
	C184.640350,247.607132 185.432922,249.266815 185.371887,252.580109 
	C185.215485,261.070740 185.245102,269.576416 185.631210,278.056458 
	C185.715836,279.915192 187.156525,282.344299 188.721573,283.389954 
	C194.365921,287.161133 200.330063,290.453644 205.884735,294.140442 
	C204.909088,295.984222 204.222153,297.614532 203.292633,299.820526 
	C211.630676,304.840271 219.931519,310.135010 228.548492,314.852264 
	C231.297089,316.356903 234.943848,316.135254 238.062485,317.087250 
	C239.519394,317.531982 240.697449,318.890167 242.001892,319.834320 
z"/>
<path fill="#005400" opacity="1.000000" stroke="none" 
	d="
M393.951172,640.910522 
	C463.341553,640.940369 532.731934,640.970947 602.122314,640.999268 
	C614.769104,641.004456 627.415894,641.000000 640.531372,641.000000 
	C639.503235,641.333313 638.006592,641.957520 636.509644,641.958374 
	C555.318848,642.005371 474.128082,642.000000 392.447601,641.754089 
	C391.957886,641.508179 391.790161,641.043945 391.790161,641.043945 
	C391.790161,641.043945 391.870972,640.840027 391.979828,640.822998 
	C392.088684,640.806030 392.561035,640.890015 393.028625,640.937134 
	C393.496246,640.984314 393.951172,640.910522 393.951172,640.910522 
z"/>
<path fill="#36FF12" opacity="1.000000" stroke="none" 
	d="
M391.336639,641.025574 
	C391.790161,641.043945 391.957886,641.508179 391.978943,641.754089 
	C325.645782,642.000000 259.291534,642.000000 192.443588,641.763062 
	C191.949860,641.526062 191.778366,641.081421 191.778366,641.081421 
	C191.778366,641.081421 191.911179,640.938049 192.008835,640.940063 
	C258.365356,640.963806 324.624237,640.985535 391.336639,641.025574 
z"/>
<path fill="#005400" opacity="1.000000" stroke="none" 
	d="
M191.573486,641.018188 
	C191.778366,641.081421 191.949860,641.526062 191.974930,641.763062 
	C128.333328,642.000000 64.666664,642.000000 1.000000,641.500000 
	C63.705139,640.990784 126.410278,640.981567 189.807953,640.979492 
	C190.500488,640.986633 190.941406,640.917786 190.941406,640.917786 
	C190.941406,640.917786 191.368622,640.954956 191.573486,641.018188 
z"/>
<path fill="#020102" opacity="1.000000" stroke="none" 
	d="
M345.227966,336.200073 
	C341.280884,335.594971 337.614685,335.148956 333.938751,335.044464 
	C328.806091,334.898529 323.666168,335.007660 318.262695,335.007660 
	C318.262695,363.328918 318.262695,391.398376 318.262695,419.459717 
	C324.492126,419.459717 330.708954,419.459717 336.925812,419.459717 
	C336.934998,419.792297 336.944214,420.124847 336.953430,420.457428 
	C330.521881,420.457428 324.090363,420.457428 317.328186,420.457428 
	C317.328186,392.124268 317.328186,363.395935 317.328186,334.004883 
	C324.873016,334.004883 332.639038,333.728149 340.371704,334.116577 
	C344.503174,334.324097 347.289734,332.902618 349.687988,329.843353 
	C350.727966,328.516754 352.054871,327.415039 353.898895,326.310150 
	C355.351227,326.925354 356.146515,327.870728 356.962585,327.889008 
	C362.742493,328.018463 368.526611,327.957855 374.592285,327.957855 
	C374.355499,326.042786 374.177704,324.605042 373.999908,323.167267 
	C382.127808,325.521912 389.250153,322.440826 396.453918,319.259460 
	C399.162170,318.063446 402.255554,317.739441 405.587097,317.094116 
	C401.131348,321.167908 401.906281,326.678192 401.985565,332.022095 
	C402.037994,335.557922 400.373596,338.003845 396.723541,337.925934 
	C379.648224,337.561615 362.577087,337.001617 345.227966,336.200073 
M379.567383,327.295929 
	C379.295135,327.010681 379.022858,326.725433 378.750610,326.440186 
	C378.632568,326.553070 378.405670,326.757904 378.412170,326.765594 
	C378.666260,327.066467 378.941620,327.349365 379.567383,327.295929 
z"/>
<path fill="#FCFCFC" opacity="1.000000" stroke="none" 
	d="
M349.000000,562.004639 
	C382.786652,562.004639 416.073334,562.004639 449.359985,562.004639 
	C449.360229,562.231445 449.360443,562.458313 449.360687,562.685120 
	C405.761749,562.685120 362.162811,562.685120 318.276672,562.685120 
	C318.276672,530.389832 318.276672,497.992279 318.276672,465.295258 
	C331.236115,465.295258 344.291199,465.295258 357.346252,465.295258 
	C357.352020,465.461761 357.357819,465.628296 357.363586,465.794800 
	C344.764648,465.794800 332.165741,465.794800 319.288818,465.794800 
	C319.288818,497.964355 319.288818,529.693054 319.288818,562.004639 
	C328.976776,562.004639 338.738403,562.004639 349.000000,562.004639 
z"/>
<path fill="#FFFFFF" opacity="1.000000" stroke="none" 
	d="
M371.000000,387.999786 
	C391.111725,387.999786 410.723450,387.999786 430.335144,387.999786 
	C430.335114,388.226074 430.335083,388.452362 430.335052,388.678650 
	C400.110107,388.678650 369.885162,388.678650 339.660217,388.678650 
	C339.655426,388.452362 339.650635,388.226074 339.645844,387.999786 
	C349.930573,387.999786 360.215271,387.999786 371.000000,387.999786 
z"/>
<path fill="#FDFCFD" opacity="1.000000" stroke="none" 
	d="
M393.974457,640.450256 
	C393.951172,640.910522 393.496246,640.984314 393.268311,640.946655 
	C393.040405,632.448364 393.040405,623.987732 393.040405,615.262085 
	C411.958649,615.262085 430.666016,615.262085 449.373383,615.262085 
	C449.376953,615.443237 449.380524,615.624451 449.384094,615.805603 
	C431.112396,615.805603 412.840668,615.805603 393.997742,615.805603 
	C393.997742,624.143921 393.997742,632.066956 393.974457,640.450256 
z"/>
<path fill="#FFFFFF" opacity="1.000000" stroke="none" 
	d="
M451.755737,565.827148 
	C451.974487,581.972717 451.974487,597.747192 451.974487,613.521606 
	C451.649658,613.522949 451.324829,613.524231 451.000000,613.525513 
	C451.000000,602.775208 450.943420,592.024414 451.024139,581.274719 
	C451.063721,576.000854 451.358002,570.728943 451.755737,565.827148 
z"/>
<path fill="#FFFFFF" opacity="1.000000" stroke="none" 
	d="
M432.000000,419.999542 
	C432.000000,410.216583 432.000000,400.933441 432.000000,391.650330 
	C432.226349,391.650452 432.452667,391.650604 432.679016,391.650757 
	C432.679016,407.548096 432.679016,423.445435 432.679016,439.342743 
	C432.452667,439.350677 432.226349,439.358582 432.000000,439.366516 
	C432.000000,433.077484 432.000000,426.788422 432.000000,419.999542 
z"/>
<path fill="#FFFFFF" opacity="1.000000" stroke="none" 
	d="
M262.001160,573.921387 
	C262.000977,570.962891 262.000793,568.004333 262.001343,564.604370 
	C263.490509,564.076782 264.978943,563.990601 266.733734,563.888916 
	C266.733734,540.424744 266.733734,516.941467 266.733734,493.011475 
	C258.087433,493.011475 249.506516,493.011475 240.075714,492.868713 
	C239.225830,487.838654 239.225830,482.951324 239.225830,477.832611 
	C221.525406,477.832611 204.764038,477.832611 187.960144,477.510498 
	C187.252884,476.562134 186.588120,475.935883 185.923370,475.309631 
	C185.281326,476.150879 184.639282,476.992126 183.745880,477.903564 
	C183.327240,477.926025 183.159943,477.878296 182.897583,477.654907 
	C182.637085,477.260315 182.425720,477.103088 182.090515,476.544250 
	C181.953049,461.387024 181.893478,446.693207 181.911438,431.558746 
	C181.349503,427.744537 183.512878,427.973083 185.800262,427.972076 
	C209.200256,427.961639 232.600189,427.889282 256.438751,427.912231 
	C257.585388,429.086060 258.829041,430.146606 258.903961,431.284088 
	C259.158875,435.153992 259.001434,439.051056 259.001434,444.241241 
	C262.383331,442.899658 264.774384,441.951111 267.481445,440.944336 
	C267.587067,439.923157 267.376678,438.960236 267.090515,437.534302 
	C267.014740,400.912140 267.014740,364.753021 267.014740,328.593933 
	C266.657745,328.593994 266.300720,328.594055 265.943726,328.594116 
	C265.943726,366.329742 265.943726,404.065369 265.943726,441.743958 
	C263.747803,441.743958 262.007263,441.743958 260.308350,441.743958 
	C260.308350,437.195496 260.308350,432.908997 260.308350,428.622528 
	C260.569580,428.622589 260.830811,428.622650 261.092041,428.622711 
	C261.092041,432.708740 261.092041,436.794769 261.092041,440.880768 
	C261.623230,441.112061 262.154419,441.343353 262.685608,441.574646 
	C263.456665,440.377411 264.816437,439.215240 264.890167,437.976471 
	C265.127014,433.999329 264.888580,429.993866 264.833466,425.999329 
	C264.888977,394.123871 264.947601,362.248444 264.987579,330.372955 
	C264.989075,329.193115 264.808594,328.013031 264.845032,326.064636 
	C265.401245,321.978485 263.203857,321.883728 260.870575,321.955994 
	C256.840088,317.317474 252.089752,315.282349 246.108459,317.989227 
	C244.941879,318.517151 243.894669,319.308929 242.397141,319.906677 
	C240.697449,318.890167 239.519394,317.531982 238.062485,317.087250 
	C234.943848,316.135254 231.297089,316.356903 228.548492,314.852264 
	C219.931519,310.135010 211.630676,304.840271 203.292633,299.820526 
	C204.222153,297.614532 204.909088,295.984222 206.165833,294.156738 
	C207.157913,294.303986 207.580200,294.648438 208.001648,295.381348 
	C208.660278,297.113464 209.319748,298.457153 209.979233,299.800812 
	C210.995712,299.170746 212.012192,298.540680 213.382202,297.949432 
	C219.911835,301.547974 225.965744,305.352173 232.330750,308.534027 
	C234.540680,309.638763 237.663803,309.867340 240.122299,309.340668 
	C246.707565,307.929840 253.158844,305.893646 259.493408,304.509979 
	C259.410553,305.691589 259.497620,306.469086 259.584686,307.246643 
	C260.165497,306.858124 260.746277,306.469604 261.630585,306.274719 
	C263.524017,308.554474 265.113922,310.640625 266.368530,312.881775 
	C264.805054,316.557800 267.436340,315.768524 269.532562,316.060760 
	C275.309082,321.274353 276.699005,327.414703 276.620544,334.879425 
	C276.239746,371.102783 276.453094,407.332367 276.435486,443.559723 
	C276.434601,445.374207 276.242035,447.188599 275.742065,449.040039 
	C270.369019,449.718079 265.376892,450.261261 260.425629,451.058258 
	C258.892670,451.305054 257.470825,452.241943 255.588364,452.954712 
	C253.786530,452.982697 252.394440,452.918793 251.002411,452.500122 
	C250.397812,451.095947 249.793137,450.046478 249.100800,448.543091 
	C249.013153,444.825134 249.013153,441.561127 249.013153,438.374146 
	C229.579483,438.374146 210.833374,438.374146 191.830261,438.374146 
	C191.830261,447.821289 191.799377,456.969604 191.880707,466.116943 
	C191.888382,466.979248 192.601990,467.835266 193.058746,468.913147 
	C193.758179,468.978851 194.386688,468.825592 195.460968,468.525452 
	C213.434311,468.378571 230.961899,468.378571 248.847198,468.378571 
	C248.847198,473.781891 248.847198,478.368683 248.847198,483.654358 
	C257.134094,483.654358 265.056885,483.654358 272.985901,484.081116 
	C272.994781,507.485779 273.102386,530.464600 272.896698,553.440735 
	C272.862396,557.274414 271.466187,561.095886 270.534882,565.743530 
	C270.886993,567.710449 271.442932,570.815796 271.553833,574.020630 
	C268.072906,574.053894 265.037018,573.987671 262.001160,573.921387 
M257.588196,307.517029 
	C257.588196,307.517029 257.476959,307.583527 257.588196,307.517029 
z"/>
<path fill="#FDFCFD" opacity="1.000000" stroke="none" 
	d="
M240.000748,493.826294 
	C248.474823,493.826294 256.948883,493.826294 265.708008,493.826294 
	C265.708008,516.944031 265.708008,539.682434 265.708008,562.714844 
	C221.066315,562.714844 176.344269,562.714844 131.622223,562.714844 
	C131.620636,562.537292 131.619064,562.359802 131.617477,562.182251 
	C175.900955,562.182251 220.184418,562.182251 264.738220,562.182251 
	C264.738220,539.670654 264.738220,517.601135 264.738220,495.016937 
	C256.803101,495.016937 248.864807,495.016937 240.186768,494.984314 
	C239.631592,494.576569 239.816177,494.201416 240.000748,493.826294 
z"/>
<path fill="#010001" opacity="1.000000" stroke="none" 
	d="
M264.488525,425.952148 
	C264.888580,429.993866 265.127014,433.999329 264.890167,437.976471 
	C264.816437,439.215240 263.456665,440.377411 262.685608,441.574646 
	C262.154419,441.343353 261.623230,441.112061 261.092041,440.880768 
	C261.092041,436.794769 261.092041,432.708740 261.092041,428.622711 
	C260.830811,428.622650 260.569580,428.622589 260.308350,428.622528 
	C260.308350,432.908997 260.308350,437.195496 260.308350,441.743958 
	C262.007263,441.743958 263.747803,441.743958 265.943726,441.743958 
	C265.943726,404.065369 265.943726,366.329742 265.943726,328.594116 
	C266.300720,328.594055 266.657745,328.593994 267.014740,328.593933 
	C267.014740,364.753021 267.014740,400.912140 267.012207,437.905884 
	C267.061584,439.494537 267.113525,440.248566 267.165466,441.002563 
	C264.774384,441.951111 262.383331,442.899658 259.001434,444.241241 
	C259.001434,439.051056 259.158875,435.153992 258.903961,431.284088 
	C258.829041,430.146606 257.585388,429.086060 256.438660,427.745300 
	C255.999954,427.500336 255.999847,427.166443 256.338196,427.089111 
	C257.435181,426.713593 258.193756,426.415436 258.952362,426.117279 
	C260.502563,421.640625 262.405640,425.791412 264.488525,425.952148 
z"/>
<path fill="#020102" opacity="1.000000" stroke="none" 
	d="
M240.000671,493.662109 
	C239.816177,494.201416 239.631592,494.576569 239.723816,495.061707 
	C239.345459,496.052338 238.690308,496.932983 238.035172,497.813629 
	C236.729996,496.043274 234.779694,494.421722 234.326050,492.454956 
	C233.970306,490.912659 235.466339,488.943207 236.565735,487.500732 
	C237.063492,489.408691 237.135239,490.979492 237.206970,492.550293 
	C237.409851,492.540771 237.612717,492.531219 237.815582,492.521667 
	C237.815582,488.151947 237.815582,483.782196 237.815582,479.036835 
	C219.433014,479.036835 201.241608,479.032257 183.050339,479.072327 
	C182.714462,479.073059 182.379776,479.604919 182.044525,479.888947 
	C180.624054,479.951172 179.203568,480.013397 177.783096,480.075592 
	C178.241135,478.429932 178.699173,476.784302 179.575729,475.461548 
	C180.009018,476.116699 179.976501,476.460510 180.053940,476.777435 
	C180.112991,477.019226 180.311417,477.226990 181.167587,478.625793 
	C181.167587,462.288208 181.167587,447.143646 181.334167,431.999298 
	C181.500748,431.999512 181.833908,431.999359 181.833908,431.999359 
	C181.893478,446.693207 181.953049,461.387024 182.041656,476.812378 
	C182.378006,477.639465 182.685333,477.735016 182.992661,477.830566 
	C183.159943,477.878296 183.327240,477.926025 184.141937,477.981140 
	C185.860443,477.936523 186.931564,477.884583 188.002670,477.832642 
	C204.764038,477.832611 221.525406,477.832611 239.225830,477.832611 
	C239.225830,482.951324 239.225830,487.838654 239.613007,492.947754 
	C240.000168,493.169556 240.000610,493.497925 240.000671,493.662109 
z"/>
<path fill="#FFFFFF" opacity="1.000000" stroke="none" 
	d="
M190.968628,640.456970 
	C190.941406,640.917786 190.500488,640.986633 190.279541,640.952209 
	C190.058594,632.789246 190.058594,624.660706 190.058594,616.074890 
	C170.366943,616.074890 150.987244,616.074890 131.607529,616.074890 
	C131.608276,615.818787 131.609024,615.562744 131.609772,615.306641 
	C151.219086,615.306641 170.828384,615.306641 190.995865,615.306641 
	C190.995865,623.480530 190.995865,631.738342 190.968628,640.456970 
z"/>
<path fill="#010001" opacity="1.000000" stroke="none" 
	d="
M181.911438,431.558746 
	C181.833908,431.999359 181.500748,431.999512 181.257172,431.654449 
	C180.689804,430.577667 180.365997,429.845947 180.042175,429.114227 
	C180.573120,427.943176 181.104080,426.772125 182.031113,426.244690 
	C184.911240,426.925537 187.395187,426.988922 189.879318,426.995972 
	C211.919464,427.058472 233.959671,427.110992 255.999847,427.166443 
	C255.999847,427.166443 255.999954,427.500336 256.000061,427.667297 
	C232.600189,427.889282 209.200256,427.961639 185.800262,427.972076 
	C183.512878,427.973083 181.349503,427.744537 181.911438,431.558746 
z"/>
<path fill="#FFFFFF" opacity="1.000000" stroke="none" 
	d="
M256.338196,427.089111 
	C233.959671,427.110992 211.919464,427.058472 189.879318,426.995972 
	C187.395187,426.988922 184.911240,426.925537 182.237045,426.498169 
	C207.373352,426.076233 232.699814,426.044434 258.489319,426.064941 
	C258.193756,426.415436 257.435181,426.713593 256.338196,427.089111 
z"/>
<path fill="#FFFEFF" opacity="1.000000" stroke="none" 
	d="
M182.507797,479.941101 
	C182.379776,479.604919 182.714462,479.073059 183.050339,479.072327 
	C201.241608,479.032257 219.433014,479.036835 237.815582,479.036835 
	C237.815582,483.782196 237.815582,488.151947 237.815582,492.521667 
	C237.612717,492.531219 237.409851,492.540771 237.206970,492.550293 
	C237.135239,490.979492 237.063492,489.408691 236.913467,487.418365 
	C236.886536,485.279053 236.937897,483.559265 236.961365,481.145386 
	C236.625046,480.355408 236.316620,480.259552 236.008179,480.163696 
	C218.329132,480.106873 200.650101,480.050079 182.507797,479.941101 
z"/>
<path fill="#FFFFFF" opacity="1.000000" stroke="none" 
	d="
M180.022308,429.575317 
	C180.365997,429.845947 180.689804,430.577667 181.090607,431.654236 
	C181.167587,447.143646 181.167587,462.288208 181.167587,478.625793 
	C180.311417,477.226990 180.112991,477.019226 180.053940,476.777435 
	C179.976501,476.460510 180.009018,476.116699 179.914307,475.391663 
	C179.890411,460.011383 179.946426,445.023895 180.022308,429.575317 
z"/>
<path fill="#FFFFFF" opacity="1.000000" stroke="none" 
	d="
M128.999725,576.036255 
	C128.999725,572.247620 128.999725,568.952332 128.999725,565.657043 
	C129.225601,565.657532 129.451477,565.658020 129.677353,565.658569 
	C129.677353,581.216309 129.677353,596.774048 129.677353,612.331787 
	C129.451477,612.336365 129.225601,612.340881 128.999725,612.345459 
	C128.999725,600.406799 128.999725,588.468201 128.999725,576.036255 
z"/>
<path fill="#FCFCFC" opacity="1.000000" stroke="none" 
	d="
M260.578064,322.076263 
	C263.203857,321.883728 265.401245,321.978485 264.966614,325.706482 
	C263.399231,324.810028 261.842377,323.503296 260.578064,322.076263 
z"/>
<path fill="#020102" opacity="1.000000" stroke="none" 
	d="
M169.803696,60.024948 
	C169.760330,60.215897 169.417175,60.392799 168.989105,60.303101 
	C169.104111,60.027969 169.304001,60.019436 169.803696,60.024948 
z"/>
<path fill="#020102" opacity="1.000000" stroke="none" 
	d="
M236.103180,480.340424 
	C236.316620,480.259552 236.625046,480.355408 236.884155,480.721313 
	C236.576187,480.895660 236.363968,480.737579 236.103180,480.340424 
z"/>
<path fill="#040304" opacity="1.000000" stroke="none" 
	d="
M259.663361,304.105896 
	C253.158844,305.893646 246.707565,307.929840 240.122299,309.340668 
	C237.663803,309.867340 234.540680,309.638763 232.330750,308.534027 
	C225.965744,305.352173 219.911835,301.547974 213.204346,297.673096 
	C211.116150,296.569550 209.559311,295.781219 208.002487,294.992859 
	C207.580200,294.648438 207.157913,294.303986 206.454529,293.943268 
	C200.330063,290.453644 194.365921,287.161133 188.721573,283.389954 
	C187.156525,282.344299 185.715836,279.915192 185.631210,278.056458 
	C185.245102,269.576416 185.215485,261.070740 185.371887,252.580109 
	C185.432922,249.266815 184.640350,247.607132 181.162216,246.604645 
	C172.861206,244.212128 164.759506,241.136581 156.506912,238.562546 
	C153.984222,237.775681 152.642639,236.673752 152.270309,233.918137 
	C150.152786,218.246704 147.815414,202.604828 145.741180,186.927948 
	C145.530930,185.338867 146.217133,183.358521 147.102081,181.944458 
	C150.895935,175.882080 154.701630,169.802536 158.944870,164.055466 
	C161.351440,160.796005 161.054688,158.401169 158.954224,155.187073 
	C154.315903,148.089630 149.955780,140.798538 145.796295,133.409607 
	C144.932892,131.875854 144.708115,129.250229 145.413879,127.677452 
	C153.582230,109.474258 161.921616,91.346283 170.447510,73.307953 
	C171.148575,71.824707 173.482742,70.345360 175.159943,70.219307 
	C184.291977,69.532951 193.453094,69.155884 202.610565,68.931374 
	C205.532990,68.859726 207.045944,67.957916 207.980972,65.084892 
	C210.347168,57.814415 212.905106,50.595367 215.734360,43.494423 
	C216.424759,41.761608 218.193832,39.983387 219.910278,39.210194 
	C232.946915,33.337624 246.060486,27.630333 259.246552,22.101582 
	C260.980072,21.374733 263.458862,21.389181 265.251953,22.023262 
	C272.300446,24.515774 279.278900,27.240549 286.140625,30.208967 
	C288.624420,31.283459 289.903992,30.966745 291.481201,28.829725 
	C295.236359,23.741806 299.104004,18.713879 303.279266,13.972618 
	C304.587311,12.487250 307.011200,11.197392 308.942444,11.171595 
	C325.435883,10.951275 341.934723,10.949369 358.428284,11.163547 
	C360.398621,11.189132 362.800720,12.455687 364.220856,13.910340 
	C368.519501,18.313345 372.581390,22.972878 376.441040,27.769417 
	C378.689117,30.563160 380.729309,31.602257 384.441315,30.327629 
	C390.404236,28.280094 396.576294,26.729404 402.767303,25.516697 
	C405.065308,25.066555 408.086731,25.465361 410.060425,26.661472 
	C423.716614,34.937515 437.142242,43.593067 450.748871,51.952656 
	C453.190552,53.452763 454.059631,55.099617 454.120758,57.915794 
	C454.276154,65.071663 454.980408,72.215843 455.125793,79.371590 
	C455.182465,82.161255 456.407318,83.047920 458.791687,83.614799 
	C466.071686,85.345612 473.364166,87.064919 480.534698,89.184723 
	C482.213959,89.681160 484.252289,91.496056 484.734802,93.118042 
	C489.949341,110.646225 494.962982,128.236099 499.776489,145.878708 
	C500.247406,147.604736 499.529266,150.127960 498.492737,151.711502 
	C493.755341,158.949219 488.580017,165.901199 483.879791,173.161545 
	C482.950989,174.596237 482.703339,177.239792 483.366272,178.808151 
	C486.794250,186.917816 490.763824,194.798401 494.198700,202.905411 
	C494.983582,204.757858 495.073151,207.452484 494.343536,209.312698 
	C488.333496,224.635513 481.993378,239.828522 475.913177,255.124435 
	C474.803589,257.915863 473.400726,259.236053 470.239288,259.464081 
	C461.772308,260.074829 453.345032,261.220581 444.883179,261.928833 
	C442.279572,262.146729 441.196716,262.930328 440.817413,265.678833 
	C439.657257,274.085327 438.306000,282.477448 436.600922,290.787323 
	C436.229401,292.597900 434.394989,294.886597 432.696564,295.525543 
	C416.665192,301.556427 400.536865,307.333374 384.373383,313.003632 
	C382.706360,313.588440 380.469910,313.464386 378.772217,312.876465 
	C373.593048,311.082794 368.449585,309.112030 363.489563,306.788818 
	C360.699341,305.481903 358.977478,306.052917 356.980835,308.105835 
	C352.802032,312.402374 348.217926,316.316498 344.183350,320.737274 
	C341.453979,323.727905 338.489807,324.710663 334.547058,324.605164 
	C325.558716,324.364594 316.559509,324.529205 307.184296,324.529205 
	C307.184296,359.690765 307.184296,394.735504 307.184296,430.346191 
	C320.696716,430.346191 334.278198,430.346191 348.363708,430.405273 
	C348.867737,430.464325 348.815491,430.501740 348.815491,430.501740 
	C348.815491,438.323944 348.815491,446.146149 348.815491,454.378510 
	C335.058533,454.378510 321.310883,454.378510 307.206451,454.378510 
	C307.206451,494.341736 307.206451,533.898132 307.206451,573.950195 
	C351.195496,573.950195 395.402802,573.950195 439.955658,573.950195 
	C439.955658,584.318054 439.955658,594.195435 439.955658,604.500244 
	C420.593872,604.500244 401.352234,604.500244 381.694214,604.500244 
	C381.694214,614.016968 381.694214,623.118652 381.694214,632.511108 
	C321.565369,632.511108 261.858765,632.511108 201.753189,632.511108 
	C201.753189,623.277344 201.753189,614.185791 201.753189,604.600342 
	C181.278839,604.600342 161.194122,604.600342 140.822662,604.600342 
	C140.822662,594.344116 140.822662,584.584961 140.822662,574.128418 
	C180.918335,574.128418 221.001038,574.128418 261.542450,574.024902 
	C265.037018,573.987671 268.072906,574.053894 272.011444,574.123474 
	C276.375641,574.805115 276.535797,572.789307 276.524261,570.108704 
	C276.443573,551.356995 276.481598,532.604675 276.481659,513.852600 
	C276.481659,504.891449 276.442596,495.929993 276.506775,486.969299 
	C276.524872,484.437866 276.289185,482.496063 272.979675,483.654358 
	C265.056885,483.654358 257.134094,483.654358 248.847198,483.654358 
	C248.847198,478.368683 248.847198,473.781891 248.847198,468.378571 
	C230.961899,468.378571 213.434311,468.378571 195.132126,468.377533 
	C193.900970,468.482391 193.444412,468.588318 192.987839,468.694214 
	C192.601990,467.835266 191.888382,466.979248 191.880707,466.116943 
	C191.799377,456.969604 191.830261,447.821289 191.830261,438.374146 
	C210.833374,438.374146 229.579483,438.374146 249.013153,438.374146 
	C249.013153,441.561127 249.013153,444.825134 249.009766,448.934509 
	C249.671707,450.804871 250.337036,451.829895 251.002350,452.854889 
	C252.394440,452.918793 253.786530,452.982697 256.048218,453.051422 
	C263.271667,453.056244 269.625549,453.056244 276.386749,453.056244 
	C276.290314,451.480652 276.214508,450.241852 276.138672,449.003052 
	C276.242035,447.188599 276.434601,445.374207 276.435486,443.559723 
	C276.453094,407.332367 276.239746,371.102783 276.620544,334.879425 
	C276.699005,327.414703 275.309082,321.274353 269.460327,315.770874 
	C268.296753,314.459808 267.500305,313.593292 266.703827,312.726746 
	C265.113922,310.640625 263.524017,308.554474 261.543030,306.022827 
	C260.655762,305.086792 260.159576,304.596344 259.663361,304.105896 
M200.745178,99.192848 
	C193.750244,98.125679 189.858887,101.081688 187.663254,107.873306 
	C185.733475,113.842575 182.653442,119.462967 179.821671,125.107124 
	C178.567230,127.607414 178.612259,129.539078 180.112717,131.929749 
	C185.327911,140.239105 190.169952,148.785812 195.500229,157.018036 
	C197.285400,159.775101 196.992096,161.540833 195.204620,164.012253 
	C191.893692,168.590088 189.464722,173.886658 185.760818,178.082748 
	C177.787888,187.115189 175.787140,197.074539 179.236938,208.388565 
	C179.333389,208.704926 179.416855,209.043091 179.412216,209.369736 
	C179.357391,213.232986 181.218460,215.029419 185.019455,216.123734 
	C193.956314,218.696640 202.678116,222.008896 211.582428,224.706802 
	C214.545975,225.604736 215.367630,226.987198 215.355560,229.972122 
	C215.314484,240.127884 215.446808,250.291473 215.889694,260.435638 
	C215.971100,262.300232 217.363831,264.781708 218.920715,265.787720 
	C224.780334,269.574097 230.890915,272.995270 237.064194,276.256592 
	C238.581940,277.058441 240.854187,277.306122 242.503281,276.837128 
	C250.494751,274.564423 258.425507,272.060486 266.304657,269.420258 
	C269.043945,268.502380 270.786560,268.836365 272.632568,271.245300 
	C277.894257,278.111572 283.322266,284.860291 288.948883,291.428986 
	C290.143829,292.824005 292.441742,293.974426 294.260925,294.018402 
	C304.418152,294.264008 314.587158,294.255798 324.745148,294.026093 
	C326.648834,293.983063 328.921906,292.976807 330.338348,291.670837 
	C336.580811,285.915161 342.722504,280.030914 348.589661,273.895782 
	C351.435516,270.919983 353.834717,269.606201 357.873840,271.851410 
	C361.619629,273.933563 366.046875,274.785461 369.804779,276.850983 
	C377.964355,281.335815 385.891052,281.918976 394.233765,277.352478 
	C397.256256,275.698090 400.722290,274.735596 404.091003,273.862976 
	C407.985504,272.854156 409.555664,270.725403 410.093353,266.639557 
	C411.497620,255.968842 413.509186,245.378036 415.304718,234.598480 
	C426.938019,233.401581 438.175781,232.126648 449.440582,231.171051 
	C452.209991,230.936142 453.472961,229.920212 454.408905,227.403595 
	C456.609009,221.487717 459.307739,215.754135 461.414185,209.808426 
	C462.044678,208.028748 461.966675,205.540039 461.217529,203.806427 
	C457.329742,194.809509 453.219177,185.903915 448.966431,177.072357 
	C447.540710,174.111557 447.433319,171.907471 449.544891,169.064758 
	C455.099152,161.587280 460.364960,153.882996 465.429260,146.064102 
	C466.513031,144.390793 466.954285,141.687622 466.496338,139.739914 
	C464.861694,132.787674 462.570831,125.992165 460.821320,119.063362 
	C460.022278,115.898697 458.342316,114.600166 455.214294,113.876724 
	C445.681671,111.672012 436.237213,109.086113 426.447845,106.568703 
	C425.913727,96.462456 425.168518,86.507904 424.971802,76.542526 
	C424.895966,72.703514 423.573456,70.519104 420.315948,68.675735 
	C413.957611,65.077660 408.156372,58.876408 401.503265,57.873383 
	C394.853058,56.870789 387.197632,60.269444 380.429718,62.891895 
	C372.131500,66.107338 366.583588,64.293900 361.585358,57.007835 
	C357.759888,51.431320 353.546478,44.729340 347.869507,42.199795 
	C342.010742,39.589241 334.174103,41.415619 327.202698,41.306107 
	C326.203278,41.290405 325.181976,41.436779 324.207733,41.279453 
	C321.185181,40.791344 319.381561,42.226231 317.609802,44.554588 
	C311.589020,52.466690 305.345612,60.209343 299.217224,67.978645 
	C292.755249,65.430069 286.275116,63.821712 280.811188,60.527779 
	C268.336456,53.007408 256.487732,53.806664 244.722229,61.476292 
	C242.572754,62.877476 240.327057,64.980621 239.411041,67.273254 
	C235.960037,75.910614 232.847031,84.698479 230.016754,93.560699 
	C228.901917,97.051514 227.147507,98.095985 223.643768,98.137054 
	C216.322937,98.222885 209.007782,98.792923 200.745178,99.192848 
z"/>
<path fill="#0E0D0E" opacity="1.000000" stroke="none" 
	d="
M349.288940,430.606781 
	C348.815491,430.501740 348.867737,430.464325 348.884186,430.478729 
	C348.900635,420.538483 348.900635,410.583832 348.900635,400.401733 
	C372.827972,400.401733 396.565643,400.401733 420.722687,400.401733 
	C420.722687,410.217682 420.722687,420.097351 420.722687,430.711823 
	C397.201355,430.711823 373.481873,430.711823 349.288940,430.606781 
z"/>
<path fill="#010001" opacity="1.000000" stroke="none" 
	d="
M373.608490,323.089233 
	C374.177704,324.605042 374.355499,326.042786 374.592285,327.957855 
	C368.526611,327.957855 362.742493,328.018463 356.962585,327.889008 
	C356.146515,327.870728 355.351227,326.925354 354.221130,326.181061 
	C356.529846,323.556854 359.033539,320.990082 361.853790,318.838196 
	C363.217041,317.798035 364.772797,316.757507 366.292511,319.809540 
	C367.176941,321.585693 370.816956,321.989746 373.608490,323.089233 
z"/>
<path fill="#010001" opacity="1.000000" stroke="none" 
	d="
M379.390808,327.465271 
	C378.941620,327.349365 378.666260,327.066467 378.412170,326.765594 
	C378.405670,326.757904 378.632568,326.553070 378.750610,326.440186 
	C379.022858,326.725433 379.295135,327.010681 379.390808,327.465271 
z"/>
<path fill="#FCFCFC" opacity="1.000000" stroke="none" 
	d="
M272.985901,484.081116 
	C276.289185,482.496063 276.524872,484.437866 276.506775,486.969299 
	C276.442596,495.929993 276.481659,504.891449 276.481659,513.852600 
	C276.481598,532.604675 276.443573,551.356995 276.524261,570.108704 
	C276.535797,572.789307 276.375641,574.805115 272.456482,574.024048 
	C271.442932,570.815796 270.886993,567.710449 270.534882,565.743530 
	C271.466187,561.095886 272.862396,557.274414 272.896698,553.440735 
	C273.102386,530.464600 272.994781,507.485779 272.985901,484.081116 
z"/>
<path fill="#FCFCFC" opacity="1.000000" stroke="none" 
	d="
M275.742035,449.040039 
	C276.214508,450.241852 276.290314,451.480652 276.386749,453.056244 
	C269.625549,453.056244 263.271667,453.056244 256.457947,452.959534 
	C257.470825,452.241943 258.892670,451.305054 260.425629,451.058258 
	C265.376892,450.261261 270.369019,449.718079 275.742035,449.040039 
z"/>
<path fill="#FCFCFC" opacity="1.000000" stroke="none" 
	d="
M208.001648,295.381348 
	C209.559311,295.781219 211.116150,296.569550 212.850830,297.634277 
	C212.012192,298.540680 210.995712,299.170746 209.979233,299.800812 
	C209.319748,298.457153 208.660278,297.113464 208.001648,295.381348 
z"/>
<path fill="#FCFCFC" opacity="1.000000" stroke="none" 
	d="
M187.960144,477.510498 
	C186.931564,477.884583 185.860443,477.936523 184.393280,477.910919 
	C184.639282,476.992126 185.281326,476.150879 185.923370,475.309631 
	C186.588120,475.935883 187.252884,476.562134 187.960144,477.510498 
z"/>
<path fill="#FCFCFC" opacity="1.000000" stroke="none" 
	d="
M266.368530,312.881775 
	C267.500305,313.593292 268.296753,314.459808 269.165466,315.616241 
	C267.436340,315.768524 264.805054,316.557800 266.368530,312.881775 
z"/>
<path fill="#FCFCFC" opacity="1.000000" stroke="none" 
	d="
M251.002411,452.500122 
	C250.337036,451.829895 249.671707,450.804871 249.097412,449.388458 
	C249.793137,450.046478 250.397812,451.095947 251.002411,452.500122 
z"/>
<path fill="#FCFCFC" opacity="1.000000" stroke="none" 
	d="
M259.493408,304.509979 
	C260.159576,304.596344 260.655762,305.086792 261.239502,305.829163 
	C260.746277,306.469604 260.165497,306.858124 259.584686,307.246643 
	C259.497620,306.469086 259.410553,305.691589 259.493408,304.509979 
z"/>
<path fill="#FCFCFC" opacity="1.000000" stroke="none" 
	d="
M267.481445,440.944305 
	C267.113525,440.248566 267.061584,439.494537 267.087952,438.368958 
	C267.376678,438.960236 267.587067,439.923157 267.481445,440.944305 
z"/>
<path fill="#FCFCFC" opacity="1.000000" stroke="none" 
	d="
M193.058746,468.913147 
	C193.444412,468.588318 193.900970,468.482391 194.686371,468.524414 
	C194.386688,468.825592 193.758179,468.978851 193.058746,468.913147 
z"/>
<path fill="#FCFCFC" opacity="1.000000" stroke="none" 
	d="
M182.897583,477.654907 
	C182.685333,477.735016 182.378006,477.639465 182.119537,477.275757 
	C182.425720,477.103088 182.637085,477.260315 182.897583,477.654907 
z"/>
<path fill="#FCFCFC" opacity="1.000000" stroke="none" 
	d="
M257.532593,307.550293 
	C257.476959,307.583527 257.588196,307.517029 257.532593,307.550293 
z"/>
<path fill="#FEFEFE" opacity="1.000000" stroke="none" 
	d="
M201.217743,99.178452 
	C209.007782,98.792923 216.322937,98.222885 223.643768,98.137054 
	C227.147507,98.095985 228.901917,97.051514 230.016754,93.560699 
	C232.847031,84.698479 235.960037,75.910614 239.411041,67.273254 
	C240.327057,64.980621 242.572754,62.877476 244.722229,61.476292 
	C256.487732,53.806664 268.336456,53.007408 280.811188,60.527779 
	C286.275116,63.821712 292.755249,65.430069 299.217224,67.978645 
	C305.345612,60.209343 311.589020,52.466690 317.609802,44.554588 
	C319.381561,42.226231 321.185181,40.791344 324.207733,41.279453 
	C325.181976,41.436779 326.203278,41.290405 327.202698,41.306107 
	C334.174103,41.415619 342.010742,39.589241 347.869507,42.199795 
	C353.546478,44.729340 357.759888,51.431320 361.585358,57.007835 
	C366.583588,64.293900 372.131500,66.107338 380.429718,62.891895 
	C387.197632,60.269444 394.853058,56.870789 401.503265,57.873383 
	C408.156372,58.876408 413.957611,65.077660 420.315948,68.675735 
	C423.573456,70.519104 424.895966,72.703514 424.971802,76.542526 
	C425.168518,86.507904 425.913727,96.462456 426.447845,106.568703 
	C436.237213,109.086113 445.681671,111.672012 455.214294,113.876724 
	C458.342316,114.600166 460.022278,115.898697 460.821320,119.063362 
	C462.570831,125.992165 464.861694,132.787674 466.496338,139.739914 
	C466.954285,141.687622 466.513031,144.390793 465.429260,146.064102 
	C460.364960,153.882996 455.099152,161.587280 449.544891,169.064758 
	C447.433319,171.907471 447.540710,174.111557 448.966431,177.072357 
	C453.219177,185.903915 457.329742,194.809509 461.217529,203.806427 
	C461.966675,205.540039 462.044678,208.028748 461.414185,209.808426 
	C459.307739,215.754135 456.609009,221.487717 454.408905,227.403595 
	C453.472961,229.920212 452.209991,230.936142 449.440582,231.171051 
	C438.175781,232.126648 426.938019,233.401581 415.304718,234.598480 
	C413.509186,245.378036 411.497620,255.968842 410.093353,266.639557 
	C409.555664,270.725403 407.985504,272.854156 404.091003,273.862976 
	C400.722290,274.735596 397.256256,275.698090 394.233765,277.352478 
	C385.891052,281.918976 377.964355,281.335815 369.804779,276.850983 
	C366.046875,274.785461 361.619629,273.933563 357.873840,271.851410 
	C353.834717,269.606201 351.435516,270.919983 348.589661,273.895782 
	C342.722504,280.030914 336.580811,285.915161 330.338348,291.670837 
	C328.921906,292.976807 326.648834,293.983063 324.745148,294.026093 
	C314.587158,294.255798 304.418152,294.264008 294.260925,294.018402 
	C292.441742,293.974426 290.143829,292.824005 288.948883,291.428986 
	C283.322266,284.860291 277.894257,278.111572 272.632568,271.245300 
	C270.786560,268.836365 269.043945,268.502380 266.304657,269.420258 
	C258.425507,272.060486 250.494751,274.564423 242.503281,276.837128 
	C240.854187,277.306122 238.581940,277.058441 237.064194,276.256592 
	C230.890915,272.995270 224.780334,269.574097 218.920715,265.787720 
	C217.363831,264.781708 215.971100,262.300232 215.889694,260.435638 
	C215.446808,250.291473 215.314484,240.127884 215.355560,229.972122 
	C215.367630,226.987198 214.545975,225.604736 211.582428,224.706802 
	C202.678116,222.008896 193.956314,218.696640 185.019455,216.123734 
	C181.218460,215.029419 179.357391,213.232986 179.412216,209.369736 
	C179.416855,209.043091 179.333389,208.704926 179.236938,208.388565 
	C175.787140,197.074539 177.787888,187.115189 185.760818,178.082748 
	C189.464722,173.886658 191.893692,168.590088 195.204620,164.012253 
	C196.992096,161.540833 197.285400,159.775101 195.500229,157.018036 
	C190.169952,148.785812 185.327911,140.239105 180.112717,131.929749 
	C178.612259,129.539078 178.567230,127.607414 179.821671,125.107124 
	C182.653442,119.462967 185.733475,113.842575 187.663254,107.873306 
	C189.858887,101.081688 193.750244,98.125679 201.217743,99.178452 
M400.992615,136.214645 
	C400.696320,135.475113 400.588043,134.554092 400.075623,134.023239 
	C391.986389,125.642792 383.920105,117.236664 375.632812,109.054970 
	C374.432953,107.870392 372.118317,107.324257 370.315460,107.315491 
	C346.678070,107.200562 323.039398,107.163078 299.403015,107.353874 
	C297.230682,107.371414 294.592438,108.580315 292.989105,110.099762 
	C285.630035,117.073685 278.449646,124.248352 271.478424,131.609787 
	C269.970795,133.201813 268.850128,135.849548 268.812988,138.032486 
	C268.580841,151.678467 268.606445,165.332138 268.822540,178.978882 
	C268.854767,181.014694 269.835114,183.512329 271.236511,184.969650 
	C278.502563,192.525574 285.971771,199.892914 293.565735,207.120514 
	C294.929749,208.418762 297.212036,209.438217 299.066193,209.431519 
	C322.699371,209.346268 346.332703,209.103790 369.962708,208.705994 
	C371.855774,208.674118 374.142090,207.643341 375.534943,206.325562 
	C382.908325,199.349411 390.147949,192.223343 397.200592,184.923798 
	C398.629730,183.444656 399.751221,181.022690 399.830719,178.989090 
	C400.376556,165.027710 400.607361,151.054016 400.992615,136.214645 
z"/>
<path fill="#040304" opacity="1.000000" stroke="none" 
	d="
M400.966125,136.649475 
	C400.607361,151.054016 400.376556,165.027710 399.830719,178.989090 
	C399.751221,181.022690 398.629730,183.444656 397.200592,184.923798 
	C390.147949,192.223343 382.908325,199.349411 375.534943,206.325562 
	C374.142090,207.643341 371.855774,208.674118 369.962708,208.705994 
	C346.332703,209.103790 322.699371,209.346268 299.066193,209.431519 
	C297.212036,209.438217 294.929749,208.418762 293.565735,207.120514 
	C285.971771,199.892914 278.502563,192.525574 271.236511,184.969650 
	C269.835114,183.512329 268.854767,181.014694 268.822540,178.978882 
	C268.606445,165.332138 268.580841,151.678467 268.812988,138.032486 
	C268.850128,135.849548 269.970795,133.201813 271.478424,131.609787 
	C278.449646,124.248352 285.630035,117.073685 292.989105,110.099762 
	C294.592438,108.580315 297.230682,107.371414 299.403015,107.353874 
	C323.039398,107.163078 346.678070,107.200562 370.315460,107.315491 
	C372.118317,107.324257 374.432953,107.870392 375.632812,109.054970 
	C383.920105,117.236664 391.986389,125.642792 400.075623,134.023239 
	C400.588043,134.554092 400.696320,135.475113 400.966125,136.649475 
M342.498871,137.449432 
	C332.854004,137.450287 323.205200,137.609970 313.566193,137.373077 
	C309.765198,137.279648 307.200775,138.647049 304.389465,141.115417 
	C300.156067,144.832474 298.203003,148.851227 298.902435,154.506134 
	C299.368347,158.273193 298.981689,162.144592 298.993042,165.969254 
	C299.010498,171.861023 306.408173,179.191727 312.361359,179.151138 
	C325.329742,179.062698 338.315735,178.477310 351.259064,178.990295 
	C358.706146,179.285461 363.855530,176.511444 368.275238,171.098618 
	C370.465912,168.415634 371.031738,147.853592 368.838684,145.211838 
	C364.455078,139.931274 359.615631,135.880981 351.962250,137.364822 
	C349.237701,137.893051 346.324738,137.449463 342.498871,137.449432 
z"/>
<path fill="#FBFBFB" opacity="1.000000" stroke="none" 
	d="
M342.998352,137.449463 
	C346.324738,137.449463 349.237701,137.893051 351.962250,137.364822 
	C359.615631,135.880981 364.455078,139.931274 368.838684,145.211838 
	C371.031738,147.853592 370.465912,168.415634 368.275238,171.098618 
	C363.855530,176.511444 358.706146,179.285461 351.259064,178.990295 
	C338.315735,178.477310 325.329742,179.062698 312.361359,179.151138 
	C306.408173,179.191727 299.010498,171.861023 298.993042,165.969254 
	C298.981689,162.144592 299.368347,158.273193 298.902435,154.506134 
	C298.203003,148.851227 300.156067,144.832474 304.389465,141.115417 
	C307.200775,138.647049 309.765198,137.279648 313.566193,137.373077 
	C323.205200,137.609970 332.854004,137.450287 342.998352,137.449463 
z"/>
</svg>