<svg version="1.1" id="Layer_1" xmlns="http://www.w3.org/2000/svg" xmlns:xlink="http://www.w3.org/1999/xlink" x="0px" y="0px"
	 width="100%" viewBox="0 0 460 460" enable-background="new 0 0 460 460" xml:space="preserve">
<path fill="#000000" opacity="1.000000" stroke="none" 
	d="
M243.000000,461.000000 
	C162.021866,461.000000 81.543739,461.000000 1.032805,461.000000 
	C1.032805,307.730194 1.032805,154.460388 1.032805,1.095291 
	C154.228104,1.095291 307.456268,1.095291 460.842224,1.095291 
	C460.842224,154.333206 460.842224,307.666595 460.842224,461.000000 
	C388.460449,461.000000 315.980225,461.000000 243.000000,461.000000 
M196.631393,295.129547 
	C186.738144,295.074585 176.844894,295.001526 166.951691,295.006775 
	C166.314392,295.007111 165.677414,295.611633 164.990738,296.865356 
	C164.977524,302.081177 164.964294,307.296997 164.291702,313.044037 
	C165.719879,313.362701 167.145493,313.943237 168.576630,313.957153 
	C177.357956,314.042694 186.140518,314.000000 194.470795,314.000000 
	C195.037018,316.695068 195.484955,318.827118 196.690430,321.316223 
	C201.149429,321.214294 205.608414,321.112335 210.024414,321.715363 
	C210.340637,322.801819 210.656876,323.888306 210.172073,325.344269 
	C210.114716,338.666840 210.095535,351.989838 209.956970,365.311554 
	C209.937241,367.209869 209.338577,369.102142 208.434570,370.998962 
	C208.246826,371.034637 208.059097,371.070343 206.957458,371.079865 
	C184.015564,371.088226 161.073685,371.096619 137.402924,370.976959 
	C136.912170,370.998352 136.421417,371.019745 135.134308,371.397949 
	C135.134308,377.152252 135.134308,382.906586 135.134308,389.177490 
	C146.603241,389.177490 157.770218,389.177490 168.457062,389.177490 
	C169.012482,394.534698 169.509583,399.329285 170.002136,404.004791 
	C170.002136,404.004791 169.883011,404.009735 170.298737,404.795746 
	C175.778076,404.863831 181.259796,405.055054 186.735779,404.949432 
	C189.583191,404.894531 192.420486,404.315369 195.572754,404.124664 
	C195.572754,404.124664 195.908844,404.044922 196.860077,404.007050 
	C219.407471,404.337738 241.954575,404.693878 264.502808,404.951294 
	C266.331543,404.972198 268.167999,404.317505 270.772369,403.690765 
	C271.404938,398.955139 272.037537,394.219482 272.730469,389.032074 
	C281.282257,389.032074 290.163971,389.109589 299.041779,388.959045 
	C300.599091,388.932678 302.140228,387.949707 303.868011,386.441711 
	C303.585419,381.626923 303.302826,376.812103 302.477264,371.344727 
	C301.325775,371.229889 300.174347,371.015198 299.022827,371.014954 
	C276.698425,371.010620 254.374008,371.031311 231.524994,370.978516 
	C231.348785,370.985413 231.172577,370.992310 230.705353,370.205536 
	C230.138153,368.756500 229.086075,367.310486 229.076920,365.857941 
	C228.951294,345.909760 228.969452,325.960663 229.896545,305.988831 
	C233.661392,305.994385 237.431885,306.130615 241.189438,305.967834 
	C244.773529,305.812592 248.344131,305.345612 252.551224,304.477020 
	C252.385178,300.367706 252.219116,296.258423 252.975342,292.017303 
	C264.944153,292.342133 276.912018,292.728912 288.883026,292.904846 
	C290.216614,292.924438 291.567871,291.745148 292.963226,290.174713 
	C292.613007,285.109863 292.262756,280.045013 291.608673,274.161407 
	C279.040344,274.108856 266.472015,274.042114 253.903717,274.045563 
	C253.273804,274.045715 252.644058,274.653961 251.894363,275.907440 
	C251.904968,280.853912 251.915588,285.800354 251.429245,291.047058 
	C251.266830,291.365845 251.104431,291.684662 250.012985,291.956146 
	C247.183472,291.973663 244.345352,292.138428 241.526443,291.974060 
	C237.319855,291.728821 233.126785,291.251556 228.994919,289.953735 
	C228.973267,273.345856 228.951614,256.737976 228.966812,239.223312 
	C229.066071,237.296417 229.165329,235.369507 229.287842,232.991287 
	C233.931580,232.991287 238.071365,232.810211 242.188065,233.041046 
	C246.501434,233.282928 249.850525,232.865463 252.783569,228.673126 
	C255.576340,224.681305 259.712738,221.745636 265.232361,226.296524 
	C266.826355,227.610703 270.520325,227.138336 272.984253,226.481888 
	C278.458557,225.023361 283.795624,223.017471 289.129852,221.073395 
	C295.508514,218.748642 303.368286,217.838120 302.459167,208.007843 
	C302.371857,207.063385 302.533051,206.083771 302.667542,205.133026 
	C303.379944,200.096817 305.353119,198.802582 310.600220,198.943802 
	C314.010010,199.035583 317.487549,198.603622 320.834015,197.916000 
	C321.931000,197.690582 323.054443,196.068100 323.573639,194.835159 
	C325.305450,190.722488 326.284882,186.227859 328.430328,182.367401 
	C333.765503,172.767593 336.297028,163.542450 328.193298,154.054504 
	C327.284027,152.989899 327.401337,150.093857 328.196625,148.710632 
	C330.402863,144.873306 333.389832,141.490906 335.700378,137.704269 
	C336.508911,136.379227 336.762360,134.272034 336.383484,132.741257 
	C334.551117,125.337799 332.068451,118.082375 330.500336,110.630516 
	C329.242126,104.651253 326.244629,101.612137 320.151428,100.777901 
	C311.821777,99.637459 311.725250,99.350632 312.118958,90.952522 
	C312.359741,85.817123 310.741821,81.956337 306.073029,79.427696 
	C301.269073,76.825844 295.850677,74.767029 292.026123,71.091789 
	C286.756775,66.028160 281.610840,66.181618 275.720062,68.597435 
	C271.473267,70.339066 268.010071,69.590607 265.328674,65.778008 
	C264.194885,64.165840 263.079346,62.540821 261.997070,60.294785 
	C261.689087,59.838894 261.381104,59.383003 261.032959,59.011723 
	C261.032959,59.011723 261.099213,58.945297 260.733368,58.211056 
	C254.373520,57.802734 248.009674,57.032913 241.655121,57.103210 
	C236.781540,57.157131 231.919678,58.270878 226.729294,59.534729 
	C224.797836,61.977875 222.612274,64.266342 221.005005,66.906830 
	C219.332642,69.654274 217.801971,69.878448 214.982437,68.422852 
	C207.173096,64.391235 199.442459,65.021156 191.657745,69.109650 
	C183.511536,73.388008 174.481110,76.242363 173.396103,87.747902 
	C173.013885,91.800926 169.190445,92.608505 165.141220,91.626244 
	C157.376099,89.742561 152.714981,91.892464 149.337708,98.954178 
	C145.853760,106.238953 142.554489,113.620529 139.448242,121.073883 
	C137.881439,124.833412 137.613770,128.590118 141.103653,131.909698 
	C142.718735,133.445938 143.348679,135.972229 144.826630,137.707901 
	C147.793503,141.192169 146.431229,143.799194 143.874573,146.727936 
	C140.657913,150.412720 138.300095,154.575592 138.993515,159.825531 
	C139.725266,165.365540 140.572159,170.901962 140.991867,176.468353 
	C141.435516,182.352325 144.574142,185.841599 149.835159,187.824738 
	C160.966934,192.020874 161.096909,192.023560 160.849274,203.929520 
	C160.766846,207.891708 162.005417,210.522980 165.510223,212.420227 
	C172.042709,215.956421 178.492203,219.652390 184.891083,223.426254 
	C188.097443,225.317230 190.937317,226.214905 194.733704,224.336365 
	C197.035858,223.197205 200.892746,222.768875 202.866623,223.969162 
	C205.801666,225.753922 207.688583,229.262329 209.977371,232.969055 
	C209.972183,254.733994 209.887665,276.499542 210.056000,298.263123 
	C210.078598,301.185303 209.547134,303.074188 206.183929,303.964264 
	C206.014374,304.041260 205.844803,304.118286 204.869064,304.323120 
	C202.695602,304.281769 200.522156,304.240417 197.797348,303.970154 
	C197.599670,303.993134 197.402008,304.016144 196.936813,303.289062 
	C196.902603,300.853149 196.868393,298.417206 196.631393,295.129547 
z"/>
<path fill="#2B3138" opacity="1.000000" stroke="none" 
	d="
M210.067413,321.010406 
	C205.608414,321.112335 201.149429,321.214294 196.410919,320.689392 
	C196.131409,317.789948 196.131409,315.517334 196.131409,312.512817 
	C185.449081,312.512817 175.200073,312.512817 164.951080,312.512817 
	C164.964294,307.296997 164.977524,302.081177 165.475449,296.480835 
	C175.905029,296.099487 185.849899,296.102692 195.909851,296.521362 
	C196.418060,299.304291 196.811203,301.671692 197.204330,304.039124 
	C197.402008,304.016144 197.599670,303.993134 198.399994,304.138550 
	C201.226822,304.269714 203.451019,304.232513 205.675217,304.195282 
	C205.844803,304.118286 206.014374,304.041260 206.894531,304.138367 
	C210.579330,304.835510 211.675247,303.761688 211.656357,300.591614 
	C211.527588,278.983093 211.600189,257.373413 211.499146,235.764603 
	C211.493332,234.519852 210.536041,233.279541 210.021561,232.037170 
	C207.688583,229.262329 205.801666,225.753922 202.866623,223.969162 
	C200.892746,222.768875 197.035858,223.197205 194.733704,224.336365 
	C190.937317,226.214905 188.097443,225.317230 184.891083,223.426254 
	C178.492203,219.652390 172.042709,215.956421 165.510223,212.420227 
	C162.005417,210.522980 160.766846,207.891708 160.849274,203.929520 
	C161.096909,192.023560 160.966934,192.020874 149.835159,187.824738 
	C144.574142,185.841599 141.435516,182.352325 140.991867,176.468353 
	C140.572159,170.901962 139.725266,165.365540 138.993515,159.825531 
	C138.300095,154.575592 140.657913,150.412720 143.874573,146.727936 
	C146.431229,143.799194 147.793503,141.192169 144.826630,137.707901 
	C143.348679,135.972229 142.718735,133.445938 141.103653,131.909698 
	C137.613770,128.590118 137.881439,124.833412 139.448242,121.073883 
	C142.554489,113.620529 145.853760,106.238953 149.337708,98.954178 
	C152.714981,91.892464 157.376099,89.742561 165.141220,91.626244 
	C169.190445,92.608505 173.013885,91.800926 173.396103,87.747902 
	C174.481110,76.242363 183.511536,73.388008 191.657745,69.109650 
	C199.442459,65.021156 207.173096,64.391235 214.982437,68.422852 
	C217.801971,69.878448 219.332642,69.654274 221.005005,66.906830 
	C222.612274,64.266342 224.797836,61.977875 227.353912,59.273151 
	C239.018753,58.989483 250.058975,58.967392 261.099213,58.945297 
	C261.099213,58.945297 261.032959,59.011723 260.702423,59.185566 
	C260.899750,59.880154 261.427643,60.400894 261.955505,60.921638 
	C263.079346,62.540821 264.194885,64.165840 265.328674,65.778008 
	C268.010071,69.590607 271.473267,70.339066 275.720062,68.597435 
	C281.610840,66.181618 286.756775,66.028160 292.026123,71.091789 
	C295.850677,74.767029 301.269073,76.825844 306.073029,79.427696 
	C310.741821,81.956337 312.359741,85.817123 312.118958,90.952522 
	C311.725250,99.350632 311.821777,99.637459 320.151428,100.777901 
	C326.244629,101.612137 329.242126,104.651253 330.500336,110.630516 
	C332.068451,118.082375 334.551117,125.337799 336.383484,132.741257 
	C336.762360,134.272034 336.508911,136.379227 335.700378,137.704269 
	C333.389832,141.490906 330.402863,144.873306 328.196625,148.710632 
	C327.401337,150.093857 327.284027,152.989899 328.193298,154.054504 
	C336.297028,163.542450 333.765503,172.767593 328.430328,182.367401 
	C326.284882,186.227859 325.305450,190.722488 323.573639,194.835159 
	C323.054443,196.068100 321.931000,197.690582 320.834015,197.916000 
	C317.487549,198.603622 314.010010,199.035583 310.600220,198.943802 
	C305.353119,198.802582 303.379944,200.096817 302.667542,205.133026 
	C302.533051,206.083771 302.371857,207.063385 302.459167,208.007843 
	C303.368286,217.838120 295.508514,218.748642 289.129852,221.073395 
	C283.795624,223.017471 278.458557,225.023361 272.984253,226.481888 
	C270.520325,227.138336 266.826355,227.610703 265.232361,226.296524 
	C259.712738,221.745636 255.576340,224.681305 252.783569,228.673126 
	C249.850525,232.865463 246.501434,233.282928 242.188065,233.041046 
	C238.071365,232.810211 233.931580,232.991287 229.287842,232.991287 
	C229.165329,235.369507 229.066071,237.296417 228.551300,239.843277 
	C228.092651,256.445007 228.035767,272.426788 228.045853,288.408539 
	C228.046371,289.230225 228.620758,290.051483 228.927963,290.872986 
	C233.126785,291.251556 237.319855,291.728821 241.526443,291.974060 
	C244.345352,292.138428 247.183472,291.973663 250.758820,291.989227 
	C251.687469,292.064606 251.870270,292.106873 252.053055,292.149109 
	C252.219116,296.258423 252.385178,300.367706 251.772461,304.740234 
	C246.200165,305.002350 241.402145,304.876526 236.614792,305.047882 
	C233.828125,305.147644 231.058517,305.723694 228.174805,306.538116 
	C228.047516,309.320862 228.009399,311.650940 228.008545,313.981018 
	C228.002045,331.640259 227.988800,349.299561 228.020966,366.958740 
	C228.024567,368.935638 227.250854,371.688751 230.996353,370.999237 
	C231.172577,370.992310 231.348785,370.985413 232.087372,371.292664 
	C234.461929,371.736237 236.273987,371.976044 238.086334,371.978271 
	C259.730957,372.005066 281.375610,371.996582 303.020233,371.997314 
	C303.302826,376.812103 303.585419,381.626923 303.344116,387.052063 
	C292.074432,387.662415 281.328674,387.662415 269.964966,387.662415 
	C269.964966,393.095551 269.964966,398.033020 269.498810,402.985291 
	C246.340042,403.003693 223.647369,402.985443 200.954956,403.055420 
	C199.271912,403.060608 197.590836,403.700226 195.908844,404.044922 
	C195.908844,404.044922 195.572754,404.124664 194.951187,403.901917 
	C186.180756,403.789368 178.031876,403.899536 169.883011,404.009705 
	C169.883011,404.009735 170.002136,404.004791 170.115387,403.599060 
	C170.228638,398.101746 170.228638,393.010162 170.228638,387.450653 
	C158.382614,387.450653 147.325287,387.450653 135.930664,387.450653 
	C135.930664,381.660950 135.930664,376.351074 135.930664,371.041138 
	C136.421417,371.019745 136.912170,370.998352 138.069992,371.300964 
	C139.388809,371.730011 140.040482,371.926422 140.692322,371.926971 
	C161.831619,371.944885 182.970963,371.958252 204.110168,371.909912 
	C205.364517,371.907043 206.617676,371.385956 207.871384,371.106018 
	C208.059097,371.070343 208.246826,371.034637 209.140167,371.021118 
	C210.396667,369.571350 211.413177,368.103424 211.425995,366.626831 
	C211.545563,352.849304 211.492844,339.070251 211.669846,324.925598 
	C211.255569,323.376526 210.661499,322.193451 210.067413,321.010406 
M180.316437,200.489014 
	C187.223236,206.175110 194.304077,208.563232 202.565308,202.759735 
	C205.237457,200.882584 208.008560,201.369659 210.654083,204.564362 
	C215.665298,210.615875 219.764511,217.773743 230.255569,216.412048 
	C236.195572,215.641068 241.367355,215.792801 245.362854,210.497833 
	C250.836990,203.243286 255.362091,202.408722 263.358765,206.567825 
	C270.474579,210.268799 276.769653,207.320038 283.090240,204.343735 
	C287.201050,202.408005 286.683075,198.516663 287.023407,194.981033 
	C287.258514,192.538315 287.811951,190.095276 287.756653,187.662994 
	C287.678375,184.219818 289.461212,182.817078 292.513092,182.539581 
	C296.757996,182.153595 301.041779,182.076935 305.250061,181.463974 
	C306.965851,181.214066 309.109070,180.324478 310.057983,179.006210 
	C314.046844,173.464508 316.485229,167.620987 311.897858,161.005600 
	C310.307892,158.712738 309.386963,155.961426 308.107544,153.446442 
	C306.251617,149.798264 306.742859,146.989502 309.563873,143.609406 
	C313.627350,138.740646 318.849609,134.505310 316.313080,126.090477 
	C313.698059,117.415298 313.550018,115.983086 304.277405,115.022369 
	C297.241821,114.293419 294.953461,111.720230 294.989777,104.590523 
	C295.002502,102.090874 295.280579,99.548386 294.907349,97.106499 
	C294.657928,95.474609 293.881805,93.400230 292.637756,92.531105 
	C286.187439,88.024818 279.920135,82.940414 271.086670,87.937920 
	C268.644379,89.319641 264.548279,89.211464 261.798065,88.196312 
	C259.250183,87.255836 256.721191,84.547470 255.524506,81.990242 
	C252.149033,74.776932 245.678894,76.506279 240.143494,76.348381 
	C237.984055,76.286766 235.406647,78.496262 233.627930,80.278427 
	C230.731247,83.180771 228.431351,86.670837 225.651276,89.703568 
	C225.032227,90.378868 223.339035,90.612785 222.356064,90.321686 
	C216.632401,88.626709 210.989670,86.660751 205.285202,84.897614 
	C202.257523,83.961807 192.945602,87.463135 191.940338,89.947090 
	C190.343979,93.891556 189.036163,97.952568 187.448669,101.900917 
	C186.158035,105.110954 185.338257,108.641212 180.352493,108.229858 
	C176.641937,107.923714 172.837219,108.648270 169.084671,109.017586 
	C167.647247,109.159042 165.874054,109.143074 164.874954,109.959183 
	C158.086517,115.504356 156.968567,125.828606 162.225677,132.571625 
	C168.077652,140.077637 168.518967,143.386612 162.452682,151.038712 
	C158.253616,156.335495 156.108902,161.328598 157.807175,168.169983 
	C158.532486,171.091843 159.372528,172.291412 162.194565,173.067688 
	C167.280777,174.466782 172.213654,176.423401 177.300552,179.061813 
	C177.441772,184.972488 177.477051,190.889343 177.820663,196.788239 
	C177.883423,197.865585 179.202637,198.869751 180.316437,200.489014 
z"/>
<path fill="#2A3037" opacity="1.000000" stroke="none" 
	d="
M291.912537,274.980164 
	C292.262756,280.045013 292.613007,285.109863 292.476318,290.601929 
	C278.635010,290.935059 265.280609,290.840942 251.926193,290.746826 
	C251.915588,285.800354 251.904968,280.853912 252.419373,275.497681 
	C265.933746,275.052032 278.923157,275.016113 291.912537,274.980164 
z"/>
<path fill="#EBEBEC" opacity="1.000000" stroke="none" 
	d="
M209.999466,232.503113 
	C210.536041,233.279541 211.493332,234.519852 211.499146,235.764603 
	C211.600189,257.373413 211.527588,278.983093 211.656357,300.591614 
	C211.675247,303.761688 210.579330,304.835510 207.172241,304.168610 
	C209.547134,303.074188 210.078598,301.185303 210.056000,298.263123 
	C209.887665,276.499542 209.972183,254.733994 209.999466,232.503113 
z"/>
<path fill="#EEEFEF" opacity="1.000000" stroke="none" 
	d="
M269.964966,402.970490 
	C269.964966,398.033020 269.964966,393.095551 269.964966,387.662415 
	C281.328674,387.662415 292.074432,387.662415 303.254517,387.535461 
	C302.140228,387.949707 300.599091,388.932678 299.041779,388.959045 
	C290.163971,389.109589 281.282257,389.032074 272.730469,389.032074 
	C272.037537,394.219482 271.404938,398.955139 270.415070,403.580872 
	C270.026825,403.304138 269.995880,403.137329 269.964966,402.970490 
z"/>
<path fill="#FFFFFF" opacity="1.000000" stroke="none" 
	d="
M211.490036,325.291656 
	C211.492844,339.070251 211.545563,352.849304 211.425995,366.626831 
	C211.413177,368.103424 210.396667,369.571350 209.426819,371.020264 
	C209.338577,369.102142 209.937241,367.209869 209.956970,365.311554 
	C210.095535,351.989838 210.114716,338.666840 210.642197,325.335999 
	C211.112320,325.327728 211.490036,325.291656 211.490036,325.291656 
z"/>
<path fill="#878A8E" opacity="1.000000" stroke="none" 
	d="
M269.498810,402.985291 
	C269.995880,403.137329 270.026825,403.304138 270.029297,403.723846 
	C268.167999,404.317505 266.331543,404.972198 264.502808,404.951294 
	C241.954575,404.693878 219.407471,404.337738 196.384460,404.025970 
	C197.590836,403.700226 199.271912,403.060608 200.954956,403.055420 
	C223.647369,402.985443 246.340042,403.003693 269.498810,402.985291 
z"/>
<path fill="#44494F" opacity="1.000000" stroke="none" 
	d="
M302.748749,371.671021 
	C281.375610,371.996582 259.730957,372.005066 238.086334,371.978271 
	C236.273987,371.976044 234.461929,371.736237 232.349670,371.326843 
	C254.374008,371.031311 276.698425,371.010620 299.022827,371.014954 
	C300.174347,371.015198 301.325775,371.229889 302.748749,371.671021 
z"/>
<path fill="#53585D" opacity="1.000000" stroke="none" 
	d="
M207.414429,371.092957 
	C206.617676,371.385956 205.364517,371.907043 204.110168,371.909912 
	C182.970963,371.958252 161.831619,371.944885 140.692322,371.926971 
	C140.040482,371.926422 139.388809,371.730011 138.434418,371.364990 
	C161.073685,371.096619 184.015564,371.088226 207.414429,371.092957 
z"/>
<path fill="#FFFFFF" opacity="1.000000" stroke="none" 
	d="
M135.532486,371.219543 
	C135.930664,376.351074 135.930664,381.660950 135.930664,387.450653 
	C147.325287,387.450653 158.382614,387.450653 170.228638,387.450653 
	C170.228638,393.010162 170.228638,398.101746 170.117645,403.658600 
	C169.509583,399.329285 169.012482,394.534698 168.457062,389.177490 
	C157.770218,389.177490 146.603241,389.177490 135.134308,389.177490 
	C135.134308,382.906586 135.134308,377.152252 135.532486,371.219543 
z"/>
<path fill="#FCFCFF" opacity="1.000000" stroke="none" 
	d="
M230.850861,370.602386 
	C227.250854,371.688751 228.024567,368.935638 228.020966,366.958740 
	C227.988800,349.299561 228.002045,331.640259 228.008545,313.981018 
	C228.009399,311.650940 228.047516,309.320862 228.350983,306.596375 
	C228.633591,306.201965 228.952286,306.011810 228.952301,306.011810 
	C228.969452,325.960663 228.951294,345.909760 229.076920,365.857941 
	C229.086075,367.310486 230.138153,368.756500 230.850861,370.602386 
z"/>
<path fill="#F8F8F8" opacity="1.000000" stroke="none" 
	d="
M260.916290,58.578178 
	C250.058975,58.967392 239.018753,58.989483 227.515564,58.962421 
	C231.919678,58.270878 236.781540,57.157131 241.655121,57.103210 
	C248.009674,57.032913 254.373520,57.802734 260.916290,58.578178 
z"/>
<path fill="#FFFFFF" opacity="1.000000" stroke="none" 
	d="
M228.961441,290.413330 
	C228.620758,290.051483 228.046371,289.230225 228.045853,288.408539 
	C228.035767,272.426788 228.092651,256.445007 228.532883,240.296661 
	C228.951614,256.737976 228.973267,273.345856 228.961441,290.413330 
z"/>
<path fill="#AFB1B5" opacity="1.000000" stroke="none" 
	d="
M251.677719,290.896942 
	C265.280609,290.840942 278.635010,290.935059 292.450165,291.075500 
	C291.567871,291.745148 290.216614,292.924438 288.883026,292.904846 
	C276.912018,292.728912 264.944153,292.342133 252.514191,292.083191 
	C251.870270,292.106873 251.687469,292.064606 251.223358,292.012878 
	C251.104431,291.684662 251.266830,291.365845 251.677719,290.896942 
z"/>
<path fill="#E5E5E6" opacity="1.000000" stroke="none" 
	d="
M291.760620,274.570801 
	C278.923157,275.016113 265.933746,275.052032 252.479294,275.033508 
	C252.644058,274.653961 253.273804,274.045715 253.903717,274.045563 
	C266.472015,274.042114 279.040344,274.108856 291.760620,274.570801 
z"/>
<path fill="#FFFFFF" opacity="1.000000" stroke="none" 
	d="
M164.621399,312.778442 
	C175.200073,312.512817 185.449081,312.512817 196.131409,312.512817 
	C196.131409,315.517334 196.131409,317.789948 196.032150,320.510864 
	C195.484955,318.827118 195.037018,316.695068 194.470795,314.000000 
	C186.140518,314.000000 177.357956,314.042694 168.576630,313.957153 
	C167.145493,313.943237 165.719879,313.362701 164.621399,312.778442 
z"/>
<path fill="#EBEBEC" opacity="1.000000" stroke="none" 
	d="
M195.794769,296.105896 
	C185.849899,296.102692 175.905029,296.099487 165.500229,296.015686 
	C165.677414,295.611633 166.314392,295.007111 166.951691,295.006775 
	C176.844894,295.001526 186.738144,295.074585 196.471252,295.572571 
	C196.139008,296.045685 195.966888,296.075775 195.794769,296.105896 
z"/>
<path fill="#FFFFFF" opacity="1.000000" stroke="none" 
	d="
M170.090881,404.402710 
	C178.031876,403.899536 186.180756,403.789368 194.795990,403.826141 
	C192.420486,404.315369 189.583191,404.894531 186.735779,404.949432 
	C181.259796,405.055054 175.778076,404.863831 170.090881,404.402710 
z"/>
<path fill="#C6C9CC" opacity="1.000000" stroke="none" 
	d="
M229.424408,306.000305 
	C228.952286,306.011810 228.633591,306.201965 228.457413,306.143707 
	C231.058517,305.723694 233.828125,305.147644 236.614792,305.047882 
	C241.402145,304.876526 246.200165,305.002350 251.457184,305.009552 
	C248.344131,305.345612 244.773529,305.812592 241.189438,305.967834 
	C237.431885,306.130615 233.661392,305.994385 229.424408,306.000305 
z"/>
<path fill="#D4D5D6" opacity="1.000000" stroke="none" 
	d="
M195.909851,296.521362 
	C195.966888,296.075775 196.139008,296.045685 196.572647,295.998444 
	C196.868393,298.417206 196.902603,300.853149 197.070572,303.664093 
	C196.811203,301.671692 196.418060,299.304291 195.909851,296.521362 
z"/>
<path fill="#D4D5D6" opacity="1.000000" stroke="none" 
	d="
M205.272141,304.259216 
	C203.451019,304.232513 201.226822,304.269714 198.675659,304.252991 
	C200.522156,304.240417 202.695602,304.281769 205.272141,304.259216 
z"/>
<path fill="#94979B" opacity="1.000000" stroke="none" 
	d="
M211.669846,324.925598 
	C211.490036,325.291656 211.112320,325.327728 211.042709,325.151245 
	C210.656876,323.888306 210.340637,322.801819 210.045914,321.362885 
	C210.661499,322.193451 211.255569,323.376526 211.669846,324.925598 
z"/>
<path fill="#F8F8F8" opacity="1.000000" stroke="none" 
	d="
M261.976288,60.608212 
	C261.427643,60.400894 260.899750,59.880154 260.722504,59.143261 
	C261.381104,59.383003 261.689087,59.838894 261.976288,60.608212 
z"/>
<path fill="#000000" opacity="1.000000" stroke="none" 
	d="
M177.210571,178.147156 
	C172.213654,176.423401 167.280777,174.466782 162.194565,173.067688 
	C159.372528,172.291412 158.532486,171.091843 157.807175,168.169983 
	C156.108902,161.328598 158.253616,156.335495 162.452682,151.038712 
	C168.518967,143.386612 168.077652,140.077637 162.225677,132.571625 
	C156.968567,125.828606 158.086517,115.504356 164.874954,109.959183 
	C165.874054,109.143074 167.647247,109.159042 169.084671,109.017586 
	C172.837219,108.648270 176.641937,107.923714 180.352493,108.229858 
	C185.338257,108.641212 186.158035,105.110954 187.448669,101.900917 
	C189.036163,97.952568 190.343979,93.891556 191.940338,89.947090 
	C192.945602,87.463135 202.257523,83.961807 205.285202,84.897614 
	C210.989670,86.660751 216.632401,88.626709 222.356064,90.321686 
	C223.339035,90.612785 225.032227,90.378868 225.651276,89.703568 
	C228.431351,86.670837 230.731247,83.180771 233.627930,80.278427 
	C235.406647,78.496262 237.984055,76.286766 240.143494,76.348381 
	C245.678894,76.506279 252.149033,74.776932 255.524506,81.990242 
	C256.721191,84.547470 259.250183,87.255836 261.798065,88.196312 
	C264.548279,89.211464 268.644379,89.319641 271.086670,87.937920 
	C279.920135,82.940414 286.187439,88.024818 292.637756,92.531105 
	C293.881805,93.400230 294.657928,95.474609 294.907349,97.106499 
	C295.280579,99.548386 295.002502,102.090874 294.989777,104.590523 
	C294.953461,111.720230 297.241821,114.293419 304.277405,115.022369 
	C313.550018,115.983086 313.698059,117.415298 316.313080,126.090477 
	C318.849609,134.505310 313.627350,138.740646 309.563873,143.609406 
	C306.742859,146.989502 306.251617,149.798264 308.107544,153.446442 
	C309.386963,155.961426 310.307892,158.712738 311.897858,161.005600 
	C316.485229,167.620987 314.046844,173.464508 310.057983,179.006210 
	C309.109070,180.324478 306.965851,181.214066 305.250061,181.463974 
	C301.041779,182.076935 296.757996,182.153595 292.513092,182.539581 
	C289.461212,182.817078 287.678375,184.219818 287.756653,187.662994 
	C287.811951,190.095276 287.258514,192.538315 287.023407,194.981033 
	C286.683075,198.516663 287.201050,202.408005 283.090240,204.343735 
	C276.769653,207.320038 270.474579,210.268799 263.358765,206.567825 
	C255.362091,202.408722 250.836990,203.243286 245.362854,210.497833 
	C241.367355,215.792801 236.195572,215.641068 230.255569,216.412048 
	C219.764511,217.773743 215.665298,210.615875 210.654083,204.564362 
	C208.008560,201.369659 205.237457,200.882584 202.565308,202.759735 
	C194.304077,208.563232 187.223236,206.175110 180.001892,199.798706 
	C179.470963,193.629471 179.372757,188.141693 178.962814,182.677292 
	C178.846909,181.132111 177.819778,179.655319 177.210571,178.147156 
M207.198944,128.408432 
	C207.132629,134.566422 206.952072,140.726212 207.050293,146.881577 
	C207.096466,149.774872 207.679092,152.659607 207.911591,156.210022 
	C211.393692,159.431564 215.191422,162.381302 218.267181,165.952805 
	C221.213943,169.374481 224.519043,170.265198 228.791199,170.037994 
	C238.688889,169.511627 248.604660,169.327332 258.512573,168.989136 
	C260.828308,168.910095 263.148132,168.836975 265.453583,168.625183 
	C266.337555,168.543961 267.400970,168.319260 268.019104,167.758911 
	C275.849457,160.660141 283.849274,153.604401 281.003174,141.259613 
	C280.930298,140.943604 280.957672,140.591461 280.999390,140.263947 
	C282.114563,131.508896 280.555969,123.909836 272.422852,118.744034 
	C270.042389,117.232094 268.160004,114.936058 265.538910,112.305359 
	C251.505600,112.219505 237.472321,112.123055 223.438873,112.088280 
	C222.902206,112.086945 222.364044,112.680351 221.236267,113.273643 
	C218.241501,116.126808 215.113419,118.855988 212.301895,121.879539 
	C210.610199,123.698807 209.411606,125.976585 207.198944,128.408432 
z"/>
<path fill="#EBEBEC" opacity="1.000000" stroke="none" 
	d="
M177.255554,178.604492 
	C177.819778,179.655319 178.846909,181.132111 178.962814,182.677292 
	C179.372757,188.141693 179.470963,193.629471 179.814606,199.508057 
	C179.202637,198.869751 177.883423,197.865585 177.820663,196.788239 
	C177.477051,190.889343 177.441772,184.972488 177.255554,178.604492 
z"/>
<path fill="#2B3138" opacity="1.000000" stroke="none" 
	d="
M266.049316,112.999413 
	C268.160004,114.936058 270.042389,117.232094 272.422852,118.744034 
	C280.555969,123.909836 282.114563,131.508896 280.999390,140.263947 
	C280.957672,140.591461 280.930298,140.943604 281.003174,141.259613 
	C283.849274,153.604401 275.849457,160.660141 268.019104,167.758911 
	C267.400970,168.319260 266.337555,168.543961 265.453583,168.625183 
	C263.148132,168.836975 260.828308,168.910095 258.512573,168.989136 
	C248.604660,169.327332 238.688889,169.511627 228.791199,170.037994 
	C224.519043,170.265198 221.213943,169.374481 218.267181,165.952805 
	C215.191422,162.381302 211.393692,159.431564 207.967636,155.368439 
	C208.012924,145.700684 208.002182,136.874496 207.991425,128.048309 
	C209.411606,125.976585 210.610199,123.698807 212.301895,121.879539 
	C215.113419,118.855988 218.241501,116.126808 222.014984,113.140579 
	C237.212234,113.004814 251.630768,113.002113 266.049316,112.999413 
M258.888885,129.444626 
	C250.441742,129.299271 241.994888,129.102966 233.547195,129.055878 
	C232.042175,129.047485 230.533737,129.658127 228.465363,130.428864 
	C224.221848,135.371033 223.743576,143.098877 226.817001,149.249344 
	C228.223251,152.063492 230.000320,153.136642 233.033768,153.047684 
	C238.277863,152.893890 243.595779,153.514481 248.758545,152.848083 
	C253.401413,152.248764 258.867188,153.249176 262.045013,147.956573 
	C265.599854,142.036041 264.681702,135.873550 258.888885,129.444626 
z"/>
<path fill="#5F6368" opacity="1.000000" stroke="none" 
	d="
M265.794128,112.652390 
	C251.630768,113.002113 237.212234,113.004814 222.310120,113.002060 
	C222.364044,112.680351 222.902206,112.086945 223.438873,112.088280 
	C237.472321,112.123055 251.505600,112.219505 265.794128,112.652390 
z"/>
<path fill="#AFB1B5" opacity="1.000000" stroke="none" 
	d="
M207.595184,128.228363 
	C208.002182,136.874496 208.012924,145.700684 208.021149,155.037537 
	C207.679092,152.659607 207.096466,149.774872 207.050293,146.881577 
	C206.952072,140.726212 207.132629,134.566422 207.595184,128.228363 
z"/>
<path fill="#000000" opacity="1.000000" stroke="none" 
	d="
M259.032715,130.354553 
	C264.681702,135.873550 265.599854,142.036041 262.045013,147.956573 
	C258.867188,153.249176 253.401413,152.248764 248.758545,152.848083 
	C243.595779,153.514481 238.277863,152.893890 233.033768,153.047684 
	C230.000320,153.136642 228.223251,152.063492 226.817001,149.249344 
	C223.743576,143.098877 224.221848,135.371033 229.213043,130.213562 
	C239.651382,130.117035 249.342056,130.235794 259.032715,130.354553 
z"/>
<path fill="#AFB1B5" opacity="1.000000" stroke="none" 
	d="
M258.960815,129.899597 
	C249.342056,130.235794 239.651382,130.117035 229.493805,129.990601 
	C230.533737,129.658127 232.042175,129.047485 233.547195,129.055878 
	C241.994888,129.102966 250.441742,129.299271 258.960815,129.899597 
z"/>
</svg>