<?xml version="1.0" encoding="utf-8"?>
<!-- Generator: Adobe Illustrator 26.0.3, SVG Export Plug-In . SVG Version: 6.00 Build 0)  -->
<svg version="1.0" id="Layer_1" xmlns="http://www.w3.org/2000/svg" xmlns:xlink="http://www.w3.org/1999/xlink" x="0px" y="0px"
	 viewBox="0 0 228 138" style="enable-background:new 0 0 228 138;" xml:space="preserve">
<style type="text/css">
	.st0{fill:none;}
</style>
<g id="g930">
	<g id="g919">
		<path id="path4" d="M71,59.5l0.1-0.2l-0.2-0.1c-0.6-0.4-1.3-0.7-2-0.9c-0.7,0.1-1.4,0.4-2.1,0.7c-0.2-0.4-0.5-0.7-0.8-1
			c-0.3-0.3-0.6-0.6-1-0.8c0.3-0.6,0.6-1.3,0.7-2c-0.2-0.7-0.5-1.4-0.9-2c-0.1-0.1-0.2-0.2-0.4-0.1h-0.1v0.2v0.1
			c0.4,0.5,0.7,1.2,0.8,1.8c-0.1,0.5-0.3,1.1-0.5,1.6c-0.1-0.2-0.2-0.3-0.3-0.5c-0.4-0.4-1.1-0.4-1.6,0c-0.1,0.1-0.3,0.3-0.3,0.5
			c-0.3,0.1-0.5,0.2-0.7,0.4c-0.7,0.8-0.8,1.9-0.3,2.8c-0.7-0.2-1.3-0.2-2,0l-1.1-1.6c0.1-0.4,0.2-1.4,0.2-2h-0.1c0-0.1,0-0.3,0-0.4
			l0,0c0,0,0-0.1,0-0.2l0,0h0c0,0-0.1,0-0.1,0.1c-0.1,0.2-0.1,0.3-0.1,0.5l0,0c-0.2,0.7-0.3,1.5-0.3,2.2l0,0l0,0
			c0,0,0.3,0.9,0.6,1.4l-0.6-0.3c-0.2-0.1-0.3-0.1-0.5-0.2l-0.1-0.2c-0.3-1-0.5-1.7-0.7-2.2h-0.1c0-0.1-0.1-0.2-0.2-0.3
			c0-0.2-0.1-0.2-0.1-0.2l0,0c0,0,0,0-0.1,0c0,0.1,0,0.1,0,0.2c0,0.2,0,0.3,0,0.5l0,0c0.2,0.9,0.4,1.7,0.6,2.6V60l0.3,0.2L56.1,60
			c-0.4-0.5-0.9-1-1.4-1.5l-0.1,0.1c-0.1-0.1-0.2-0.2-0.3-0.2c-0.1-0.2-0.1-0.2-0.1-0.2s-0.1,0,0,0.2c0.1,0.1,0.1,0.3,0.2,0.4l0,0
			c0.3,0.4,0.8,1,1.3,1.6l0,0l0,0c0,0,1.5,0.7,2,1c0,0,0,0.1-0.1,0.2c-2-0.4-5.2-1-8.5-1.4c-5.5-0.7-11.4-0.6-12.5-0.1
			c0,0-0.1,0-0.1,0l-0.1,0.1l0,0c0,0.1,0,0.2,0,0.3c0.6,1.1,5.6,3.8,6.9,4.1c3.2,0.9,4.6,0.7,5,0.6c0.6-0.1,1.1-0.3,1.6-0.7
			c0.6-0.5,1.4-0.8,2.2-0.8c0.5,0,3.2-0.3,5.4-0.5c0.1,0.4,0.3,0.8,0.5,1.1c-1.9-1-4.1,1-7.2,4.1c-2.9,2.9-5.5,8.7-6.3,10.4
			l-0.2,0.6l0.6-0.2c1.7-0.7,7.5-3.4,10.4-6.3c3.1-3.1,5-5.3,4.1-7.2c0.4,0.2,0.7,0.4,1.1,0.5c-0.2,1.5-0.5,4.8-0.5,5.4
			c-0.1,0.8-0.3,1.6-0.8,2.2c-0.4,0.5-0.6,1-0.7,1.6c-0.1,1.7,0.1,3.4,0.6,5c0.6,1.7,1.4,3.3,2.4,4.8c0.4,0.6,0.8,1.2,1.2,1.7
			c0,0,0,0,0,0.1l0,0c0.1,0.1,0.2,0.2,0.4,0.3c0.1,0,0.1,0.1,0.2,0.1c0,0,0.1,0,0.1,0h0.1c0,0,0-0.1,0.1-0.1c0.5-1.1,0.6-7-0.1-12.6
			C63,71.2,62.4,68,62,66c0.1,0,0.1,0,0.2-0.1c0.3,0.6,1,2,1,2l0,0l0,0c0.6,0.5,1.3,1,1.6,1.3l0,0c0.1,0.1,0.2,0.2,0.4,0.2
			c0,0,0.1,0,0.1,0s0.1,0,0.1-0.1l0,0l0,0l-0.1-0.1c-0.1-0.1-0.1-0.2-0.2-0.3l0.1-0.1c-0.4-0.4-1.2-1.2-1.5-1.4l-0.3-0.9l0.2,0.3
			h0.1c1,0.3,2,0.5,2.6,0.6l0,0c0.1,0,0.3,0,0.4,0l0,0c0.1,0,0.2,0,0.2-0.1s0-0.1-0.2-0.1c-0.1,0-0.2-0.1-0.3-0.1v-0.1
			c-0.5-0.2-1.1-0.4-2.2-0.7L64,66.4c0-0.1-0.1-0.2-0.2-0.4c-0.1-0.2-0.2-0.4-0.3-0.6c0.6,0.2,1.4,0.5,1.4,0.6l0,0l0,0
			c0.8-0.1,1.5-0.2,2.2-0.3l0,0c0.2,0,0.3-0.1,0.5-0.1c0.1,0,0.1-0.1,0.1-0.1l0,0h-0.1c0,0,0,0-0.2,0l0,0c-0.1,0-0.3,0-0.4,0v-0.1
			c-0.7,0-1.3,0.1-2,0.2l-1.6-1.1c0.2-0.7,0.2-1.3,0-2c0.9,0.5,2,0.4,2.8-0.3c0.2-0.2,0.4-0.5,0.4-0.7c0.2-0.1,0.4-0.1,0.5-0.3
			c0.4-0.4,0.4-1.1,0-1.6c0,0,0,0,0,0c-0.1-0.1-0.3-0.2-0.5-0.3c0.5-0.3,1-0.5,1.6-0.5c0.6,0.2,1.2,0.4,1.8,0.8h0.1h0.2L71,59.5z"/>
		<path id="path6" d="M55.2,43.1c-14.4,0-26,11.6-26,25.9c0,14.4,11.6,26,25.9,26c14.4,0,26-11.6,26-25.9c0,0,0-0.1,0-0.1
			C81.1,54.7,69.5,43.1,55.2,43.1C55.2,43,55.2,43,55.2,43.1z M55.2,91c-12.2,0-22-9.8-22-22c0-12.2,9.8-22,22-22s22,9.8,22,22
			c0,0,0,0,0,0C77.1,81.2,67.3,91,55.2,91L55.2,91z"/>
	</g>
	<g id="g915">
		<path id="path8" d="M122.6,57.8v15.9c0,0.7,0,1.3,0.2,2c0.1,1.1,0.9,2,2,2.2c1.5,0.4,3.1,0.4,4.7,0c1.3-0.3,2.2-1.4,2.1-2.8
			c0-0.4,0-0.8,0-1.2v-16h2.6c0,0.1,0,0.2,0,0.3v16.6c0,0.9-0.1,1.7-0.4,2.6c-0.4,1.1-1.3,1.9-2.3,2.3c-1.2,0.4-2.5,0.7-3.8,0.7
			c-1.2,0.1-2.4-0.1-3.6-0.4c-1.1-0.3-2.1-1-2.8-2c0,0,0-0.1-0.1-0.1c-1.4,2-3.4,2.5-5.6,2.6c-1.4,0.1-2.9-0.1-4.3-0.5
			c-1.7-0.5-3-2-3.1-3.8c-0.1-0.7-0.1-1.4-0.1-2.1V57.9h2.7c0,0.2,0,0.3,0,0.4v15.9c0,0.4,0,0.9,0.1,1.3c0,1.3,1.1,2.4,2.4,2.5
			c1.4,0.3,2.8,0.3,4.1,0c1.5-0.2,2.6-1.5,2.4-3c0-0.4,0-0.9,0-1.3V58.3c0-0.4,0-0.4,0.4-0.4h1.9c0.1,0,0.3,0,0.4,0L122.6,57.8z"/>
		<path id="path10" d="M160.1,72.6h2.6c0,0.1,0,0.2,0,0.4c0,0.9,0,1.7,0.1,2.5c0.1,1.1,0.9,2.1,2,2.3c0.9,0.2,1.7,0.3,2.6,0.4
			c1.5,0.2,3.1,0.1,4.6-0.2c0.2-0.1,0.4-0.1,0.7-0.2c1-0.3,1.8-1.2,1.8-2.2c0.1-0.8,0.1-1.6,0-2.4c0-1.1-0.9-2.1-2-2.3
			c-1-0.2-2.1-0.4-3.1-0.6c-1.8-0.3-3.6-0.6-5.4-0.9c-0.8-0.2-1.6-0.5-2.3-1c-0.9-0.7-1.5-1.7-1.6-2.9c-0.1-1.1-0.1-2.3,0-3.4
			c0.1-1.7,1.2-3.2,2.9-3.7c1.3-0.4,2.6-0.6,3.9-0.7c1.7-0.1,3.4-0.1,5.1,0.2c0.9,0.1,1.8,0.3,2.6,0.7c1.2,0.5,2.1,1.6,2.4,2.9
			c0.2,1,0.2,2,0.2,3h-2.6v-1c0-0.4,0-0.8-0.1-1.2c-0.1-0.8-0.7-1.6-1.5-1.9c-1.1-0.4-2.2-0.6-3.4-0.6c-1.5-0.1-2.9,0-4.3,0.3
			c-0.2,0-0.5,0.1-0.7,0.2c-0.9,0.3-1.6,1.1-1.6,2.1c-0.1,0.9-0.1,1.8,0,2.7c0,0.9,0.7,1.7,1.6,1.9c0.9,0.2,1.8,0.4,2.8,0.5
			c2,0.3,4,0.7,6.1,1c0.8,0.2,1.6,0.5,2.2,1c0.9,0.7,1.5,1.7,1.6,2.9c0.1,1.3,0.1,2.6-0.1,3.9c-0.2,1.5-1.3,2.8-2.8,3.3
			c-1.2,0.4-2.4,0.6-3.7,0.7c-1.7,0.1-3.5,0.1-5.2-0.1c-1-0.1-1.9-0.3-2.9-0.7c-1.3-0.5-2.2-1.7-2.4-3.1
			C160.1,75.2,160.1,73.9,160.1,72.6L160.1,72.6z"/>
		<path id="path58" d="M155.9,80.1V63.6c0-0.5,0-1-0.1-1.5c0-1.7-1.2-3.3-2.9-3.8c-0.4-0.2-0.9-0.3-1.3-0.4
			c-1.9-0.4-3.9-0.5-5.8-0.3c-1.3,0-2.6,0.2-3.8,0.6c-1.5,0.3-2.7,1.5-3.1,3.1c-0.1,0.7-0.2,1.3-0.2,2v16.9h2.7v-8.2h11.9v8.2
			L155.9,80.1z M153.2,69.1v0.4h-11.8v-6.2c0-0.4,0-0.8,0.1-1.2c0.2-0.9,0.9-1.7,1.8-1.9c0.9-0.3,1.8-0.4,2.8-0.4
			c1.5-0.1,3.1,0,4.6,0.3c0.2,0,0.5,0.1,0.7,0.2c1,0.3,1.7,1.3,1.8,2.3c0,0.4,0.1,0.9,0.1,1.3C153.3,65.6,153.2,67.4,153.2,69.1
			L153.2,69.1z"/>
		<path id="path60" d="M103.9,69L103.9,69c0-2.2,0-4.3,0-6.5c0.1-1.7-1-3.3-2.6-3.9c-0.5-0.2-1-0.4-1.5-0.6c-2-0.4-4.1-0.5-6.1-0.4
			c-1.4,0-2.8,0.3-4.2,0.7c-1.4,0.4-2.5,1.6-2.8,3c-0.1,0.7-0.2,1.3-0.2,2v10.8c0,0.5,0,1.1,0.1,1.6c0,1.8,1.2,3.3,2.9,3.8
			c0.7,0.3,1.5,0.4,2.3,0.6c1.9,0.3,3.9,0.3,5.9,0.1c1.1-0.1,2.3-0.3,3.3-0.7c1.5-0.5,2.5-1.7,2.7-3.3c0.1-0.6,0.1-1.3,0.2-1.9
			C104,72.6,103.9,70.7,103.9,69L103.9,69z M101.2,74.3c0,0.4,0,0.8-0.1,1.2c-0.1,1-0.7,1.8-1.7,2.1c-0.9,0.3-1.8,0.5-2.8,0.5
			c-1.6,0.1-3.1,0.1-4.7-0.2H92c-1.6-0.2-2.9-1.6-2.7-3.3c0,0,0,0,0,0c0-3.7,0-7.4,0-11c0-0.4,0-0.9,0.1-1.3c0.1-1,0.8-1.8,1.7-2.1
			c0.9-0.3,1.9-0.5,2.9-0.5c1.5-0.1,3.1,0,4.6,0.2l0.5,0.1c1.3,0.3,2.2,1.4,2.1,2.7c0.1,0.7,0.1,1.3,0.1,1.9V69
			C101.2,70.8,101.2,72.5,101.2,74.3L101.2,74.3z"/>
		<path id="path62" d="M198.7,62.6c-0.1-2-1.4-3.8-3.4-4.3c-1.2-0.3-2.4-0.5-3.6-0.5h-10.1v22.3h2.6v-6.4h7.1c1.1,0,2.2-0.1,3.2-0.3
			c2.3-0.4,4-2.3,4.1-4.6C198.8,66.7,198.8,64.7,198.7,62.6z M196,68.5c-0.1,1.6-1.4,2.8-3,2.9c-0.4,0.1-0.9,0.1-1.3,0.1h-7.4V60
			h7.1c0.7,0,1.4,0.1,2.1,0.2c1.4,0.3,2.5,1.5,2.6,2.9c0.1,1.3,0.1,2.5,0.1,3.8C196.1,67.4,196.1,68,196,68.5z"/>
	</g>
</g>
<rect x="22" y="38" class="st0" width="184" height="62"/>
</svg>
