<svg version="1.1" id="Layer_1" xmlns="http://www.w3.org/2000/svg" xmlns:xlink="http://www.w3.org/1999/xlink" x="0px" y="0px"
	 width="100%" viewBox="0 0 196 62" enable-background="new 0 0 196 62" xml:space="preserve">
<path fill="#FCFCFC" opacity="1.000000" stroke="none" 
	d="
M34.000000,1.000000 
	C88.286705,1.000000 142.573410,1.000000 196.930054,1.000000 
	C196.930054,21.602118 196.930054,42.204517 196.930054,62.903461 
	C131.787216,62.903461 66.574242,62.903461 1.180636,62.903461 
	C1.180636,42.334534 1.180636,21.667456 1.180636,1.000000 
	C9.744288,1.000000 18.403482,1.000000 27.410652,1.363214 
	C26.318304,2.103117 24.869127,2.449103 23.439018,2.861247 
	C9.168834,6.973784 0.013515,21.173088 2.482471,35.346420 
	C5.245216,51.206280 17.862185,61.212616 33.931156,60.287926 
	C48.276546,59.462414 60.366760,47.427151 61.042831,33.299484 
	C61.799847,17.480398 51.585411,4.487867 36.451370,1.963494 
	C35.604244,1.822192 34.815773,1.329265 34.000000,1.000000 
M108.203751,35.998550 
	C108.202759,31.505209 108.316048,27.007183 108.132095,22.521345 
	C108.075890,21.150732 107.202957,19.813614 106.704063,18.461153 
	C106.129356,19.739199 105.111755,20.999269 105.059029,22.298500 
	C104.863495,27.116611 104.820114,31.955296 105.042946,36.771290 
	C105.211800,40.420578 103.170853,41.525726 100.188606,41.584740 
	C97.046471,41.646919 94.720444,40.723103 94.884224,36.744518 
	C95.096245,31.594244 95.021263,26.425930 94.861893,21.271812 
	C94.829781,20.233570 93.867889,19.224081 93.334679,18.201336 
	C92.871964,18.400923 92.409256,18.600512 91.946548,18.800098 
	C91.946548,25.422729 91.666176,32.065502 92.139496,38.654133 
	C92.261063,40.346252 94.569511,42.953938 96.204979,43.239159 
	C99.510651,43.815659 103.043594,43.088959 106.482811,42.899693 
	C106.453583,42.417850 106.424355,41.936008 106.395119,41.454170 
	C107.707054,42.093529 108.966499,42.891788 110.339783,43.345432 
	C117.206764,45.613834 121.307198,42.684731 121.336266,35.553421 
	C121.355942,30.727312 121.387085,25.900253 121.301979,21.075581 
	C121.285599,20.146803 120.752960,19.227133 120.458481,18.303261 
	C119.053139,19.544542 118.720955,20.700094 118.705544,21.859856 
	C118.643608,26.518801 118.600288,31.180883 118.707794,35.838169 
	C118.778397,38.897041 118.010742,41.086243 114.505203,41.335785 
	C111.182594,41.572308 108.435188,41.051712 108.203751,35.998550 
M167.303314,36.623283 
	C167.643387,41.353195 164.179779,41.711834 161.016800,41.529388 
	C158.200211,41.366924 154.301361,42.247013 153.946518,37.333504 
	C153.881668,36.435619 152.648529,35.622108 151.954712,34.769650 
	C151.121353,41.862453 152.374771,43.398239 158.290543,43.862667 
	C160.583054,44.042648 162.931107,43.850163 165.226212,43.586628 
	C169.035294,43.149250 170.450531,40.777409 170.509232,37.058582 
	C170.568314,33.317837 169.174469,31.015430 165.390701,30.373428 
	C162.450241,29.874510 159.414246,29.659378 156.618073,28.726553 
	C155.499985,28.353546 154.306213,26.420938 154.248505,25.148298 
	C154.188416,23.823431 155.104645,21.806879 156.207581,21.190195 
	C160.673264,18.693308 165.609756,20.638449 167.758240,25.270432 
	C167.955505,25.695742 168.804611,25.818699 169.589630,26.197050 
	C170.715424,22.864485 170.265427,19.752855 167.028931,19.200510 
	C162.740723,18.468676 158.203766,18.815359 153.827927,19.247561 
	C152.758774,19.353163 151.360611,21.473055 151.040176,22.878111 
	C149.732925,28.610243 151.773682,30.819927 158.354446,32.039825 
	C161.513336,32.625397 165.651459,31.262260 167.303314,36.623283 
M175.363388,39.935120 
	C175.722946,41.222980 176.082504,42.510838 176.442062,43.798695 
	C176.944443,43.741596 177.446823,43.684498 177.949219,43.627399 
	C178.179001,41.292065 178.408783,38.956734 178.683975,36.160004 
	C182.270721,36.160004 185.560699,36.250340 188.843704,36.137753 
	C193.212250,35.987938 194.791824,33.313736 194.978851,29.257879 
	C195.319717,21.865860 194.306442,19.264465 189.657227,18.770874 
	C185.116455,18.288795 180.484436,18.666018 175.363419,18.666018 
	C175.363419,25.519157 175.363419,32.284920 175.363388,39.935120 
M82.562378,18.688951 
	C81.090240,18.456396 79.624405,18.079725 78.144920,18.014927 
	C69.266953,17.626089 67.554535,19.269928 67.545036,28.028353 
	C67.542694,30.191477 67.539917,32.354618 67.545547,34.517727 
	C67.565666,42.256104 69.070259,43.795872 76.797272,43.932869 
	C77.959244,43.953472 79.150780,43.996082 80.281151,43.780025 
	C83.195259,43.223022 87.307716,42.868793 86.819618,39.112381 
	C85.941841,32.356945 90.786865,24.510021 82.562378,18.688951 
M133.035675,18.194210 
	C131.017303,19.602530 127.399429,20.865685 127.256172,22.444181 
	C126.620247,29.451250 126.980583,36.548733 126.980583,43.613514 
	C127.691917,43.708218 128.403244,43.802917 129.114578,43.897617 
	C129.503708,40.747208 129.892822,37.596798 130.283112,34.436836 
	C134.588806,34.436836 138.680771,34.436836 142.741501,34.436836 
	C143.662567,42.743305 143.662567,42.743305 146.121033,43.463261 
	C146.121033,37.534142 146.148987,31.741138 146.113205,25.948530 
	C146.077026,20.091595 144.808655,18.705442 138.892654,18.139807 
	C137.243561,17.982138 135.566437,18.117846 133.035675,18.194210 
z"/>
<path fill="#0A0A0A" opacity="1.000000" stroke="none" 
	d="
M33.571537,1.000000 
	C34.815773,1.329265 35.604244,1.822192 36.451370,1.963494 
	C51.585411,4.487867 61.799847,17.480398 61.042831,33.299484 
	C60.366760,47.427151 48.276546,59.462414 33.931156,60.287926 
	C17.862185,61.212616 5.245216,51.206280 2.482471,35.346420 
	C0.013515,21.173088 9.168834,6.973784 23.439018,2.861247 
	C24.869127,2.449103 26.318304,2.103117 27.879314,1.363214 
	C29.714357,1.000000 31.428717,1.000000 33.571537,1.000000 
M48.239830,12.212595 
	C37.879681,4.537443 26.633720,3.935816 17.322582,10.558609 
	C8.568843,16.784937 4.656751,27.821232 7.645830,37.857422 
	C10.592414,47.750927 19.419683,55.123714 29.264669,55.914085 
	C40.045532,56.779598 49.829643,51.165596 54.418354,41.481232 
	C59.050869,31.704428 57.063461,21.581129 48.239830,12.212595 
z"/>
<path fill="#0F0F0F" opacity="1.000000" stroke="none" 
	d="
M108.217789,36.450066 
	C108.435188,41.051712 111.182594,41.572308 114.505203,41.335785 
	C118.010742,41.086243 118.778397,38.897041 118.707794,35.838169 
	C118.600288,31.180883 118.643608,26.518801 118.705544,21.859856 
	C118.720955,20.700094 119.053139,19.544542 120.458481,18.303261 
	C120.752960,19.227133 121.285599,20.146803 121.301979,21.075581 
	C121.387085,25.900253 121.355942,30.727312 121.336266,35.553421 
	C121.307198,42.684731 117.206764,45.613834 110.339783,43.345432 
	C108.966499,42.891788 107.707054,42.093529 106.395119,41.454170 
	C106.424355,41.936008 106.453583,42.417850 106.482811,42.899693 
	C103.043594,43.088959 99.510651,43.815659 96.204979,43.239159 
	C94.569511,42.953938 92.261063,40.346252 92.139496,38.654133 
	C91.666176,32.065502 91.946548,25.422729 91.946548,18.800098 
	C92.409256,18.600512 92.871964,18.400923 93.334679,18.201336 
	C93.867889,19.224081 94.829781,20.233570 94.861893,21.271812 
	C95.021263,26.425930 95.096245,31.594244 94.884224,36.744518 
	C94.720444,40.723103 97.046471,41.646919 100.188606,41.584740 
	C103.170853,41.525726 105.211800,40.420578 105.042946,36.771290 
	C104.820114,31.955296 104.863495,27.116611 105.059029,22.298500 
	C105.111755,20.999269 106.129356,19.739199 106.704056,18.461155 
	C107.202957,19.813614 108.075890,21.150732 108.132095,22.521345 
	C108.316048,27.007183 108.202759,31.505209 108.217789,36.450066 
z"/>
<path fill="#161616" opacity="1.000000" stroke="none" 
	d="
M167.267609,36.187721 
	C165.651459,31.262260 161.513336,32.625397 158.354446,32.039825 
	C151.773682,30.819927 149.732925,28.610243 151.040176,22.878111 
	C151.360611,21.473055 152.758774,19.353163 153.827927,19.247561 
	C158.203766,18.815359 162.740723,18.468676 167.028931,19.200510 
	C170.265427,19.752855 170.715424,22.864485 169.589630,26.197050 
	C168.804611,25.818699 167.955505,25.695742 167.758240,25.270432 
	C165.609756,20.638449 160.673264,18.693308 156.207581,21.190195 
	C155.104645,21.806879 154.188416,23.823431 154.248505,25.148298 
	C154.306213,26.420938 155.499985,28.353546 156.618073,28.726553 
	C159.414246,29.659378 162.450241,29.874510 165.390701,30.373428 
	C169.174469,31.015430 170.568314,33.317837 170.509232,37.058582 
	C170.450531,40.777409 169.035294,43.149250 165.226212,43.586628 
	C162.931107,43.850163 160.583054,44.042648 158.290543,43.862667 
	C152.374771,43.398239 151.121353,41.862453 151.954712,34.769650 
	C152.648529,35.622108 153.881668,36.435619 153.946518,37.333504 
	C154.301361,42.247013 158.200211,41.366924 161.016800,41.529388 
	C164.179779,41.711834 167.643387,41.353195 167.267609,36.187721 
z"/>
<path fill="#212121" opacity="1.000000" stroke="none" 
	d="
M175.363403,39.492901 
	C175.363419,32.284920 175.363419,25.519157 175.363419,18.666018 
	C180.484436,18.666018 185.116455,18.288795 189.657227,18.770874 
	C194.306442,19.264465 195.319717,21.865860 194.978851,29.257879 
	C194.791824,33.313736 193.212250,35.987938 188.843704,36.137753 
	C185.560699,36.250340 182.270721,36.160004 178.683975,36.160004 
	C178.408783,38.956734 178.179001,41.292065 177.949219,43.627399 
	C177.446823,43.684498 176.944443,43.741596 176.442062,43.798695 
	C176.082504,42.510838 175.722946,41.222980 175.363403,39.492901 
M178.523575,33.504322 
	C181.491867,33.638187 184.499863,34.109211 187.412018,33.766335 
	C188.910263,33.589935 190.948318,32.269093 191.520599,30.939512 
	C194.131287,24.873827 191.353821,20.952976 184.768509,20.901789 
	C182.671951,20.885492 180.575165,20.899240 178.351151,20.899240 
	C178.351151,25.200130 178.351151,28.858995 178.523575,33.504322 
z"/>
<path fill="#111111" opacity="1.000000" stroke="none" 
	d="
M82.970818,18.792459 
	C90.786865,24.510021 85.941841,32.356945 86.819618,39.112381 
	C87.307716,42.868793 83.195259,43.223022 80.281151,43.780025 
	C79.150780,43.996082 77.959244,43.953472 76.797272,43.932869 
	C69.070259,43.795872 67.565666,42.256104 67.545547,34.517727 
	C67.539917,32.354618 67.542694,30.191477 67.545036,28.028353 
	C67.554535,19.269928 69.266953,17.626089 78.144920,18.014927 
	C79.624405,18.079725 81.090240,18.456396 82.970818,18.792459 
M84.090332,24.940350 
	C83.678291,19.159737 79.173218,20.652105 75.858269,20.544994 
	C72.459358,20.435171 70.179939,21.983675 70.335854,25.936213 
	C70.473236,29.418953 70.417236,32.912685 70.345886,36.399506 
	C70.238388,41.653675 74.065857,41.644852 77.560478,41.604294 
	C80.910378,41.565418 84.409393,41.338188 84.090981,36.317722 
	C83.870743,32.845154 84.089722,29.344727 84.090332,24.940350 
z"/>
<path fill="#121212" opacity="1.000000" stroke="none" 
	d="
M133.468918,18.156590 
	C135.566437,18.117846 137.243561,17.982138 138.892654,18.139807 
	C144.808655,18.705442 146.077026,20.091595 146.113205,25.948530 
	C146.148987,31.741138 146.121033,37.534142 146.121033,43.463261 
	C143.662567,42.743305 143.662567,42.743305 142.741501,34.436836 
	C138.680771,34.436836 134.588806,34.436836 130.283112,34.436836 
	C129.892822,37.596798 129.503708,40.747208 129.114578,43.897617 
	C128.403244,43.802917 127.691917,43.708218 126.980583,43.613514 
	C126.980583,36.548733 126.620247,29.451250 127.256172,22.444181 
	C127.399429,20.865685 131.017303,19.602530 133.468918,18.156590 
M142.790939,31.146721 
	C142.858719,29.171190 143.254059,27.132809 142.890900,25.239958 
	C142.598877,23.717983 141.733124,21.633139 140.528381,21.071705 
	C134.136566,18.092958 129.579788,21.131447 129.654007,28.033834 
	C129.665878,29.137062 129.861313,30.238319 130.004562,31.666359 
	C134.168427,31.666359 138.102646,31.666359 142.790939,31.146721 
z"/>
<path fill="#F7F7F7" opacity="1.000000" stroke="none" 
	d="
M48.504490,12.459221 
	C57.063461,21.581129 59.050869,31.704428 54.418354,41.481232 
	C49.829643,51.165596 40.045532,56.779598 29.264669,55.914085 
	C19.419683,55.123714 10.592414,47.750927 7.645830,37.857422 
	C4.656751,27.821232 8.568843,16.784937 17.322582,10.558609 
	C26.633720,3.935816 37.879681,4.537443 48.504490,12.459221 
M28.370777,37.952000 
	C31.143475,35.431759 33.916172,32.911518 37.325150,29.812933 
	C36.732594,34.142864 35.511681,37.866112 35.944450,41.386047 
	C36.364552,44.802921 38.481987,48.011105 39.854038,51.310936 
	C40.242706,51.147701 40.631371,50.984467 41.020039,50.821232 
	C41.020039,42.066299 41.020039,33.311371 41.020039,24.894438 
	C42.943516,23.606684 44.495853,22.567406 46.055408,21.523294 
	C41.803493,15.407240 40.863113,15.365838 37.371952,20.990921 
	C28.716053,20.990921 19.922243,20.990921 10.755392,20.990921 
	C17.060425,28.796015 25.080328,25.778595 33.889740,24.644098 
	C26.639414,29.435373 22.570679,34.666729 19.944221,42.570694 
	C23.224270,40.758522 25.477097,39.513874 28.370777,37.952000 
z"/>
<path fill="#F5F5F5" opacity="1.000000" stroke="none" 
	d="
M178.437363,33.011093 
	C178.351151,28.858995 178.351151,25.200130 178.351151,20.899240 
	C180.575165,20.899240 182.671951,20.885492 184.768509,20.901789 
	C191.353821,20.952976 194.131287,24.873827 191.520599,30.939512 
	C190.948318,32.269093 188.910263,33.589935 187.412018,33.766335 
	C184.499863,34.109211 181.491867,33.638187 178.437363,33.011093 
z"/>
<path fill="#F5F5F5" opacity="1.000000" stroke="none" 
	d="
M84.101379,25.398548 
	C84.089722,29.344727 83.870743,32.845154 84.090981,36.317722 
	C84.409393,41.338188 80.910378,41.565418 77.560478,41.604294 
	C74.065857,41.644852 70.238388,41.653675 70.345886,36.399506 
	C70.417236,32.912685 70.473236,29.418953 70.335854,25.936213 
	C70.179939,21.983675 72.459358,20.435171 75.858269,20.544994 
	C79.173218,20.652105 83.678291,19.159737 84.101379,25.398548 
z"/>
<path fill="#F2F2F2" opacity="1.000000" stroke="none" 
	d="
M142.413910,31.406540 
	C138.102646,31.666359 134.168427,31.666359 130.004562,31.666359 
	C129.861313,30.238319 129.665878,29.137062 129.654007,28.033834 
	C129.579788,21.131447 134.136566,18.092958 140.528381,21.071705 
	C141.733124,21.633139 142.598877,23.717983 142.890900,25.239958 
	C143.254059,27.132809 142.858719,29.171190 142.413910,31.406540 
z"/>
<path fill="#0B0B0B" opacity="1.000000" stroke="none" 
	d="
M28.050350,38.110611 
	C25.477097,39.513874 23.224270,40.758522 19.944221,42.570694 
	C22.570679,34.666729 26.639414,29.435373 33.889740,24.644098 
	C25.080328,25.778595 17.060425,28.796015 10.755392,20.990921 
	C19.922243,20.990921 28.716053,20.990921 37.371952,20.990921 
	C40.863113,15.365838 41.803493,15.407240 46.055408,21.523294 
	C44.495853,22.567406 42.943516,23.606684 41.020039,24.894438 
	C41.020039,33.311371 41.020039,42.066299 41.020039,50.821232 
	C40.631371,50.984467 40.242706,51.147701 39.854038,51.310936 
	C38.481987,48.011105 36.364552,44.802921 35.944450,41.386047 
	C35.511681,37.866112 36.732594,34.142864 37.325150,29.812933 
	C33.916172,32.911518 31.143475,35.431759 28.050350,38.110611 
z"/>
</svg>