<?xml version="1.0" encoding="UTF-8"?>
<svg version="1.1" xmlns="http://www.w3.org/2000/svg" width="203" height="62">
<path d="M0 0 C66.99 0 133.98 0 203 0 C203 20.46 203 40.92 203 62 C136.01 62 69.02 62 0 62 C0 41.54 0 21.08 0 0 Z " fill="#040404" transform="translate(0,0)"/>
<path d="M0 0 C5.73375 -0.061875 11.4675 -0.12375 17.375 -0.1875 C19.16341309 -0.21481201 20.95182617 -0.24212402 22.79443359 -0.27026367 C34.29770006 -0.37429206 43.76875708 0.25717566 52.953125 7.89453125 C60.0466399 15.19110478 62.32374468 22.83597804 62.3894043 32.73388672 C62.26655664 39.11478074 60.64504059 43.71923482 57 49 C56.62746094 49.58136719 56.25492188 50.16273437 55.87109375 50.76171875 C51.16126507 57.27670825 43.5343879 60.16535071 36 62 C33.14191752 62.24778308 30.30844494 62.23487505 27.44140625 62.1953125 C26.7407605 62.19329834 26.04011475 62.19128418 25.3182373 62.18920898 C22.73292371 62.17884588 20.14770438 62.15092431 17.5625 62.125 C11.766875 62.08375 5.97125 62.0425 0 62 C0 41.54 0 21.08 0 0 Z " fill="#0A0A0A" transform="translate(0,0)"/>
<path d="M0 0 C5.73375 -0.061875 11.4675 -0.12375 17.375 -0.1875 C19.16341309 -0.21481201 20.95182617 -0.24212402 22.79443359 -0.27026367 C34.29770006 -0.37429206 43.76875708 0.25717566 52.953125 7.89453125 C60.0466399 15.19110478 62.32374468 22.83597804 62.3894043 32.73388672 C62.26655664 39.11478074 60.64504059 43.71923482 57 49 C56.62746094 49.58136719 56.25492188 50.16273437 55.87109375 50.76171875 C51.16126507 57.27670825 43.5343879 60.16535071 36 62 C33.14191752 62.24778308 30.30844494 62.23487505 27.44140625 62.1953125 C26.7407605 62.19329834 26.04011475 62.19128418 25.3182373 62.18920898 C22.73292371 62.17884588 20.14770438 62.15092431 17.5625 62.125 C11.766875 62.08375 5.97125 62.0425 0 62 C0 41.54 0 21.08 0 0 Z M9 16 C4.24954617 22.36196472 3.9610171 29.29111794 5 37 C7.29990385 44.86169056 12.36303907 50.36321908 19 55 C25.03351685 58.02671472 31.41883217 57.78917644 38 57 C45.61504862 54.43015729 51.11023537 50.03410398 55 43 C58.14239107 36.54124465 58.30569403 28.33436575 56.2421875 21.484375 C55.29175515 19.52364054 54.24439082 17.78580999 53 16 C52.2265625 14.700625 52.2265625 14.700625 51.4375 13.375 C45.46147394 7.55220538 39.18568228 4.61783128 30.8125 4.375 C21.09606485 4.85233579 15.08952851 8.50756745 9 16 Z " fill="#F1F1F1" transform="translate(0,0)"/>
<path d="M0 0 C2.77469439 1.06091256 5.33269887 2.18404618 7.9375 3.625 C13.52370016 6.13308987 17.42068991 4.9406296 23 3 C24.32 3 25.64 3 27 3 C27 3.66 27 4.32 27 5 C26.13375 5.33 25.2675 5.66 24.375 6 C18.11698914 9.70845088 15.10403329 15.58133528 12 22 C13.92376152 20.95040056 15.83875314 19.88471863 17.75 18.8125 C18.81734375 18.22082031 19.8846875 17.62914063 20.984375 17.01953125 C25.05809734 14.29140372 27.44583589 11.66249234 29 7 C29.66 7 30.32 7 31 7 C30.125 14.75 30.125 14.75 29 17 C28.20683276 22.41997616 30.18734094 25.5297301 33.00390625 29.94921875 C34 32 34 32 33 35 C27.91760292 37.54119854 19.91796131 36.770082 14.54296875 35.3515625 C7.27552628 31.99735828 1.62674162 26.01345553 -1.34765625 18.609375 C-2.62566363 13.49734548 -2.62121443 8.21531186 -2 3 C-1.34 2.01 -0.68 1.02 0 0 Z " fill="#070707" transform="translate(7,21)"/>
<path d="M0 0 C1.85625 -0.00773437 1.85625 -0.00773437 3.75 -0.015625 C7 0.25 7 0.25 10 2.25 C10.6623407 5.85465418 10.46295266 9.52925824 10.4375 13.1875 C10.4674707 14.71020508 10.4674707 14.71020508 10.49804688 16.26367188 C10.49740234 17.23755859 10.49675781 18.21144531 10.49609375 19.21484375 C10.49887329 20.55470337 10.49887329 20.55470337 10.50170898 21.92163086 C10 24.25 10 24.25 8.14868164 26.03979492 C5.31693061 27.63472616 3.23515638 27.64926367 0 27.625 C-1.03125 27.63273437 -2.0625 27.64046875 -3.125 27.6484375 C-6.42135352 27.1916059 -7.62668839 26.54444117 -10 24.25 C-10.50170898 21.92163086 -10.50170898 21.92163086 -10.49609375 19.21484375 C-10.49673828 18.24095703 -10.49738281 17.26707031 -10.49804688 16.26367188 C-10.47806641 15.24853516 -10.45808594 14.23339844 -10.4375 13.1875 C-10.44458984 12.16849609 -10.45167969 11.14949219 -10.45898438 10.09960938 C-10.41061181 4.48467105 -10.41061181 4.48467105 -10 2.25 C-6.32077133 -0.20281911 -4.37740649 -0.01823919 0 0 Z " fill="#060606" transform="translate(79,16.75)"/>
<path d="M0 0 C0.99 0 1.98 0 3 0 C3.33 0.99 3.66 1.98 4 3 C4.66 3.33 5.32 3.66 6 4 C6 3.01 6 2.02 6 1 C8.3125 0.3125 8.3125 0.3125 11 0 C12.875 1.125 12.875 1.125 14 3 C13.6875 5.6875 13.6875 5.6875 13 8 C12.01 8 11.02 8 10 8 C10.020625 8.94875 10.04125 9.8975 10.0625 10.875 C10 14 10 14 9 16 C9.30923155 17.33912835 9.6458103 18.67205477 10 20 C10.07708723 21.36800819 10.10803609 22.73923592 10.09765625 24.109375 C10.09443359 24.86347656 10.09121094 25.61757813 10.08789062 26.39453125 C10.07532227 27.56048828 10.07532227 27.56048828 10.0625 28.75 C10.05798828 29.54277344 10.05347656 30.33554687 10.04882812 31.15234375 C10.03708565 33.10159508 10.01915146 35.05080738 10 37 C9.34 37 8.68 37 8 37 C2.09930716 27.51674365 2.09930716 27.51674365 3 22 C3.89483593 18.62911238 4.90113201 15.30968574 6 12 C5.34 12 4.68 12 4 12 C3.9175 12.556875 3.835 13.11375 3.75 13.6875 C1.70069668 20.00618525 -3.3298089 22.66607438 -8.7578125 25.86328125 C-11 27 -11 27 -13 27 C-11.26648292 20.06593169 -7.08316808 13.85267311 -1 10 C-0.01 10 0.98 10 2 10 C2 9.34 2 8.68 2 8 C0.51988629 8.30798326 -0.95907325 8.621518 -2.4375 8.9375 C-3.26121094 9.11152344 -4.08492187 9.28554688 -4.93359375 9.46484375 C-6.97661204 9.80752994 -6.97661204 9.80752994 -8 11 C-14.0451457 11.90677185 -18.05983094 9.07388297 -23 6 C-23 5.34 -23 4.68 -23 4 C-16.07 4 -9.14 4 -2 4 C-1.34 2.68 -0.68 1.36 0 0 Z " fill="#F0F0F0" transform="translate(32,16)"/>
<path d="M0 0 C1.01513672 -0.01740234 1.01513672 -0.01740234 2.05078125 -0.03515625 C6.95064203 -0.00616299 6.95064203 -0.00616299 9.19848633 1.5534668 C11.0054836 4.08244948 10.84197852 5.83035325 10.79296875 8.91796875 C10.78330078 9.99111328 10.77363281 11.06425781 10.76367188 12.16992188 C10.73853516 13.28947266 10.71339844 14.40902344 10.6875 15.5625 C10.66719727 17.25922852 10.66719727 17.25922852 10.64648438 18.99023438 C10.61109958 21.78563317 10.56172948 24.58007892 10.5 27.375 C9.18 27.045 7.86 26.715 6.5 26.375 C6.5 23.405 6.5 20.435 6.5 17.375 C2.21 17.375 -2.08 17.375 -6.5 17.375 C-6.5 20.345 -6.5 23.315 -6.5 26.375 C-7.82 26.705 -9.14 27.035 -10.5 27.375 C-10.58696177 23.43763877 -10.64037835 19.50052372 -10.6875 15.5625 C-10.71263672 14.44294922 -10.73777344 13.32339844 -10.76367188 12.16992188 C-10.77333984 11.09677734 -10.78300781 10.02363281 -10.79296875 8.91796875 C-10.8086792 7.92821045 -10.82438965 6.93845215 -10.84057617 5.91870117 C-10.5 3.375 -10.5 3.375 -9.19848633 1.5534668 C-6.38999427 -0.39515922 -3.29082877 -0.05641421 0 0 Z " fill="#DEDEDE" transform="translate(141.5,16.625)"/>
<path d="M0 0 C2.5575 -0.061875 5.115 -0.12375 7.75 -0.1875 C8.94834473 -0.22846802 8.94834473 -0.22846802 10.17089844 -0.27026367 C13.26011545 -0.3064472 15.66273095 -0.1548468 18.484375 1.140625 C20.62164307 3.76263428 20.53311986 5.58825422 20.5 8.9375 C20.5103125 9.97777344 20.520625 11.01804687 20.53125 12.08984375 C20 15 20 15 18.421875 17.36328125 C15.0849579 19.61839136 12.73659123 19.39765153 8.75 19.25 C7.48671875 19.21390625 6.2234375 19.1778125 4.921875 19.140625 C3.47554687 19.07101563 3.47554687 19.07101563 2 19 C2 21.31 2 23.62 2 26 C1.34 26 0.68 26 0 26 C0 17.42 0 8.84 0 0 Z " fill="#FAFAFA" transform="translate(183,17)"/>
<path d="M0 0 C0.99 0 1.98 0 3 0 C3.03758423 0.99181274 3.03758423 0.99181274 3.07592773 2.00366211 C3.19153102 4.98182305 3.31441754 7.9596392 3.4375 10.9375 C3.47681641 11.97841797 3.51613281 13.01933594 3.55664062 14.09179688 C3.59853516 15.08115234 3.64042969 16.07050781 3.68359375 17.08984375 C3.72025146 18.00628662 3.75690918 18.92272949 3.79467773 19.86694336 C3.77003864 21.9820728 3.77003864 21.9820728 5 23 C8.5 23.16666667 8.5 23.16666667 12 23 C13.65079442 21.34920558 13.22549447 19.36263821 13.31640625 17.08984375 C13.35830078 16.10048828 13.40019531 15.11113281 13.44335938 14.09179688 C13.50233398 12.53041992 13.50233398 12.53041992 13.5625 10.9375 C13.60568359 9.89271484 13.64886719 8.84792969 13.69335938 7.77148438 C13.79981225 5.18113116 13.9018276 2.59067814 14 0 C14.99 0 15.98 0 17 0 C17.02505615 0.6612085 17.0501123 1.32241699 17.07592773 2.00366211 C17.19153102 4.98182305 17.31441754 7.9596392 17.4375 10.9375 C17.47681641 11.97841797 17.51613281 13.01933594 17.55664062 14.09179688 C17.59853516 15.08115234 17.64042969 16.07050781 17.68359375 17.08984375 C17.72025146 18.00628662 17.75690918 18.92272949 17.79467773 19.86694336 C17.77003864 21.9820728 17.77003864 21.9820728 19 23 C22.5 23.16666667 22.5 23.16666667 26 23 C27.65079442 21.34920558 27.22549447 19.36263821 27.31640625 17.08984375 C27.35830078 16.10048828 27.40019531 15.11113281 27.44335938 14.09179688 C27.48267578 13.05087891 27.52199219 12.00996094 27.5625 10.9375 C27.60568359 9.89271484 27.64886719 8.84792969 27.69335938 7.77148438 C27.79981225 5.18113116 27.9018276 2.59067814 28 0 C28.99 0 29.98 0 31 0 C31.11622939 3.74973906 31.1872595 7.49901464 31.25 11.25 C31.30027344 12.84521484 31.30027344 12.84521484 31.3515625 14.47265625 C31.36445312 15.49746094 31.37734375 16.52226563 31.390625 17.578125 C31.41157227 18.52075195 31.43251953 19.46337891 31.45410156 20.43457031 C30.85853941 23.79917627 29.69461938 24.95682707 27 27 C21.77127096 27.49797419 18.83875227 26.93550091 14 25 C13.01 25.66 12.02 26.32 11 27 C7.46659831 27.32121834 4.97248545 27.51896852 1.80175781 25.8269043 C0 24 0 24 -0.45410156 21.45629883 C-0.4331543 20.46654053 -0.41220703 19.47678223 -0.390625 18.45703125 C-0.37773438 17.38388672 -0.36484375 16.31074219 -0.3515625 15.20507812 C-0.31804687 14.08552734 -0.28453125 12.96597656 -0.25 11.8125 C-0.23195313 10.68134766 -0.21390625 9.55019531 -0.1953125 8.38476562 C-0.14812652 5.58899624 -0.08230595 2.79492028 0 0 Z " fill="#F0F0F0" transform="translate(95,17)"/>
<path d="M0 0 C1.85625 -0.00773437 1.85625 -0.00773437 3.75 -0.015625 C7 0.25 7 0.25 10 2.25 C10.1875 5.375 10.1875 5.375 10 8.25 C9.01 8.25 8.02 8.25 7 8.25 C6.34 6.6 5.68 4.95 5 3.25 C3.35425434 3.22311849 1.70838587 3.20365877 0.0625 3.1875 C-1.31228516 3.17009766 -1.31228516 3.17009766 -2.71484375 3.15234375 C-4.96593327 2.99050951 -4.96593327 2.99050951 -6 4.25 C-6.04092937 6.58297433 -6.04241723 8.91705225 -6 11.25 C-5.26394531 11.28738281 -4.52789062 11.32476562 -3.76953125 11.36328125 C7.14398769 12.09853814 7.14398769 12.09853814 10 15.25 C10.63672286 18.35257686 10.80735332 21.17648942 10 24.25 C7.75707092 26.62486608 6.37018039 27.19869783 3.125 27.6484375 C1.578125 27.63683594 1.578125 27.63683594 0 27.625 C-1.03125 27.63273437 -2.0625 27.64046875 -3.125 27.6484375 C-6.34717868 27.20188556 -7.75453983 26.58634785 -10 24.25 C-10.25 20.5625 -10.25 20.5625 -10 17.25 C-9.01 17.25 -8.02 17.25 -7 17.25 C-6.34 19.23 -5.68 21.21 -5 23.25 C-3.35425434 23.27688151 -1.70838587 23.29634123 -0.0625 23.3125 C1.31228516 23.32990234 1.31228516 23.32990234 2.71484375 23.34765625 C4.96593327 23.50949049 4.96593327 23.50949049 6 22.25 C6.04063832 20.58382885 6.042721 18.91611905 6 17.25 C2.91684995 15.80477341 0.23512037 15.11007524 -3.125 14.8125 C-7 14.25 -7 14.25 -8.71875 13 C-10.35069345 10.77100407 -10.40210046 9.42916276 -10.375 6.6875 C-10.38273438 5.90246094 -10.39046875 5.11742187 -10.3984375 4.30859375 C-10.26695312 3.62925781 -10.13546875 2.94992188 -10 2.25 C-6.32077133 -0.20281911 -4.37740649 -0.01823919 0 0 Z " fill="#F1F1F1" transform="translate(167,16.75)"/>
<path d="M0 0 C1.85625 -0.00773437 1.85625 -0.00773437 3.75 -0.015625 C7 0.25 7 0.25 10 2.25 C10.6623407 5.85465418 10.46295266 9.52925824 10.4375 13.1875 C10.4674707 14.71020508 10.4674707 14.71020508 10.49804688 16.26367188 C10.49740234 17.23755859 10.49675781 18.21144531 10.49609375 19.21484375 C10.49887329 20.55470337 10.49887329 20.55470337 10.50170898 21.92163086 C10 24.25 10 24.25 8.14868164 26.03979492 C5.31693061 27.63472616 3.23515638 27.64926367 0 27.625 C-1.03125 27.63273437 -2.0625 27.64046875 -3.125 27.6484375 C-6.42135352 27.1916059 -7.62668839 26.54444117 -10 24.25 C-10.50170898 21.92163086 -10.50170898 21.92163086 -10.49609375 19.21484375 C-10.49673828 18.24095703 -10.49738281 17.26707031 -10.49804688 16.26367188 C-10.47806641 15.24853516 -10.45808594 14.23339844 -10.4375 13.1875 C-10.44458984 12.16849609 -10.45167969 11.14949219 -10.45898438 10.09960938 C-10.41061181 4.48467105 -10.41061181 4.48467105 -10 2.25 C-6.32077133 -0.20281911 -4.37740649 -0.01823919 0 0 Z M-7 4.25 C-7.30903289 6.15228305 -7.30903289 6.15228305 -7.265625 8.3125 C-7.26820312 9.10914063 -7.27078125 9.90578125 -7.2734375 10.7265625 C-7.26570313 11.55929688 -7.25796875 12.39203125 -7.25 13.25 C-7.25773437 14.08273438 -7.26546875 14.91546875 -7.2734375 15.7734375 C-7.27085938 16.57007813 -7.26828125 17.36671875 -7.265625 18.1875 C-7.26336914 18.91839844 -7.26111328 19.64929688 -7.25878906 20.40234375 C-7.15448561 22.49697364 -7.15448561 22.49697364 -5 24.25 C-2.63044614 24.56899515 -2.63044614 24.56899515 0 24.5 C1.3303125 24.50773437 1.3303125 24.50773437 2.6875 24.515625 C5.19400239 24.47052862 5.19400239 24.47052862 7 22.25 C7.30903289 20.34771695 7.30903289 20.34771695 7.265625 18.1875 C7.26820312 17.39085937 7.27078125 16.59421875 7.2734375 15.7734375 C7.26570313 14.94070312 7.25796875 14.10796875 7.25 13.25 C7.25773437 12.41726562 7.26546875 11.58453125 7.2734375 10.7265625 C7.27085938 9.92992187 7.26828125 9.13328125 7.265625 8.3125 C7.26336914 7.58160156 7.26111328 6.85070312 7.25878906 6.09765625 C7.15448561 4.00302636 7.15448561 4.00302636 5 2.25 C2.63044614 1.93100485 2.63044614 1.93100485 0 2 C-0.886875 1.99484375 -1.77375 1.9896875 -2.6875 1.984375 C-5.19400239 2.02947138 -5.19400239 2.02947138 -7 4.25 Z " fill="#F1F1F1" transform="translate(79,16.75)"/>
<path d="M0 0 C1.71986758 2.57980137 2.82916881 4.87161481 4.0625 7.6875 C7.35358663 14.26967326 11.91432524 19.30996462 18.8046875 22.16015625 C21.1944433 22.88791474 23.55163593 23.5093049 26 24 C26 24.33 26 24.66 26 25 C17.42 25 8.84 25 0 25 C0 16.75 0 8.5 0 0 Z " fill="#090909" transform="translate(0,37)"/>
<path d="M0 0 C7.92 0 15.84 0 24 0 C22 2 22 2 18.875 3.1875 C12.06214314 6.00367048 6.42937583 11.53694556 3 18 C2.15986235 20.66043588 1.56677242 23.26059999 1 26 C0.67 26 0.34 26 0 26 C0 17.42 0 8.84 0 0 Z " fill="#070707" transform="translate(0,0)"/>
<path d="M0 0 C9.1796875 -0.1953125 9.1796875 -0.1953125 12 0 C14 2 14 2 14.265625 4.09375 C14.26046875 4.8878125 14.2553125 5.681875 14.25 6.5 C14.25515625 7.2940625 14.2603125 8.088125 14.265625 8.90625 C14 11 14 11 12 13 C7.98805634 13.27783543 4.02552638 13.0856495 0 13 C0 8.71 0 4.42 0 0 Z " fill="#060606" transform="translate(186,20)"/>
<path d="M0 0 C1.31291016 -0.02513672 1.31291016 -0.02513672 2.65234375 -0.05078125 C5.0625 0.3125 5.0625 0.3125 6.8671875 1.5390625 C9.0929392 4.84132156 8.23032518 8.45252075 8.0625 12.3125 C3.1125 12.3125 -1.8375 12.3125 -6.9375 12.3125 C-7.1328125 4.6953125 -7.1328125 4.6953125 -6.9375 2.3125 C-4.42737037 -0.19762963 -3.46944763 0.01528391 0 0 Z " fill="#1B1B1B" transform="translate(140.9375,18.6875)"/>
<path d="M0 0 C0.99 0 1.98 0 3 0 C3.33 0.99 3.66 1.98 4 3 C4.66 3.33 5.32 3.66 6 4 C6.33 3.01 6.66 2.02 7 1 C7 2.32 7 3.64 7 5 C5.68 5 4.36 5 3 5 C3 5.66 3 6.32 3 7 C1.93458984 7.30744141 1.93458984 7.30744141 0.84765625 7.62109375 C-0.53099609 8.02521484 -0.53099609 8.02521484 -1.9375 8.4375 C-3.31228516 8.83775391 -3.31228516 8.83775391 -4.71484375 9.24609375 C-6.9402493 9.79026051 -6.9402493 9.79026051 -8 11 C-14.0451457 11.90677185 -18.05983094 9.07388297 -23 6 C-23 5.34 -23 4.68 -23 4 C-16.07 4 -9.14 4 -2 4 C-1.34 2.68 -0.68 1.36 0 0 Z " fill="#E9E9E9" transform="translate(32,16)"/>
<path d="M0 0 C2 1 2 1 3.1171875 4.00390625 C4.24538929 8.32352817 4.22387113 12.49970718 4.125 16.9375 C4.11597656 17.71673828 4.10695313 18.49597656 4.09765625 19.29882812 C4.07433691 21.19935447 4.03847586 23.09972008 4 25 C3.34 25 2.68 25 2 25 C-3.90069284 15.51674365 -3.90069284 15.51674365 -3 10 C-2.10516407 6.62911238 -1.09886799 3.30968574 0 0 Z " fill="#E6E6E6" transform="translate(38,28)"/>
<path d="M0 0 C0.66 0.33 1.32 0.66 2 1 C1.67 1.99 1.34 2.98 1 4 C0.90862434 5.39615108 0.86934333 6.79617609 0.8671875 8.1953125 C0.86589844 8.99324219 0.86460938 9.79117187 0.86328125 10.61328125 C0.86714844 11.44214844 0.87101562 12.27101563 0.875 13.125 C0.87113281 13.96160156 0.86726563 14.79820313 0.86328125 15.66015625 C0.46850047 19.64715756 0.46850047 19.64715756 2 23 C3.99567879 23.19313021 5.99209519 23.38320963 7.9921875 23.5234375 C10.44340142 24.10524314 11.3915023 25.10824485 13 27 C11.08404032 27.08133791 9.16708068 27.13934367 7.25 27.1875 C5.64898437 27.23970703 5.64898437 27.23970703 4.015625 27.29296875 C0.56918425 26.95814614 -0.54898706 26.38963207 -3 24 C-3.50170898 21.67163086 -3.50170898 21.67163086 -3.49609375 18.96484375 C-3.49673828 17.99095703 -3.49738281 17.01707031 -3.49804688 16.01367188 C-3.47806641 14.99853516 -3.45808594 13.98339844 -3.4375 12.9375 C-3.44458984 11.91849609 -3.45167969 10.89949219 -3.45898438 9.84960938 C-3.41061181 4.23467105 -3.41061181 4.23467105 -3 2 C-2.01 1.34 -1.02 0.68 0 0 Z " fill="#E5E5E5" transform="translate(72,17)"/>
<path d="M0 0 C1.85625 -0.00773437 1.85625 -0.00773437 3.75 -0.015625 C7 0.25 7 0.25 10 2.25 C10.1875 5.375 10.1875 5.375 10 8.25 C9.01 8.25 8.02 8.25 7 8.25 C6.34 6.6 5.68 4.95 5 3.25 C3.35425434 3.22311849 1.70838587 3.20365877 0.0625 3.1875 C-1.31228516 3.17009766 -1.31228516 3.17009766 -2.71484375 3.15234375 C-4.96593327 2.99050951 -4.96593327 2.99050951 -6 4.25 C-6.04092937 6.58297433 -6.04241723 8.91705225 -6 11.25 C-4.35 11.25 -2.7 11.25 -1 11.25 C-1.99 11.745 -1.99 11.745 -3 12.25 C-3 12.91 -3 13.57 -3 14.25 C-7.75 13.5 -7.75 13.5 -10 11.25 C-10.30078125 9.15625 -10.30078125 9.15625 -10.3125 6.75 C-10.32925781 5.9559375 -10.34601563 5.161875 -10.36328125 4.34375 C-10.18345703 3.30734375 -10.18345703 3.30734375 -10 2.25 C-6.32077133 -0.20281911 -4.37740649 -0.01823919 0 0 Z " fill="#EAEAEA" transform="translate(167,16.75)"/>
<path d="M0 0 C1.79792975 1.79792975 1.25670277 4.38385204 1.3125 6.8125 C1.34988281 7.87082031 1.38726562 8.92914063 1.42578125 10.01953125 C1 13 1 13 -0.59765625 15.37109375 C-3.80470185 17.54562711 -5.91197673 17.40352093 -9.75 17.25 C-10.92046875 17.21390625 -12.0909375 17.1778125 -13.296875 17.140625 C-14.18890625 17.09421875 -15.0809375 17.0478125 -16 17 C-16 16.67 -16 16.34 -16 16 C-15.22914063 15.96261719 -14.45828125 15.92523438 -13.6640625 15.88671875 C-12.15972656 15.78810547 -12.15972656 15.78810547 -10.625 15.6875 C-9.62726563 15.62949219 -8.62953125 15.57148437 -7.6015625 15.51171875 C-6.74304688 15.34285156 -5.88453125 15.17398438 -5 15 C-2.88704744 11.83057116 -2.74749071 11.00370047 -2.8125 7.375 C-2.81894531 6.57835937 -2.82539063 5.78171875 -2.83203125 4.9609375 C-2.78817102 2.99710266 -2.78817102 2.99710266 -4 2 C-6.01594582 1.76572222 -8.038474 1.58663876 -10.0625 1.4375 C-12.021875 1.293125 -13.98125 1.14875 -16 1 C-16 5.29 -16 9.58 -16 14 C-16.33 14 -16.66 14 -17 14 C-17 9.38 -17 4.76 -17 0 C-14.9375 -0.185625 -12.875 -0.37125 -10.75 -0.5625 C-9.58984375 -0.66691406 -8.4296875 -0.77132813 -7.234375 -0.87890625 C-4.47290049 -0.98229479 -2.57097487 -0.92432668 0 0 Z " fill="#D1D1D1" transform="translate(202,19)"/>
<path d="M0 0 C0.99 0 1.98 0 3 0 C3.086985 3.77068832 3.14038579 7.54111932 3.1875 11.3125 C3.21263672 12.38435547 3.23777344 13.45621094 3.26367188 14.56054688 C3.27333984 15.58857422 3.28300781 16.61660156 3.29296875 17.67578125 C3.3086792 18.62364502 3.32438965 19.57150879 3.34057617 20.5480957 C3 23 3 23 1.6184082 24.85229492 C0 26 0 26 -2.1875 25.6875 C-2.785625 25.460625 -3.38375 25.23375 -4 25 C-3.5155542 24.61030029 -3.0311084 24.22060059 -2.53198242 23.8190918 C-0.52326272 21.43391721 -0.57763018 19.98600407 -0.48828125 16.89453125 C-0.45283203 15.91162109 -0.41738281 14.92871094 -0.38085938 13.91601562 C-0.35830078 12.89185547 -0.33574219 11.86769531 -0.3125 10.8125 C-0.27833984 9.77673828 -0.24417969 8.74097656 -0.20898438 7.67382812 C-0.12647358 5.1159934 -0.05733428 2.55850277 0 0 Z " fill="#F4F4F4" transform="translate(123,17)"/>
<path d="M0 0 C0.99 0 1.98 0 3 0 C3.66 1.98 4.32 3.96 5 6 C6.258125 6.103125 7.51625 6.20625 8.8125 6.3125 C12.28746568 6.59733325 13.73349022 7.33309732 16 10 C14.08404032 10.08133791 12.16708068 10.13934367 10.25 10.1875 C9.18265625 10.22230469 8.1153125 10.25710937 7.015625 10.29296875 C3.65510966 9.96649381 2.3071383 9.44024243 0 7 C-0.25 3.3125 -0.25 3.3125 0 0 Z " fill="#D5D5D5" transform="translate(157,34)"/>
<path d="M0 0 C1.93719378 -0.05406122 3.87481921 -0.09282025 5.8125 -0.125 C6.89144531 -0.14820312 7.97039062 -0.17140625 9.08203125 -0.1953125 C12 0 12 0 15 2 C15.1875 5.125 15.1875 5.125 15 8 C14.01 8 13.02 8 12 8 C11.34 6.35 10.68 4.7 10 3 C6.37 2.67 2.74 2.34 -1 2 C-0.67 1.34 -0.34 0.68 0 0 Z " fill="#F9F9F9" transform="translate(162,17)"/>
<path d="M0 0 C1.32 0.33 2.64 0.66 4 1 C4 2.98 4 4.96 4 7 C3.01 7 2.02 7 1 7 C0.67 4.69 0.34 2.38 0 0 Z " fill="#E8E8E8" transform="translate(173,18)"/>
<path d="M0 0 C0.99 0 1.98 0 3 0 C3.33 1.32 3.66 2.64 4 4 C3.01 4 2.02 4 1 4 C1 4.66 1 5.32 1 6 C-0.32 5.67 -1.64 5.34 -3 5 C-1.6875 2.5 -1.6875 2.5 0 0 Z " fill="#7D7D7D" transform="translate(32,16)"/>
<path d="M0 0 C2.875 -0.1875 2.875 -0.1875 6 0 C6.66 0.99 7.32 1.98 8 3 C5.36 3 2.72 3 0 3 C0 2.01 0 1.02 0 0 Z " fill="#CBCBCB" transform="translate(114,41)"/>
</svg>
